<svg xmlns="http://www.w3.org/2000/svg" viewBox="0 0 1245.56 946.98"><defs><style>.cls-1{fill:#FFF;}.cls-2{fill:#e06060;}</style></defs><path class="cls-1" d="M797.63,426.2a9.81,9.81,0,0,0-4.24-3.56c-7.4-3.15-13.1,4.25-14.31,10.78-1.37,7.41,0,15.21-3,22.33-6.38,15.35-23.83,24.68-40,24.68-17.86,0-28.32-13.7-33.09-29.62-4.3-14.34-5.16-29.79-5.4-44.67l31.34,1.1q54.83,1.85,63.69-18.76a30.64,30.64,0,0,0,2-11.4q0-31.24-29.63-45.6-16.7-7.73-37.81-7.72-38.49,0-59.94,28.32Q651,374.15,651,406.87q0,53.34,37.13,74.29,17.7,9.93,40.19,9.93c10.88,0,22.14-1.78,32.12-6.51,9.65-4.57,17.86-11.69,25.14-19.41,7.09-7.53,14-16.42,14.84-27.15A19,19,0,0,0,797.63,426.2Zm-70.32-92.88q21.8.74,22.14,40.09,0,17.28-9.53,21.33-6.82,2.58-20.44,1.84l-21.8-1.11Q700.07,334.43,727.31,333.32Z"/><path class="cls-1" d="M629.82,488.68l-4.91-10.86V326.37a2.51,2.51,0,0,0-3.53-2.29l-51.19,22.65a1.68,1.68,0,0,0-.45,2.81l8.92,7.95-.2,77.07q-2.55,27.12-20.68,35.81a26.53,26.53,0,0,1-10.89,2.43q-20.68,0-24.31-23.29a59.06,59.06,0,0,1-.72-9.25V325.83a2.5,2.5,0,0,0-3.54-2.28l-51.17,23.18a1.68,1.68,0,0,0-.45,2.81s9,8,9.08,8v76.62q.74,56.32,51.89,56.67,32.65,0,49.71-27.81l2.18-4.17-.25,29.62a2.52,2.52,0,0,0,2.51,2.54h46.46a1.69,1.69,0,0,0,1.55-2.38Z"/><path class="cls-1" d="M449.87,499.37s-9.26-8.21-9.47-8.28V327.23a2.52,2.52,0,0,0-3.32-2.38c-17.66,5.85-21.9,8.47-39.87,14.95v.27q-18-16.2-45.35-16.2-35.28,0-56.87,26.28-18.72,23.4-18.71,59,0,45.35,29.51,66.94a60.62,60.62,0,0,0,36,11.52q29.16,0,46.43-23.4a103.61,103.61,0,0,0,6.48-11.15v69.4a2.5,2.5,0,0,0,3.52,2.3l51.22-22.61a1.67,1.67,0,0,0,1-1.28A1.69,1.69,0,0,0,449.87,499.37Zm-77.13-32.25a26.35,26.35,0,0,1-14,4q-25.2,0-31.31-41a155.33,155.33,0,0,1-1.8-24.83q0-52.55,22.67-66.23a27.76,27.76,0,0,1,13.68-3.6q25.92,0,32,39.95a174.54,174.54,0,0,1,1.44,23Q395.41,452.37,372.74,467.12Z"/><path class="cls-1" d="M955.78,326.85c-9.66-5.05-21.77-3.39-31.46,1.6-19.76,10.17-47.24,48-47.54,48.41V325.48a1.71,1.71,0,0,0-2.4-1.56l-52.89,23.4a1.72,1.72,0,0,0-1,1.3,1.7,1.7,0,0,0,.55,1.54l9.21,8.16V489.39a1.71,1.71,0,0,0,1.71,1.7h48.37a1.7,1.7,0,0,0,1.55-2.41s-5.06-11.08-5.09-11.12v-88l21.33-27.39c4.27-5.47,8.95-11.26,15.85-13a10.42,10.42,0,0,1,3.93-.28c5.36.76,7,5.54,8.52,9.54a22.49,22.49,0,0,0,5.2,8.48,21.54,21.54,0,0,0,18.79,5.81c8.83-1.67,16.11-9,18.22-17.67C971.27,344.26,965.7,332,955.78,326.85Z"/><path class="cls-2" d="M226.91,359.71l-8.56,15.19a2.26,2.26,0,0,1-2.76,1l-71.34-26.63a2.25,2.25,0,0,1-1.22-3.14l15.08-29.27a2.26,2.26,0,0,1,3.21-.87l64.82,40.7A2.25,2.25,0,0,1,226.91,359.71Z"/><path class="cls-2" d="M209.85,405l1.52,17.26a2.26,2.26,0,0,1-1.82,2.42L107.11,444.15a2.25,2.25,0,0,1-2.67-2.06l-2.2-32.83a2.24,2.24,0,0,1,2.16-2.4L207.52,403A2.26,2.26,0,0,1,209.85,405Z"/><path class="cls-2" d="M219.06,457.49,227,473a2.24,2.24,0,0,1-.68,2.85l-61.54,44.85a2.26,2.26,0,0,1-3.3-.72l-16.1-28.71a2.26,2.26,0,0,1,1-3.16l69.7-31.65A2.25,2.25,0,0,1,219.06,457.49Z"/><path class="cls-2" d="M999.33,477.08l8.56-15.19a2.25,2.25,0,0,1,2.75-1L1082,487.51a2.25,2.25,0,0,1,1.21,3.14l-15.08,29.27a2.26,2.26,0,0,1-3.2.88l-64.83-40.71A2.24,2.24,0,0,1,999.33,477.08Z"/><path class="cls-2" d="M1016.38,431.78l-1.52-17.26a2.26,2.26,0,0,1,1.83-2.42l102.44-19.46a2.25,2.25,0,0,1,2.67,2.06l2.2,32.83a2.25,2.25,0,0,1-2.16,2.41l-103.13,3.9A2.26,2.26,0,0,1,1016.38,431.78Z"/><path class="cls-2" d="M1007.18,379.3l-8-15.52a2.27,2.27,0,0,1,.68-2.85l61.55-44.85a2.25,2.25,0,0,1,3.29.72l16.11,28.72a2.26,2.26,0,0,1-1,3.15l-69.7,31.65A2.24,2.24,0,0,1,1007.18,379.3Z"/><path class="cls-1" d="M422.51,242l-6.74-14.81V98.42c0-34.47-4.4-45.23-4.4-45.23-48.76-117.37-163.66.1-163.66.1l-.05-.16C206.82-45.17,120,21.19,92.9,45.34V2.62A2.51,2.51,0,0,0,89.37.33L11.59,34.75a2.47,2.47,0,0,0-1.48,1.9,2.52,2.52,0,0,0,.81,2.27s13.44,11.92,13.54,12V243A2.52,2.52,0,0,0,27,245.53l71,0a2.53,2.53,0,0,0,2.29-3.56L92.9,225.71v-165c8-8.25,19.44-16.35,35.67-22.81,56.35-22.45,54.75,44.08,54.75,44.08v161a2.52,2.52,0,0,0,2.51,2.52l71.4.06a2.52,2.52,0,0,0,2.28-3.56s-7.43-16.26-7.46-16.31V98.36a260.65,260.65,0,0,0-1.53-30.61c8-10.55,20.9-21.54,41.75-29.85C348.63,15.46,347,82,347,82V243a2.51,2.51,0,0,0,2.51,2.51h70.68a2.53,2.53,0,0,0,2.29-3.56Z"/><path class="cls-1" d="M916.3,4.56c-14.21-7.42-32-5-46.27,2.36-29,15-69.46,70.52-69.91,71.18V2.65a2.51,2.51,0,0,0-3.53-2.3L731.69,29v0l-12.88,5.7a2.5,2.5,0,0,0-.67,4.17s13.45,11.93,13.55,12V243a2.51,2.51,0,0,0,2.51,2.51h71.12a2.53,2.53,0,0,0,2.29-3.56s-7.45-16.28-7.49-16.35V96.74l31.37-40.27c6.28-8.06,13.17-16.56,23.3-19.08a15.26,15.26,0,0,1,5.78-.41c7.89,1.11,10.31,8.15,12.53,14a32.88,32.88,0,0,0,7.66,12.47A31.71,31.71,0,0,0,908.39,72c13-2.47,23.68-13.29,26.79-26C939.07,30.17,930.89,12.19,916.3,4.56Z"/><path class="cls-1" d="M951.16,241.8l-7.46-16.32V97.71a2.52,2.52,0,0,0-3.53-2.3l-77.78,34.42a2.51,2.51,0,0,0-.67,4.18s13.44,11.92,13.55,12v96.83a2.51,2.51,0,0,0,2.51,2.51h71.09a2.52,2.52,0,0,0,2.29-3.55Z"/><path class="cls-1" d="M1215.8,242.06s-7.79-16.82-8.1-17.06c0,0,0-56.25,0-97.2,0-54.14-20.36-83.94-20.36-83.94-45.19-73.5-157.43-40.72-185.24-2s-8,82.94,31.78,75,21.85-56.12,19.87-63.07-16.91-42.71,36.75-42.71c52.25,0,49.66,66.05,49.66,66.05l-.05,37C1093.91,117.75,964.5,135,983.69,213.5c18,73.73,118.13,37,155.45,9.31V243a2.51,2.51,0,0,0,2.51,2.51h71.87a2.42,2.42,0,0,0,2.11-1A2.5,2.5,0,0,0,1215.8,242.06Zm-76.24-69.26-.29,33.33c-30.28,28.19-87.34,41.93-92-16.75-4.28-53.79,68.37-64.2,92.3-66.17Z"/><path class="cls-1" d="M688.54,241.93,681.3,226V127.78c0-54.14-20.37-83.93-20.37-83.93-45.19-73.51-157.43-40.73-185.24-2s-7.95,82.94,31.79,75,21.85-56.12,19.86-63.07-16.91-42.71,36.75-42.71c52.25,0,49.66,66.05,49.66,66.05l0,37c-46.16,3.64-176.41,21.08-156.4,99.39,18.36,71.8,118.42,36.88,155.62,9.19L612.78,243a2.52,2.52,0,0,0,2.51,2.53h71a2.53,2.53,0,0,0,2.29-3.56ZM520.88,192.17c-4.27-53.79,68.37-64.2,92.3-66.17L613,208.8C582.79,237.07,525.56,250.94,520.88,192.17Z"/><path class="cls-1" d="M341.16,808.6s-7.43-16.26-7.46-16.31V648.06a2.51,2.51,0,0,0-3.52-2.3L252.4,680.18a2.51,2.51,0,0,0-.67,4.18s13.44,11.92,13.54,12v115.8h73.61a2.51,2.51,0,0,0,2.28-3.55Z"/><path class="cls-1" d="M724.62,648a2.51,2.51,0,0,0-3.53-2.28l-77.78,34.42a2.51,2.51,0,0,0-.67,4.18s13.44,11.92,13.55,12-.81,176.22-.81,176.24c-.42,18.32-4.92,38.55-17.6,52.44-11.35,12.43-33.46,10.54-35.76-8.77a67.41,67.41,0,0,1,.13-13.4c.36-7.23,6.89-58.26-34-56.8s-50.28,49.08-14.07,80.35c19.39,16.75,47.17,21.51,72.06,20.5,15.69-.63,31.89-3.33,46-10.43,40.47-20.29,52.43-73.17,52.43-114.35C724.63,773.6,724.62,669.28,724.62,648Z"/><path class="cls-1" d="M609.09,808.84l-7.24-15.91V694.68c0-54.13-20.36-83.93-20.36-83.93-45.2-73.5-157.44-40.72-185.25-2s-7.94,82.93,31.79,75,21.85-56.12,19.86-63.07S431,578,484.64,578c52.25,0,49.67,66.06,49.67,66.06l0,37c-46.16,3.63-176.41,21.07-156.39,99.38,18.35,71.81,118.42,36.89,155.61,9.19l-.15,20.24a2.52,2.52,0,0,0,2.51,2.53h71a2.51,2.51,0,0,0,2.29-3.55ZM441.44,759.08c-4.28-53.79,68.36-64.2,92.29-66.17l-.15,82.79C503.34,804,446.11,817.84,441.44,759.08Z"/><path class="cls-1" d="M1225.71,571.53c-14.21-7.43-32-5-46.27,2.35-29.06,15-69.47,70.53-69.91,71.19V569.54a2.52,2.52,0,0,0-3.53-2.3l-64.9,28.69v0l-12.88,5.7a2.49,2.49,0,0,0-1.48,1.9,2.52,2.52,0,0,0,.81,2.27s13.45,11.92,13.55,12V810a2.51,2.51,0,0,0,2.51,2.51h71.12a2.5,2.5,0,0,0,2.11-1.15,2.53,2.53,0,0,0,.18-2.4s-7.45-16.29-7.49-16.36V663.71l31.37-40.27c6.27-8.06,13.16-16.56,23.3-19.09a15.46,15.46,0,0,1,5.78-.4c7.89,1.11,10.31,8.14,12.53,14a33,33,0,0,0,7.65,12.47A31.73,31.73,0,0,0,1217.8,639c13-2.46,23.68-13.28,26.79-26C1248.48,597.13,1240.29,579.16,1225.71,571.53Z"/><ellipse class="cls-1" cx="685.61" cy="584.83" rx="37.67" ry="34.26"/><path class="cls-1" d="M328.89,585.14c-1.19-13.82-11.67-26.6-24.89-31.66-17.2-6.58-36.28-1.29-51.35,7.91a109.23,109.23,0,0,0-38.37,40c-2.91,5.17-50.5,118-50.5,118s-51-104.14-72.95-149.19l7.49-16.37A2.52,2.52,0,0,0,96,550.33H3.14A3.12,3.12,0,0,0,.37,554.9C17.2,586.83,116.9,779.33,133.6,811.05a2.5,2.5,0,0,0,4.5-.12c19.61-42.79,70.7-181.47,91.26-210.08,6.1-8.48,16.1-17.4,25.68-13.23,6.54,2.85,9.21,10.45,13.18,16.38a34.6,34.6,0,0,0,34.23,14.59c13-2.38,24.15-13.21,26.2-26.24A29.58,29.58,0,0,0,328.89,585.14Z"/><path class="cls-1" d="M997.9,808.75l-7.24-15.92V694.59c0-54.14-20.36-83.93-20.36-83.93-45.19-73.51-157.43-40.73-185.25-2s-7.94,82.94,31.79,75,21.85-56.12,19.86-63.07-16.9-42.71,36.76-42.71c52.25,0,49.66,66,49.66,66l0,37c-46.16,3.64-176.41,21.08-156.39,99.39,18.35,71.8,118.42,36.88,155.61,9.19l-.15,20.23a2.52,2.52,0,0,0,2.52,2.53h71a2.53,2.53,0,0,0,2.11-1.16A2.48,2.48,0,0,0,997.9,808.75ZM830.25,759c-4.28-53.79,68.36-64.2,92.3-66.17l-.16,82.8C892.15,803.88,834.92,817.75,830.25,759Z"/></svg>