<?xml version="1.0" encoding="utf-8"?>
<svg version="1.1" id="Camada_1" xmlns="http://www.w3.org/2000/svg" xmlns:xlink="http://www.w3.org/1999/xlink" x="0px" y="0px" viewBox="0 0 1229.54 611.49" style="enable-background:new 0 0 1229.54 611.49;" xml:space="preserve">
<style type="text/css">
	.st0{fill:#E09E03;}
	.st1{fill:#E06060;}
	.st2{fill:#014040;}
	.st3{fill:#B24C15;}
	.st4{fill:#F1D7BD;}
	.st5{fill:#050505;}
	.st6{fill:#FFFFFF;}
	.st7{fill:#F1661C;}
	.st8{fill:#F6F1EA;}
</style>
<g>
	<g>
		<path class="st0" d="M1600.82-3954.64l-28.72,8.01c-1.83,0.51-3.76-0.39-4.54-2.11l-54.07-118.47c-0.96-2.1,0.13-4.57,2.33-5.27
			l53.62-17.15c2.15-0.69,4.43,0.61,4.93,2.81l29.17,127.61C1604-3957.21,1602.8-3955.2,1600.82-3954.64z"/>
		<path class="st0" d="M1525.42-3920.49l-19.04,22.71c-1.27,1.52-3.49,1.82-5.12,0.71l-147.41-100.33c-1.91-1.3-2.26-3.98-0.73-5.73
			l37.03-42.36c1.43-1.64,3.93-1.77,5.52-0.29l129.42,119.98C1526.6-3924.4,1526.74-3922.07,1525.42-3920.49z"/>
		<path class="st0" d="M1473.09-3845.9l-9.15,28.38c-0.58,1.81-2.39,2.92-4.27,2.63l-128.65-20.19c-2.28-0.36-3.74-2.63-3.11-4.85
			l15.25-54.19c0.61-2.17,2.95-3.36,5.07-2.57l122.55,46.01C1472.7-3849.97,1473.72-3847.86,1473.09-3845.9z"/>
	</g>
	<path class="st0" d="M2557.12-3868.94c-2.05-23.64-19.96-45.49-42.57-54.13c-29.42-11.25-62.04-2.21-87.81,13.53
		c-27.66,16.89-49.77,40.33-65.61,68.47c-4.98,8.84-86.36,201.8-86.36,201.8l-58.83,142.85c2.95,5.64,5.39,10.3,7.23,13.8
		c1.66,3.16,6.2,3.04,7.68-0.21c33.54-73.17,120.9-310.33,156.06-359.24c10.43-14.51,27.53-29.77,43.92-22.63
		c11.18,4.87,15.74,17.88,22.53,28.01c12.55,18.75,36.34,29.01,58.53,24.95c22.19-4.06,41.3-22.58,44.81-44.87
		C2557.35-3860.74,2557.47-3864.87,2557.12-3868.94z"/>
	<path class="st0" d="M2244.59-3484.44l-11.53-25.33c0-57.07,0-176.02,0-220.12c0-58.94-7.52-77.34-7.52-77.34
		c-83.38-200.7-279.86,0.17-279.86,0.17l-0.1-0.26c-69.83-168.1-218.27-54.62-264.65-13.32l0-73.06c0-3.11-3.19-5.18-6.03-3.93
		l-133,58.86c-1.37,0.59-2.31,1.82-2.53,3.26c-0.23,1.44,0.3,2.9,1.38,3.88c0,0,22.99,20.39,23.16,20.5v328.51
		c0,2.37,1.92,4.3,4.3,4.3l121.49-0.04c1.46,0,2.82-0.74,3.61-1.97c0.79-1.23,0.9-2.77,0.3-4.1c0,0-12.64-27.72-12.67-27.77v-282.25
		c13.75-14.11,33.25-27.95,61.01-39.01c96.35-38.38,93.62,75.39,93.62,75.39v275.32c0,2.37,1.92,4.29,4.29,4.3l122.1,0.1
		c1.46,0,2.82-0.74,3.61-1.97c0.79-1.23,0.9-2.77,0.3-4.1c0,0-12.71-27.8-12.76-27.9c0-58.02,0-174.19,0-217.65
		c0-23.41-1.19-40.33-2.62-52.34c13.68-18.05,35.75-36.85,71.4-51.05c96.36-38.38,93.63,75.39,93.63,75.39v275.32
		c0,2.37,1.92,4.3,4.3,4.3l120.87,0.01c1.46,0,2.82-0.74,3.61-1.97C2245.08-3481.57,2245.2-3483.11,2244.59-3484.44z"/>
</g>
<g>
	<g>
		<path class="st1" d="M271.27-3954.64l-28.72,8.01c-1.83,0.51-3.76-0.39-4.54-2.11l-54.07-118.47c-0.96-2.1,0.13-4.57,2.33-5.27
			l53.62-17.15c2.15-0.69,4.43,0.61,4.93,2.81L274-3959.22C274.45-3957.21,273.26-3955.2,271.27-3954.64z"/>
		<path class="st1" d="M195.88-3920.49l-19.04,22.71c-1.27,1.52-3.49,1.82-5.12,0.71L24.31-3997.4c-1.91-1.3-2.26-3.98-0.73-5.73
			l37.03-42.36c1.43-1.64,3.93-1.77,5.52-0.29l129.42,119.98C197.05-3924.4,197.2-3922.07,195.88-3920.49z"/>
		<path class="st1" d="M143.55-3845.9l-9.15,28.38c-0.58,1.81-2.39,2.92-4.27,2.63L1.48-3835.09c-2.28-0.36-3.74-2.63-3.11-4.85
			l15.25-54.19c0.61-2.17,2.95-3.36,5.07-2.57l122.55,46.01C143.16-3849.97,144.18-3847.86,143.55-3845.9z"/>
	</g>
	<path class="st1" d="M1227.57-3868.94c-2.05-23.64-19.96-45.49-42.57-54.13c-29.42-11.25-62.04-2.21-87.81,13.53
		c-27.66,16.89-49.77,40.33-65.61,68.47c-4.98,8.84-86.36,201.8-86.36,201.8l-58.83,142.85c2.95,5.64,5.39,10.3,7.23,13.8
		c1.66,3.16,6.2,3.04,7.68-0.21c33.54-73.17,120.9-310.33,156.06-359.24c10.43-14.51,27.53-29.77,43.92-22.63
		c11.18,4.87,15.74,17.88,22.53,28.01c12.55,18.75,36.34,29.01,58.53,24.95c22.19-4.06,41.3-22.58,44.81-44.87
		C1227.8-3860.74,1227.92-3864.87,1227.57-3868.94z"/>
	<path class="st1" d="M915.04-3484.44l-11.53-25.33c0-57.07,0-176.02,0-220.12c0-58.94-7.52-77.34-7.52-77.34
		c-83.38-200.7-279.86,0.17-279.86,0.17l-0.1-0.26c-69.83-168.1-218.27-54.62-264.65-13.32l0-73.06c0-3.11-3.19-5.18-6.03-3.93
		l-133,58.86c-1.37,0.59-2.31,1.82-2.53,3.26c-0.23,1.44,0.3,2.9,1.38,3.88c0,0,22.99,20.39,23.16,20.5v328.51
		c0,2.37,1.92,4.3,4.3,4.3l121.49-0.04c1.46,0,2.82-0.74,3.61-1.97c0.79-1.23,0.9-2.77,0.3-4.1c0,0-12.64-27.72-12.67-27.77v-282.25
		c13.75-14.11,33.25-27.95,61.01-39.01c96.35-38.38,93.62,75.39,93.62,75.39v275.32c0,2.37,1.92,4.29,4.29,4.3l122.1,0.1
		c1.46,0,2.82-0.74,3.61-1.97s0.9-2.77,0.3-4.1c0,0-12.71-27.8-12.76-27.9c0-58.02,0-174.19,0-217.65c0-23.41-1.19-40.33-2.62-52.34
		c13.68-18.05,35.75-36.85,71.4-51.05c96.36-38.38,93.63,75.39,93.63,75.39v275.32c0,2.37,1.92,4.3,4.3,4.3l120.87,0.01
		c1.46,0,2.82-0.74,3.61-1.97C915.54-3481.57,915.65-3483.11,915.04-3484.44z"/>
</g>
<g>
	<g>
		<path class="st0" d="M1600.82-3243.15l-28.72,8.01c-1.83,0.51-3.76-0.39-4.54-2.11l-54.07-118.47c-0.96-2.1,0.13-4.57,2.33-5.27
			l53.62-17.15c2.15-0.69,4.43,0.61,4.93,2.81l29.17,127.61C1604-3245.72,1602.8-3243.71,1600.82-3243.15z"/>
		<path class="st0" d="M1525.42-3209.01l-19.04,22.71c-1.27,1.52-3.49,1.82-5.12,0.71l-147.41-100.33c-1.91-1.3-2.26-3.98-0.73-5.73
			l37.03-42.36c1.43-1.64,3.93-1.77,5.52-0.29l129.42,119.98C1526.6-3212.91,1526.74-3210.58,1525.42-3209.01z"/>
		<path class="st0" d="M1473.09-3134.41l-9.15,28.38c-0.58,1.81-2.39,2.92-4.27,2.63l-128.65-20.19c-2.28-0.36-3.74-2.63-3.11-4.85
			l15.25-54.19c0.61-2.17,2.95-3.36,5.07-2.57l122.55,46.01C1472.7-3138.48,1473.72-3136.37,1473.09-3134.41z"/>
	</g>
	<path class="st2" d="M2557.12-3157.46c-2.05-23.64-19.96-45.49-42.57-54.13c-29.42-11.25-62.04-2.21-87.81,13.53
		c-27.66,16.89-49.77,40.33-65.61,68.47c-4.98,8.84-86.36,201.8-86.36,201.8l-58.83,142.85c2.95,5.64,5.39,10.3,7.23,13.8
		c1.66,3.16,6.2,3.04,7.68-0.21c33.54-73.17,120.9-310.33,156.06-359.24c10.43-14.51,27.53-29.77,43.92-22.63
		c11.18,4.87,15.74,17.88,22.53,28.01c12.55,18.75,36.34,29.01,58.53,24.95c22.19-4.06,41.3-22.58,44.81-44.87
		C2557.35-3149.25,2557.47-3153.38,2557.12-3157.46z"/>
	<path class="st2" d="M2244.59-2772.96l-11.53-25.33c0-57.07,0-176.02,0-220.12c0-58.94-7.52-77.34-7.52-77.34
		c-83.38-200.7-279.86,0.17-279.86,0.17l-0.1-0.26c-69.83-168.1-218.27-54.62-264.65-13.32l0-73.06c0-3.11-3.19-5.18-6.03-3.93
		l-133,58.86c-1.37,0.59-2.31,1.82-2.53,3.26c-0.23,1.44,0.3,2.9,1.38,3.88c0,0,22.99,20.39,23.16,20.5v328.51
		c0,2.37,1.92,4.3,4.3,4.3l121.49-0.04c1.46,0,2.82-0.74,3.61-1.97c0.79-1.23,0.9-2.77,0.3-4.1c0,0-12.64-27.72-12.67-27.77v-282.25
		c13.75-14.11,33.25-27.95,61.01-39.01c96.35-38.38,93.62,75.39,93.62,75.39v275.32c0,2.37,1.92,4.29,4.29,4.3l122.1,0.1
		c1.46,0,2.82-0.74,3.61-1.97c0.79-1.23,0.9-2.77,0.3-4.1c0,0-12.71-27.8-12.76-27.9c0-58.02,0-174.19,0-217.65
		c0-23.41-1.19-40.33-2.62-52.34c13.68-18.05,35.75-36.85,71.4-51.05c96.36-38.38,93.63,75.39,93.63,75.39v275.32
		c0,2.37,1.92,4.3,4.3,4.3l120.87,0.01c1.46,0,2.82-0.74,3.61-1.97C2245.08-2770.08,2245.2-2771.63,2244.59-2772.96z"/>
</g>
<g>
	<g>
		<path class="st2" d="M271.27-3243.15l-28.72,8.01c-1.83,0.51-3.76-0.39-4.54-2.11l-54.07-118.47c-0.96-2.1,0.13-4.57,2.33-5.27
			l53.62-17.15c2.15-0.69,4.43,0.61,4.93,2.81L274-3247.73C274.45-3245.72,273.26-3243.71,271.27-3243.15z"/>
		<path class="st2" d="M195.88-3209.01l-19.04,22.71c-1.27,1.52-3.49,1.82-5.12,0.71L24.31-3285.91c-1.91-1.3-2.26-3.98-0.73-5.73
			L60.61-3334c1.43-1.64,3.93-1.77,5.52-0.29l129.42,119.98C197.05-3212.91,197.2-3210.58,195.88-3209.01z"/>
		<path class="st2" d="M143.55-3134.41l-9.15,28.38c-0.58,1.81-2.39,2.92-4.27,2.63L1.48-3123.6c-2.28-0.36-3.74-2.63-3.11-4.85
			l15.25-54.19c0.61-2.17,2.95-3.36,5.07-2.57l122.55,46.01C143.16-3138.48,144.18-3136.37,143.55-3134.41z"/>
	</g>
	<path class="st2" d="M1227.57-3157.46c-2.05-23.64-19.96-45.49-42.57-54.13c-29.42-11.25-62.04-2.21-87.81,13.53
		c-27.66,16.89-49.77,40.33-65.61,68.47c-4.98,8.84-86.36,201.8-86.36,201.8l-58.83,142.85c2.95,5.64,5.39,10.3,7.23,13.8
		c1.66,3.16,6.2,3.04,7.68-0.21c33.54-73.17,120.9-310.33,156.06-359.24c10.43-14.51,27.53-29.77,43.92-22.63
		c11.18,4.87,15.74,17.88,22.53,28.01c12.55,18.75,36.34,29.01,58.53,24.95c22.19-4.06,41.3-22.58,44.81-44.87
		C1227.8-3149.25,1227.92-3153.38,1227.57-3157.46z"/>
	<path class="st2" d="M915.04-2772.96l-11.53-25.33c0-57.07,0-176.02,0-220.12c0-58.94-7.52-77.34-7.52-77.34
		c-83.38-200.7-279.86,0.17-279.86,0.17l-0.1-0.26c-69.83-168.1-218.27-54.62-264.65-13.32l0-73.06c0-3.11-3.19-5.18-6.03-3.93
		l-133,58.86c-1.37,0.59-2.31,1.82-2.53,3.26c-0.23,1.44,0.3,2.9,1.38,3.88c0,0,22.99,20.39,23.16,20.5v328.51
		c0,2.37,1.92,4.3,4.3,4.3l121.49-0.04c1.46,0,2.82-0.74,3.61-1.97c0.79-1.23,0.9-2.77,0.3-4.1c0,0-12.64-27.72-12.67-27.77v-282.25
		c13.75-14.11,33.25-27.95,61.01-39.01c96.35-38.38,93.62,75.39,93.62,75.39v275.32c0,2.37,1.92,4.29,4.29,4.3l122.1,0.1
		c1.46,0,2.82-0.74,3.61-1.97c0.79-1.23,0.9-2.77,0.3-4.1c0,0-12.71-27.8-12.76-27.9c0-58.02,0-174.19,0-217.65
		c0-23.41-1.19-40.33-2.62-52.34c13.68-18.05,35.75-36.85,71.4-51.05c96.36-38.38,93.63,75.39,93.63,75.39v275.32
		c0,2.37,1.92,4.3,4.3,4.3l120.87,0.01c1.46,0,2.82-0.74,3.61-1.97C915.54-2770.08,915.65-2771.63,915.04-2772.96z"/>
</g>
<g>
	<g>
		<path class="st3" d="M1600.82-2531.66l-28.72,8.01c-1.83,0.51-3.76-0.39-4.54-2.11l-54.07-118.47c-0.96-2.1,0.13-4.57,2.33-5.27
			l53.62-17.15c2.15-0.69,4.43,0.61,4.93,2.81l29.17,127.61C1604-2534.23,1602.8-2532.22,1600.82-2531.66z"/>
		<path class="st3" d="M1525.42-2497.52l-19.04,22.71c-1.27,1.52-3.49,1.82-5.12,0.71l-147.41-100.33c-1.91-1.3-2.26-3.98-0.73-5.72
			l37.03-42.36c1.43-1.64,3.93-1.77,5.52-0.29l129.42,119.98C1526.6-2501.42,1526.74-2499.09,1525.42-2497.52z"/>
		<path class="st3" d="M1473.09-2422.92l-9.15,28.38c-0.58,1.81-2.39,2.92-4.27,2.63l-128.65-20.19c-2.28-0.36-3.74-2.63-3.11-4.85
			l15.25-54.19c0.61-2.17,2.95-3.36,5.07-2.57l122.55,46.01C1472.7-2426.99,1473.72-2424.88,1473.09-2422.92z"/>
	</g>
	<path class="st4" d="M2557.12-2445.97c-2.05-23.64-19.96-45.49-42.57-54.13c-29.42-11.25-62.04-2.21-87.81,13.53
		c-27.66,16.89-49.77,40.33-65.61,68.47c-4.98,8.84-86.36,201.8-86.36,201.8l-58.83,142.85c2.95,5.64,5.39,10.3,7.23,13.8
		c1.66,3.16,6.2,3.04,7.68-0.21c33.54-73.17,120.9-310.33,156.06-359.25c10.43-14.51,27.53-29.77,43.92-22.63
		c11.18,4.87,15.74,17.88,22.53,28.01c12.55,18.75,36.34,29.01,58.53,24.95c22.19-4.06,41.3-22.58,44.81-44.87
		C2557.35-2437.76,2557.47-2441.89,2557.12-2445.97z"/>
	<path class="st4" d="M2244.59-2061.47l-11.53-25.33c0-57.07,0-176.02,0-220.12c0-58.94-7.52-77.34-7.52-77.34
		c-83.38-200.7-279.86,0.17-279.86,0.17l-0.1-0.26c-69.83-168.1-218.27-54.62-264.65-13.32l0-73.06c0-3.11-3.19-5.18-6.03-3.93
		l-133,58.86c-1.37,0.59-2.31,1.82-2.53,3.26c-0.23,1.44,0.3,2.9,1.38,3.88c0,0,22.99,20.39,23.16,20.5v328.51
		c0,2.37,1.92,4.3,4.3,4.3l121.49-0.04c1.46,0,2.82-0.74,3.61-1.97c0.79-1.23,0.9-2.77,0.3-4.1c0,0-12.64-27.72-12.67-27.77v-282.25
		c13.75-14.11,33.25-27.95,61.01-39.01c96.35-38.38,93.62,75.39,93.62,75.39v275.32c0,2.37,1.92,4.29,4.29,4.3l122.1,0.1
		c1.46,0,2.82-0.74,3.61-1.97c0.79-1.23,0.9-2.77,0.3-4.1c0,0-12.71-27.8-12.76-27.9c0-58.02,0-174.19,0-217.65
		c0-23.41-1.19-40.33-2.62-52.34c13.68-18.05,35.75-36.85,71.4-51.05c96.36-38.38,93.63,75.39,93.63,75.39v275.32
		c0,2.37,1.92,4.3,4.3,4.3l120.87,0.01c1.46,0,2.82-0.74,3.61-1.97C2245.08-2058.59,2245.2-2060.14,2244.59-2061.47z"/>
</g>
<g>
	<g>
		<path class="st1" d="M271.27-2531.66l-28.72,8.01c-1.83,0.51-3.76-0.39-4.54-2.11l-54.07-118.47c-0.96-2.1,0.13-4.57,2.33-5.27
			l53.62-17.15c2.15-0.69,4.43,0.61,4.93,2.81L274-2536.24C274.45-2534.23,273.26-2532.22,271.27-2531.66z"/>
		<path class="st1" d="M195.88-2497.52l-19.04,22.71c-1.27,1.52-3.49,1.82-5.12,0.71L24.31-2574.42c-1.91-1.3-2.26-3.98-0.73-5.72
			l37.03-42.36c1.43-1.64,3.93-1.77,5.52-0.29l129.42,119.98C197.05-2501.42,197.2-2499.09,195.88-2497.52z"/>
		<path class="st1" d="M143.55-2422.92l-9.15,28.38c-0.58,1.81-2.39,2.92-4.27,2.63L1.48-2412.11c-2.28-0.36-3.74-2.63-3.11-4.85
			l15.25-54.19c0.61-2.17,2.95-3.36,5.07-2.57l122.55,46.01C143.16-2426.99,144.18-2424.88,143.55-2422.92z"/>
	</g>
	<path class="st4" d="M1227.57-2445.97c-2.05-23.64-19.96-45.49-42.57-54.13c-29.42-11.25-62.04-2.21-87.81,13.53
		c-27.66,16.89-49.77,40.33-65.61,68.47c-4.98,8.84-86.36,201.8-86.36,201.8l-58.83,142.85c2.95,5.64,5.39,10.3,7.23,13.8
		c1.66,3.16,6.2,3.04,7.68-0.21c33.54-73.17,120.9-310.33,156.06-359.25c10.43-14.51,27.53-29.77,43.92-22.63
		c11.18,4.87,15.74,17.88,22.53,28.01c12.55,18.75,36.34,29.01,58.53,24.95c22.19-4.06,41.3-22.58,44.81-44.87
		C1227.8-2437.76,1227.92-2441.89,1227.57-2445.97z"/>
	<path class="st4" d="M915.04-2061.47l-11.53-25.33c0-57.07,0-176.02,0-220.12c0-58.94-7.52-77.34-7.52-77.34
		c-83.38-200.7-279.86,0.17-279.86,0.17l-0.1-0.26c-69.83-168.1-218.27-54.62-264.65-13.32l0-73.06c0-3.11-3.19-5.18-6.03-3.93
		l-133,58.86c-1.37,0.59-2.31,1.82-2.53,3.26c-0.23,1.44,0.3,2.9,1.38,3.88c0,0,22.99,20.39,23.16,20.5v328.51
		c0,2.37,1.92,4.3,4.3,4.3l121.49-0.04c1.46,0,2.82-0.74,3.61-1.97c0.79-1.23,0.9-2.77,0.3-4.1c0,0-12.64-27.72-12.67-27.77v-282.25
		c13.75-14.11,33.25-27.95,61.01-39.01c96.35-38.38,93.62,75.39,93.62,75.39v275.32c0,2.37,1.92,4.29,4.29,4.3l122.1,0.1
		c1.46,0,2.82-0.74,3.61-1.97s0.9-2.77,0.3-4.1c0,0-12.71-27.8-12.76-27.9c0-58.02,0-174.19,0-217.65c0-23.41-1.19-40.33-2.62-52.34
		c13.68-18.05,35.75-36.85,71.4-51.05c96.36-38.38,93.63,75.39,93.63,75.39v275.32c0,2.37,1.92,4.3,4.3,4.3l120.87,0.01
		c1.46,0,2.82-0.74,3.61-1.97C915.54-2058.59,915.65-2060.14,915.04-2061.47z"/>
</g>
<g>
	<g>
		<path class="st4" d="M277.31-1108.69l-28.72,8.01c-1.83,0.51-3.76-0.39-4.54-2.11l-54.07-118.47c-0.96-2.1,0.13-4.57,2.33-5.27
			l53.62-17.15c2.15-0.69,4.43,0.61,4.93,2.81l29.17,127.61C280.49-1111.25,279.29-1109.24,277.31-1108.69z"/>
		<path class="st4" d="M201.92-1074.54l-19.04,22.71c-1.27,1.52-3.49,1.82-5.12,0.71L30.34-1151.44c-1.91-1.3-2.26-3.98-0.73-5.73
			l37.03-42.36c1.43-1.64,3.93-1.77,5.52-0.29l129.42,119.98C203.09-1078.45,203.24-1076.11,201.92-1074.54z"/>
		<path class="st4" d="M149.58-999.94l-9.15,28.38c-0.58,1.81-2.39,2.92-4.27,2.63L7.52-989.13c-2.28-0.36-3.74-2.63-3.11-4.85
			l15.25-54.19c0.61-2.17,2.95-3.36,5.07-2.57l122.55,46.01C149.2-1004.01,150.21-1001.9,149.58-999.94z"/>
	</g>
	<path class="st2" d="M1233.61-1022.99c-2.05-23.64-19.96-45.49-42.57-54.13c-29.42-11.25-62.04-2.21-87.81,13.53
		c-27.66,16.89-49.77,40.33-65.61,68.47c-4.98,8.84-86.36,201.8-86.36,201.8l-58.83,142.85c2.95,5.64,5.39,10.3,7.23,13.8
		c1.66,3.16,6.2,3.04,7.68-0.21c33.54-73.17,120.9-310.33,156.06-359.24c10.43-14.51,27.53-29.77,43.92-22.63
		c11.18,4.87,15.74,17.88,22.53,28.01c12.55,18.75,36.34,29.01,58.53,24.95c22.19-4.06,41.3-22.58,44.81-44.87
		C1233.84-1014.78,1233.96-1018.91,1233.61-1022.99z"/>
	<path class="st2" d="M921.08-638.49l-11.53-25.33c0-57.07,0-176.02,0-220.12c0-58.94-7.52-77.34-7.52-77.34
		c-83.38-200.7-279.86,0.17-279.86,0.17l-0.1-0.26c-69.83-168.1-218.27-54.62-264.65-13.32l0-73.06c0-3.11-3.19-5.18-6.03-3.93
		l-133,58.86c-1.37,0.59-2.31,1.82-2.53,3.26c-0.23,1.44,0.3,2.9,1.38,3.88c0,0,22.99,20.39,23.16,20.5v328.51
		c0,2.37,1.92,4.3,4.3,4.3l121.49-0.04c1.46,0,2.82-0.74,3.61-1.97s0.9-2.77,0.3-4.1c0,0-12.64-27.72-12.67-27.77v-282.25
		c13.75-14.11,33.25-27.95,61.01-39.01c96.35-38.38,93.62,75.39,93.62,75.39v275.32c0,2.37,1.92,4.29,4.29,4.3l122.1,0.1
		c1.46,0,2.82-0.74,3.61-1.97s0.9-2.77,0.3-4.1c0,0-12.71-27.8-12.76-27.9c0-58.02,0-174.19,0-217.65c0-23.41-1.19-40.33-2.62-52.34
		c13.68-18.05,35.75-36.85,71.4-51.05c96.36-38.38,93.63,75.39,93.63,75.39v275.32c0,2.37,1.92,4.3,4.3,4.3l120.87,0.01
		c1.46,0,2.82-0.74,3.61-1.97S921.69-637.16,921.08-638.49z"/>
</g>
<g>
	<g>
		<path class="st5" d="M273.05,135.18l-28.72,8.01c-1.83,0.51-3.76-0.39-4.54-2.11L185.71,22.61c-0.96-2.1,0.13-4.57,2.33-5.27
			l53.62-17.15C243.82-0.5,246.1,0.8,246.6,3l29.17,127.61C276.23,132.61,275.04,134.63,273.05,135.18z"/>
		<path class="st5" d="M197.66,169.33l-19.04,22.71c-1.27,1.52-3.49,1.82-5.12,0.71L26.08,92.42c-1.91-1.3-2.26-3.98-0.73-5.73
			l37.03-42.36c1.43-1.64,3.93-1.77,5.52-0.29l129.42,119.98C198.83,165.42,198.98,167.75,197.66,169.33z"/>
		<path class="st5" d="M145.32,243.92l-9.15,28.38c-0.58,1.81-2.39,2.92-4.27,2.63L3.26,254.74c-2.28-0.36-3.74-2.63-3.11-4.85
			l15.25-54.19c0.61-2.17,2.95-3.36,5.07-2.57l122.55,46.01C144.94,239.85,145.96,241.96,145.32,243.92z"/>
	</g>
	<path class="st5" d="M1229.35,220.88c-2.05-23.64-19.96-45.49-42.57-54.13c-29.42-11.25-62.04-2.21-87.81,13.53
		c-27.66,16.89-49.77,40.33-65.61,68.47c-4.98,8.84-86.36,201.8-86.36,201.8L888.16,593.4c2.95,5.64,5.39,10.3,7.23,13.8
		c1.66,3.16,6.2,3.04,7.68-0.21c33.54-73.17,120.9-310.33,156.06-359.24c10.43-14.51,27.53-29.77,43.92-22.63
		c11.18,4.87,15.74,17.88,22.53,28.01c12.55,18.75,36.34,29.01,58.53,24.95c22.19-4.06,41.3-22.58,44.81-44.87
		C1229.58,229.09,1229.7,224.96,1229.35,220.88z"/>
	<path class="st5" d="M916.82,605.38l-11.53-25.33c0-57.07,0-176.02,0-220.12c0-58.94-7.52-77.34-7.52-77.34
		c-83.38-200.7-279.86,0.17-279.86,0.17l-0.1-0.26c-69.83-168.1-218.27-54.62-264.65-13.32l0-73.06c0-3.11-3.19-5.18-6.03-3.93
		l-133,58.86c-1.37,0.59-2.31,1.82-2.53,3.26c-0.23,1.44,0.3,2.9,1.38,3.88c0,0,22.99,20.39,23.16,20.5v328.51
		c0,2.37,1.92,4.3,4.3,4.3l121.49-0.04c1.46,0,2.82-0.74,3.61-1.97s0.9-2.77,0.3-4.1c0,0-12.64-27.72-12.67-27.77V295.35
		c13.75-14.11,33.25-27.95,61.01-39.01c96.35-38.38,93.62,75.39,93.62,75.39v275.32c0,2.37,1.92,4.29,4.29,4.3l122.1,0.1
		c1.46,0,2.82-0.74,3.61-1.97c0.79-1.23,0.9-2.77,0.3-4.1c0,0-12.71-27.8-12.76-27.9c0-58.02,0-174.19,0-217.65
		c0-23.41-1.19-40.33-2.62-52.34c13.68-18.05,35.75-36.85,71.4-51.05c96.36-38.38,93.63,75.39,93.63,75.39v275.32
		c0,2.37,1.92,4.3,4.3,4.3l120.87,0.01c1.46,0,2.82-0.74,3.61-1.97S917.43,606.71,916.82,605.38z"/>
</g>
<g>
	<g>
		<path class="st6" d="M-1058.27,135.18l-28.72,8.01c-1.83,0.51-3.76-0.39-4.54-2.11l-54.07-118.47c-0.96-2.1,0.13-4.57,2.33-5.27
			l53.62-17.15c2.15-0.69,4.43,0.61,4.93,2.81l29.17,127.61C-1055.09,132.61-1056.29,134.63-1058.27,135.18z"/>
		<path class="st6" d="M-1133.67,169.33l-19.04,22.71c-1.27,1.52-3.49,1.82-5.12,0.71l-147.41-100.33c-1.91-1.3-2.26-3.98-0.73-5.73
			l37.03-42.36c1.43-1.64,3.93-1.77,5.52-0.29L-1134,164.02C-1132.49,165.42-1132.34,167.75-1133.67,169.33z"/>
		<path class="st6" d="M-1186,243.92l-9.15,28.38c-0.58,1.81-2.39,2.92-4.27,2.63l-128.65-20.19c-2.28-0.36-3.74-2.63-3.11-4.85
			l15.25-54.19c0.61-2.17,2.95-3.36,5.07-2.57l122.55,46.01C-1186.39,239.85-1185.37,241.96-1186,243.92z"/>
	</g>
	<path class="st6" d="M-101.97,220.88c-2.05-23.64-19.96-45.49-42.57-54.13c-29.42-11.25-62.04-2.21-87.81,13.53
		c-27.66,16.89-49.77,40.33-65.61,68.47c-4.98,8.84-86.36,201.8-86.36,201.8l-58.83,142.85c2.95,5.64,5.39,10.3,7.23,13.8
		c1.66,3.16,6.2,3.04,7.68-0.21c33.54-73.17,120.9-310.33,156.06-359.24c10.43-14.51,27.53-29.77,43.92-22.63
		c11.18,4.87,15.74,17.88,22.53,28.01c12.55,18.75,36.34,29.01,58.53,24.95c22.19-4.06,41.3-22.58,44.81-44.87
		C-101.74,229.09-101.62,224.96-101.97,220.88z"/>
	<path class="st6" d="M-414.5,605.38l-11.53-25.33c0-57.07,0-176.02,0-220.12c0-58.94-7.52-77.34-7.52-77.34
		c-83.38-200.7-279.86,0.17-279.86,0.17l-0.1-0.26c-69.83-168.1-218.27-54.62-264.65-13.32l0-73.06c0-3.11-3.19-5.18-6.03-3.93
		l-133,58.86c-1.37,0.59-2.31,1.82-2.53,3.26c-0.23,1.44,0.3,2.9,1.38,3.88c0,0,22.99,20.39,23.16,20.5v328.51
		c0,2.37,1.92,4.3,4.3,4.3l121.49-0.04c1.46,0,2.82-0.74,3.61-1.97s0.9-2.77,0.3-4.1c0,0-12.64-27.72-12.67-27.77V295.35
		c13.75-14.11,33.25-27.95,61.01-39.01c96.35-38.38,93.62,75.39,93.62,75.39v275.32c0,2.37,1.92,4.29,4.29,4.3l122.1,0.1
		c1.46,0,2.82-0.74,3.61-1.97s0.9-2.77,0.3-4.1c0,0-12.71-27.8-12.76-27.9c0-58.02,0-174.19,0-217.65c0-23.41-1.19-40.33-2.62-52.34
		c13.68-18.05,35.75-36.85,71.4-51.05c96.36-38.38,93.63,75.39,93.63,75.39v275.32c0,2.37,1.92,4.3,4.3,4.3l120.87,0.01
		c1.46,0,2.82-0.74,3.61-1.97S-413.89,606.71-414.5,605.38z"/>
</g>
<g>
	<g>
		<path class="st7" d="M-1058.27-1108.69l-28.72,8.01c-1.83,0.51-3.76-0.39-4.54-2.11l-54.07-118.47c-0.96-2.1,0.13-4.57,2.33-5.27
			l53.62-17.15c2.15-0.69,4.43,0.61,4.93,2.81l29.17,127.61C-1055.09-1111.25-1056.29-1109.24-1058.27-1108.69z"/>
		<path class="st7" d="M-1133.67-1074.54l-19.04,22.71c-1.27,1.52-3.49,1.82-5.12,0.71l-147.41-100.33
			c-1.91-1.3-2.26-3.98-0.73-5.73l37.03-42.36c1.43-1.64,3.93-1.77,5.52-0.29l129.42,119.98
			C-1132.49-1078.45-1132.34-1076.11-1133.67-1074.54z"/>
		<path class="st7" d="M-1186-999.94l-9.15,28.38c-0.58,1.81-2.39,2.92-4.27,2.63l-128.65-20.19c-2.28-0.36-3.74-2.63-3.11-4.85
			l15.25-54.19c0.61-2.17,2.95-3.36,5.07-2.57l122.55,46.01C-1186.39-1004.01-1185.37-1001.9-1186-999.94z"/>
	</g>
	<path class="st2" d="M-101.97-1022.99c-2.05-23.64-19.96-45.49-42.57-54.13c-29.42-11.25-62.04-2.21-87.81,13.53
		c-27.66,16.89-49.77,40.33-65.61,68.47c-4.98,8.84-86.36,201.8-86.36,201.8l-58.83,142.85c2.95,5.64,5.39,10.3,7.23,13.8
		c1.66,3.16,6.2,3.04,7.68-0.21c33.54-73.17,120.9-310.33,156.06-359.24c10.43-14.51,27.53-29.77,43.92-22.63
		c11.18,4.87,15.74,17.88,22.53,28.01c12.55,18.75,36.34,29.01,58.53,24.95c22.19-4.06,41.3-22.58,44.81-44.87
		C-101.74-1014.78-101.62-1018.91-101.97-1022.99z"/>
	<path class="st2" d="M-414.5-638.49l-11.53-25.33c0-57.07,0-176.02,0-220.12c0-58.94-7.52-77.34-7.52-77.34
		c-83.38-200.7-279.86,0.17-279.86,0.17l-0.1-0.26c-69.83-168.1-218.27-54.62-264.65-13.32l0-73.06c0-3.11-3.19-5.18-6.03-3.93
		l-133,58.86c-1.37,0.59-2.31,1.82-2.53,3.26c-0.23,1.44,0.3,2.9,1.38,3.88c0,0,22.99,20.39,23.16,20.5v328.51
		c0,2.37,1.92,4.3,4.3,4.3l121.49-0.04c1.46,0,2.82-0.74,3.61-1.97s0.9-2.77,0.3-4.1c0,0-12.64-27.72-12.67-27.77v-282.25
		c13.75-14.11,33.25-27.95,61.01-39.01c96.35-38.38,93.62,75.39,93.62,75.39v275.32c0,2.37,1.92,4.29,4.29,4.3l122.1,0.1
		c1.46,0,2.82-0.74,3.61-1.97s0.9-2.77,0.3-4.1c0,0-12.71-27.8-12.76-27.9c0-58.02,0-174.19,0-217.65c0-23.41-1.19-40.33-2.62-52.34
		c13.68-18.05,35.75-36.85,71.4-51.05c96.36-38.38,93.63,75.39,93.63,75.39v275.32c0,2.37,1.92,4.3,4.3,4.3l120.87,0.01
		c1.46,0,2.82-0.74,3.61-1.97S-413.89-637.16-414.5-638.49z"/>
</g>
<g>
	<g>
		<path class="st1" d="M1600.82-1820.17l-28.72,8.01c-1.83,0.51-3.76-0.39-4.54-2.11l-54.07-118.47c-0.96-2.1,0.13-4.57,2.33-5.27
			l53.62-17.15c2.15-0.69,4.43,0.61,4.93,2.81l29.17,127.61C1604-1822.74,1602.8-1820.73,1600.82-1820.17z"/>
		<path class="st1" d="M1525.42-1786.03l-19.04,22.71c-1.27,1.52-3.49,1.82-5.12,0.71l-147.41-100.33c-1.91-1.3-2.26-3.98-0.73-5.73
			l37.03-42.36c1.43-1.64,3.93-1.77,5.52-0.29l129.42,119.98C1526.6-1789.93,1526.74-1787.6,1525.42-1786.03z"/>
		<path class="st1" d="M1473.09-1711.43l-9.15,28.38c-0.58,1.81-2.39,2.92-4.27,2.63l-128.65-20.19c-2.28-0.36-3.74-2.63-3.11-4.85
			l15.25-54.19c0.61-2.17,2.95-3.36,5.07-2.57l122.55,46.01C1472.7-1715.5,1473.72-1713.39,1473.09-1711.43z"/>
	</g>
	<path class="st0" d="M2557.12-1734.48c-2.05-23.64-19.96-45.49-42.57-54.13c-29.42-11.25-62.04-2.21-87.81,13.53
		c-27.66,16.89-49.77,40.33-65.61,68.47c-4.98,8.84-86.36,201.8-86.36,201.8l-58.83,142.85c2.95,5.64,5.39,10.3,7.23,13.8
		c1.66,3.16,6.2,3.04,7.68-0.21c33.54-73.17,120.9-310.33,156.06-359.24c10.43-14.51,27.53-29.77,43.92-22.63
		c11.18,4.87,15.74,17.88,22.53,28.01c12.55,18.75,36.34,29.01,58.53,24.95c22.19-4.06,41.3-22.58,44.81-44.87
		C2557.35-1726.27,2557.47-1730.4,2557.12-1734.48z"/>
	<path class="st0" d="M2244.59-1349.98l-11.53-25.33c0-57.07,0-176.02,0-220.12c0-58.94-7.52-77.34-7.52-77.34
		c-83.38-200.7-279.86,0.17-279.86,0.17l-0.1-0.26c-69.83-168.1-218.27-54.62-264.65-13.32l0-73.06c0-3.11-3.19-5.18-6.03-3.93
		l-133,58.86c-1.37,0.59-2.31,1.82-2.53,3.26c-0.23,1.44,0.3,2.9,1.38,3.88c0,0,22.99,20.39,23.16,20.5v328.51
		c0,2.37,1.92,4.3,4.3,4.3l121.49-0.04c1.46,0,2.82-0.74,3.61-1.97c0.79-1.23,0.9-2.77,0.3-4.1c0,0-12.64-27.72-12.67-27.77V-1660
		c13.75-14.11,33.25-27.95,61.01-39.01c96.35-38.38,93.62,75.39,93.62,75.39v275.32c0,2.37,1.92,4.29,4.29,4.3l122.1,0.1
		c1.46,0,2.82-0.74,3.61-1.97c0.79-1.23,0.9-2.77,0.3-4.1c0,0-12.71-27.8-12.76-27.9c0-58.02,0-174.19,0-217.65
		c0-23.41-1.19-40.33-2.62-52.34c13.68-18.05,35.75-36.85,71.4-51.05c96.36-38.38,93.63,75.39,93.63,75.39v275.32
		c0,2.37,1.92,4.3,4.3,4.3l120.87,0.01c1.46,0,2.82-0.74,3.61-1.97C2245.08-1347.1,2245.2-1348.65,2244.59-1349.98z"/>
</g>
<g>
	<g>
		<path class="st1" d="M271.27-1820.17l-28.72,8.01c-1.83,0.51-3.76-0.39-4.54-2.11l-54.07-118.47c-0.96-2.1,0.13-4.57,2.33-5.27
			l53.62-17.15c2.15-0.69,4.43,0.61,4.93,2.81L274-1824.75C274.45-1822.74,273.26-1820.73,271.27-1820.17z"/>
		<path class="st1" d="M195.88-1786.03l-19.04,22.71c-1.27,1.52-3.49,1.82-5.12,0.71L24.31-1862.93c-1.91-1.3-2.26-3.98-0.73-5.73
			l37.03-42.36c1.43-1.64,3.93-1.77,5.52-0.29l129.42,119.98C197.05-1789.93,197.2-1787.6,195.88-1786.03z"/>
		<path class="st1" d="M143.55-1711.43l-9.15,28.38c-0.58,1.81-2.39,2.92-4.27,2.63L1.48-1700.62c-2.28-0.36-3.74-2.63-3.11-4.85
			l15.25-54.19c0.61-2.17,2.95-3.36,5.07-2.57l122.55,46.01C143.16-1715.5,144.18-1713.39,143.55-1711.43z"/>
	</g>
	<path class="st2" d="M1227.57-1734.48c-2.05-23.64-19.96-45.49-42.57-54.13c-29.42-11.25-62.04-2.21-87.81,13.53
		c-27.66,16.89-49.77,40.33-65.61,68.47c-4.98,8.84-86.36,201.8-86.36,201.8l-58.83,142.85c2.95,5.64,5.39,10.3,7.23,13.8
		c1.66,3.16,6.2,3.04,7.68-0.21c33.54-73.17,120.9-310.33,156.06-359.24c10.43-14.51,27.53-29.77,43.92-22.63
		c11.18,4.87,15.74,17.88,22.53,28.01c12.55,18.75,36.34,29.01,58.53,24.95c22.19-4.06,41.3-22.58,44.81-44.87
		C1227.8-1726.27,1227.92-1730.4,1227.57-1734.48z"/>
	<path class="st2" d="M915.04-1349.98l-11.53-25.33c0-57.07,0-176.02,0-220.12c0-58.94-7.52-77.34-7.52-77.34
		c-83.38-200.7-279.86,0.17-279.86,0.17l-0.1-0.26c-69.83-168.1-218.27-54.62-264.65-13.32l0-73.06c0-3.11-3.19-5.18-6.03-3.93
		l-133,58.86c-1.37,0.59-2.31,1.82-2.53,3.26s0.3,2.9,1.38,3.88c0,0,22.99,20.39,23.16,20.5v328.51c0,2.37,1.92,4.3,4.3,4.3
		l121.49-0.04c1.46,0,2.82-0.74,3.61-1.97c0.79-1.23,0.9-2.77,0.3-4.1c0,0-12.64-27.72-12.67-27.77V-1660
		c13.75-14.11,33.25-27.95,61.01-39.01c96.35-38.38,93.62,75.39,93.62,75.39v275.32c0,2.37,1.92,4.29,4.29,4.3l122.1,0.1
		c1.46,0,2.82-0.74,3.61-1.97c0.79-1.23,0.9-2.77,0.3-4.1c0,0-12.71-27.8-12.76-27.9c0-58.02,0-174.19,0-217.65
		c0-23.41-1.19-40.33-2.62-52.34c13.68-18.05,35.75-36.85,71.4-51.05c96.36-38.38,93.63,75.39,93.63,75.39v275.32
		c0,2.37,1.92,4.3,4.3,4.3l120.87,0.01c1.46,0,2.82-0.74,3.61-1.97C915.54-1347.1,915.65-1348.65,915.04-1349.98z"/>
</g>
<g>
	<g>
		<path class="st0" d="M-1058.27-1820.17l-28.72,8.01c-1.83,0.51-3.76-0.39-4.54-2.11l-54.07-118.47c-0.96-2.1,0.13-4.57,2.33-5.27
			l53.62-17.15c2.15-0.69,4.43,0.61,4.93,2.81l29.17,127.61C-1055.09-1822.74-1056.29-1820.73-1058.27-1820.17z"/>
		<path class="st0" d="M-1133.67-1786.03l-19.04,22.71c-1.27,1.52-3.49,1.82-5.12,0.71l-147.41-100.33
			c-1.91-1.3-2.26-3.98-0.73-5.73l37.03-42.36c1.43-1.64,3.93-1.77,5.52-0.29l129.42,119.98
			C-1132.49-1789.93-1132.34-1787.6-1133.67-1786.03z"/>
		<path class="st0" d="M-1186-1711.43l-9.15,28.38c-0.58,1.81-2.39,2.92-4.27,2.63l-128.65-20.19c-2.28-0.36-3.74-2.63-3.11-4.85
			l15.25-54.19c0.61-2.17,2.95-3.36,5.07-2.57l122.55,46.01C-1186.39-1715.5-1185.37-1713.39-1186-1711.43z"/>
	</g>
	<path class="st1" d="M-101.97-1734.48c-2.05-23.64-19.96-45.49-42.57-54.13c-29.42-11.25-62.04-2.21-87.81,13.53
		c-27.66,16.89-49.77,40.33-65.61,68.47c-4.98,8.84-86.36,201.8-86.36,201.8l-58.83,142.85c2.95,5.64,5.39,10.3,7.23,13.8
		c1.66,3.16,6.2,3.04,7.68-0.21c33.54-73.17,120.9-310.33,156.06-359.24c10.43-14.51,27.53-29.77,43.92-22.63
		c11.18,4.87,15.74,17.88,22.53,28.01c12.55,18.75,36.34,29.01,58.53,24.95c22.19-4.06,41.3-22.58,44.81-44.87
		C-101.74-1726.27-101.62-1730.4-101.97-1734.48z"/>
	<path class="st1" d="M-414.5-1349.98l-11.53-25.33c0-57.07,0-176.02,0-220.12c0-58.94-7.52-77.34-7.52-77.34
		c-83.38-200.7-279.86,0.17-279.86,0.17l-0.1-0.26c-69.83-168.1-218.27-54.62-264.65-13.32l0-73.06c0-3.11-3.19-5.18-6.03-3.93
		l-133,58.86c-1.37,0.59-2.31,1.82-2.53,3.26c-0.23,1.44,0.3,2.9,1.38,3.88c0,0,22.99,20.39,23.16,20.5v328.51
		c0,2.37,1.92,4.3,4.3,4.3l121.49-0.04c1.46,0,2.82-0.74,3.61-1.97c0.79-1.23,0.9-2.77,0.3-4.1c0,0-12.64-27.72-12.67-27.77V-1660
		c13.75-14.11,33.25-27.95,61.01-39.01c96.35-38.38,93.62,75.39,93.62,75.39v275.32c0,2.37,1.92,4.29,4.29,4.3l122.1,0.1
		c1.46,0,2.82-0.74,3.61-1.97c0.79-1.23,0.9-2.77,0.3-4.1c0,0-12.71-27.8-12.76-27.9c0-58.02,0-174.19,0-217.65
		c0-23.41-1.19-40.33-2.62-52.34c13.68-18.05,35.75-36.85,71.4-51.05c96.36-38.38,93.63,75.39,93.63,75.39v275.32
		c0,2.37,1.92,4.3,4.3,4.3l120.87,0.01c1.46,0,2.82-0.74,3.61-1.97C-414.01-1347.1-413.89-1348.65-414.5-1349.98z"/>
</g>
<g>
	<g>
		<path class="st0" d="M-1058.27-2531.66l-28.72,8.01c-1.83,0.51-3.76-0.39-4.54-2.11l-54.07-118.47c-0.96-2.1,0.13-4.57,2.33-5.27
			l53.62-17.15c2.15-0.69,4.43,0.61,4.93,2.81l29.17,127.61C-1055.09-2534.23-1056.29-2532.22-1058.27-2531.66z"/>
		<path class="st0" d="M-1133.67-2497.52l-19.04,22.71c-1.27,1.52-3.49,1.82-5.12,0.71l-147.41-100.33
			c-1.91-1.3-2.26-3.98-0.73-5.72l37.03-42.36c1.43-1.64,3.93-1.77,5.52-0.29l129.42,119.98
			C-1132.49-2501.42-1132.34-2499.09-1133.67-2497.52z"/>
		<path class="st0" d="M-1186-2422.92l-9.15,28.38c-0.58,1.81-2.39,2.92-4.27,2.63l-128.65-20.19c-2.28-0.36-3.74-2.63-3.11-4.85
			l15.25-54.19c0.61-2.17,2.95-3.36,5.07-2.57l122.55,46.01C-1186.39-2426.99-1185.37-2424.88-1186-2422.92z"/>
	</g>
	<path class="st8" d="M-101.97-2445.97c-2.05-23.64-19.96-45.49-42.57-54.13c-29.42-11.25-62.04-2.21-87.81,13.53
		c-27.66,16.89-49.77,40.33-65.61,68.47c-4.98,8.84-86.36,201.8-86.36,201.8l-58.83,142.85c2.95,5.64,5.39,10.3,7.23,13.8
		c1.66,3.16,6.2,3.04,7.68-0.21c33.54-73.17,120.9-310.33,156.06-359.25c10.43-14.51,27.53-29.77,43.92-22.63
		c11.18,4.87,15.74,17.88,22.53,28.01c12.55,18.75,36.34,29.01,58.53,24.95c22.19-4.06,41.3-22.58,44.81-44.87
		C-101.74-2437.76-101.62-2441.89-101.97-2445.97z"/>
	<path class="st8" d="M-414.5-2061.47l-11.53-25.33c0-57.07,0-176.02,0-220.12c0-58.94-7.52-77.34-7.52-77.34
		c-83.38-200.7-279.86,0.17-279.86,0.17l-0.1-0.26c-69.83-168.1-218.27-54.62-264.65-13.32l0-73.06c0-3.11-3.19-5.18-6.03-3.93
		l-133,58.86c-1.37,0.59-2.31,1.82-2.53,3.26c-0.23,1.44,0.3,2.9,1.38,3.88c0,0,22.99,20.39,23.16,20.5v328.51
		c0,2.37,1.92,4.3,4.3,4.3l121.49-0.04c1.46,0,2.82-0.74,3.61-1.97s0.9-2.77,0.3-4.1c0,0-12.64-27.72-12.67-27.77v-282.25
		c13.75-14.11,33.25-27.95,61.01-39.01c96.35-38.38,93.62,75.39,93.62,75.39v275.32c0,2.37,1.92,4.29,4.29,4.3l122.1,0.1
		c1.46,0,2.82-0.74,3.61-1.97s0.9-2.77,0.3-4.1c0,0-12.71-27.8-12.76-27.9c0-58.02,0-174.19,0-217.65c0-23.41-1.19-40.33-2.62-52.34
		c13.68-18.05,35.75-36.85,71.4-51.05c96.36-38.38,93.63,75.39,93.63,75.39v275.32c0,2.37,1.92,4.3,4.3,4.3l120.87,0.01
		c1.46,0,2.82-0.74,3.61-1.97S-413.89-2060.14-414.5-2061.47z"/>
</g>
<g>
	<g>
		<path class="st8" d="M-1058.27-3243.15l-28.72,8.01c-1.83,0.51-3.76-0.39-4.54-2.11l-54.07-118.47c-0.96-2.1,0.13-4.57,2.33-5.27
			l53.62-17.15c2.15-0.69,4.43,0.61,4.93,2.81l29.17,127.61C-1055.09-3245.72-1056.29-3243.71-1058.27-3243.15z"/>
		<path class="st8" d="M-1133.67-3209.01l-19.04,22.71c-1.27,1.52-3.49,1.82-5.12,0.71l-147.41-100.33
			c-1.91-1.3-2.26-3.98-0.73-5.73l37.03-42.36c1.43-1.64,3.93-1.77,5.52-0.29l129.42,119.98
			C-1132.49-3212.91-1132.34-3210.58-1133.67-3209.01z"/>
		<path class="st8" d="M-1186-3134.41l-9.15,28.38c-0.58,1.81-2.39,2.92-4.27,2.63l-128.65-20.19c-2.28-0.36-3.74-2.63-3.11-4.85
			l15.25-54.19c0.61-2.17,2.95-3.36,5.07-2.57l122.55,46.01C-1186.39-3138.48-1185.37-3136.37-1186-3134.41z"/>
	</g>
	<path class="st8" d="M-101.97-3157.46c-2.05-23.64-19.96-45.49-42.57-54.13c-29.42-11.25-62.04-2.21-87.81,13.53
		c-27.66,16.89-49.77,40.33-65.61,68.47c-4.98,8.84-86.36,201.8-86.36,201.8l-58.83,142.85c2.95,5.64,5.39,10.3,7.23,13.8
		c1.66,3.16,6.2,3.04,7.68-0.21c33.54-73.17,120.9-310.33,156.06-359.24c10.43-14.51,27.53-29.77,43.92-22.63
		c11.18,4.87,15.74,17.88,22.53,28.01c12.55,18.75,36.34,29.01,58.53,24.95c22.19-4.06,41.3-22.58,44.81-44.87
		C-101.74-3149.25-101.62-3153.38-101.97-3157.46z"/>
	<path class="st8" d="M-414.5-2772.96l-11.53-25.33c0-57.07,0-176.02,0-220.12c0-58.94-7.52-77.34-7.52-77.34
		c-83.38-200.7-279.86,0.17-279.86,0.17l-0.1-0.26c-69.83-168.1-218.27-54.62-264.65-13.32l0-73.06c0-3.11-3.19-5.18-6.03-3.93
		l-133,58.86c-1.37,0.59-2.31,1.82-2.53,3.26c-0.23,1.44,0.3,2.9,1.38,3.88c0,0,22.99,20.39,23.16,20.5v328.51
		c0,2.37,1.92,4.3,4.3,4.3l121.49-0.04c1.46,0,2.82-0.74,3.61-1.97c0.79-1.23,0.9-2.77,0.3-4.1c0,0-12.64-27.72-12.67-27.77v-282.25
		c13.75-14.11,33.25-27.95,61.01-39.01c96.35-38.38,93.62,75.39,93.62,75.39v275.32c0,2.37,1.92,4.29,4.29,4.3l122.1,0.1
		c1.46,0,2.82-0.74,3.61-1.97c0.79-1.23,0.9-2.77,0.3-4.1c0,0-12.71-27.8-12.76-27.9c0-58.02,0-174.19,0-217.65
		c0-23.41-1.19-40.33-2.62-52.34c13.68-18.05,35.75-36.85,71.4-51.05c96.36-38.38,93.63,75.39,93.63,75.39v275.32
		c0,2.37,1.92,4.3,4.3,4.3l120.87,0.01c1.46,0,2.82-0.74,3.61-1.97C-414.01-2770.08-413.89-2771.63-414.5-2772.96z"/>
</g>
<g>
	<g>
		<path class="st7" d="M-1058.27-3954.64l-28.72,8.01c-1.83,0.51-3.76-0.39-4.54-2.11l-54.07-118.47c-0.96-2.1,0.13-4.57,2.33-5.27
			l53.62-17.15c2.15-0.69,4.43,0.61,4.93,2.81l29.17,127.61C-1055.09-3957.21-1056.29-3955.2-1058.27-3954.64z"/>
		<path class="st7" d="M-1133.67-3920.49l-19.04,22.71c-1.27,1.52-3.49,1.82-5.12,0.71l-147.41-100.33
			c-1.91-1.3-2.26-3.98-0.73-5.73l37.03-42.36c1.43-1.64,3.93-1.77,5.52-0.29L-1134-3925.8
			C-1132.49-3924.4-1132.34-3922.07-1133.67-3920.49z"/>
		<path class="st7" d="M-1186-3845.9l-9.15,28.38c-0.58,1.81-2.39,2.92-4.27,2.63l-128.65-20.19c-2.28-0.36-3.74-2.63-3.11-4.85
			l15.25-54.19c0.61-2.17,2.95-3.36,5.07-2.57l122.55,46.01C-1186.39-3849.97-1185.37-3847.86-1186-3845.9z"/>
	</g>
	<path class="st7" d="M-101.97-3868.94c-2.05-23.64-19.96-45.49-42.57-54.13c-29.42-11.25-62.04-2.21-87.81,13.53
		c-27.66,16.89-49.77,40.33-65.61,68.47c-4.98,8.84-86.36,201.8-86.36,201.8l-58.83,142.85c2.95,5.64,5.39,10.3,7.23,13.8
		c1.66,3.16,6.2,3.04,7.68-0.21c33.54-73.17,120.9-310.33,156.06-359.24c10.43-14.51,27.53-29.77,43.92-22.63
		c11.18,4.87,15.74,17.88,22.53,28.01c12.55,18.75,36.34,29.01,58.53,24.95c22.19-4.06,41.3-22.58,44.81-44.87
		C-101.74-3860.74-101.62-3864.87-101.97-3868.94z"/>
	<path class="st7" d="M-414.5-3484.44l-11.53-25.33c0-57.07,0-176.02,0-220.12c0-58.94-7.52-77.34-7.52-77.34
		c-83.38-200.7-279.86,0.17-279.86,0.17l-0.1-0.26c-69.83-168.1-218.27-54.62-264.65-13.32l0-73.06c0-3.11-3.19-5.18-6.03-3.93
		l-133,58.86c-1.37,0.59-2.31,1.82-2.53,3.26c-0.23,1.44,0.3,2.9,1.38,3.88c0,0,22.99,20.39,23.16,20.5v328.51
		c0,2.37,1.92,4.3,4.3,4.3l121.49-0.04c1.46,0,2.82-0.74,3.61-1.97s0.9-2.77,0.3-4.1c0,0-12.64-27.72-12.67-27.77v-282.25
		c13.75-14.11,33.25-27.95,61.01-39.01c96.35-38.38,93.62,75.39,93.62,75.39v275.32c0,2.37,1.92,4.29,4.29,4.3l122.1,0.1
		c1.46,0,2.82-0.74,3.61-1.97s0.9-2.77,0.3-4.1c0,0-12.71-27.8-12.76-27.9c0-58.02,0-174.19,0-217.65c0-23.41-1.19-40.33-2.62-52.34
		c13.68-18.05,35.75-36.85,71.4-51.05c96.36-38.38,93.63,75.39,93.63,75.39v275.32c0,2.37,1.92,4.3,4.3,4.3l120.87,0.01
		c1.46,0,2.82-0.74,3.61-1.97S-413.89-3483.11-414.5-3484.44z"/>
</g>
</svg>
