<?xml version="1.0" encoding="UTF-8" standalone="no"?>
<svg
   xmlns:dc="http://purl.org/dc/elements/1.1/"
   xmlns:cc="http://creativecommons.org/ns#"
   xmlns:rdf="http://www.w3.org/1999/02/22-rdf-syntax-ns#"
   xmlns:svg="http://www.w3.org/2000/svg"
   xmlns="http://www.w3.org/2000/svg"
   viewBox="0 0 570 460"
   height="460"
   width="570"
   xml:space="preserve"
   version="1.1"
   id="svg2"><metadata
     id="metadata8"><rdf:RDF><cc:Work
         rdf:about=""><dc:format>image/svg+xml</dc:format><dc:type
           rdf:resource="http://purl.org/dc/dcmitype/StillImage" /><dc:title></dc:title></cc:Work></rdf:RDF></metadata><defs
     id="defs6" /><g
     transform="matrix(1.25,0,0,-1.25,0,460.00002)"
     id="g10"><g
       transform="matrix(0.1,0,0,0.1,-56.382058,-101.91865)"
       id="g12"><path
         id="path14"
         style="fill:#231f20;fill-opacity:1;fill-rule:nonzero;stroke:none"
         d="m 4598.85,3866.47 c 92.22,-6.4 184.59,-41.22 259.64,-100.42 46.77,-36.37 86.65,-82.04 117.22,-133.54 31.2,-51.86 52.29,-107.16 63.42,-169.26 l 3.74,-24.53 c 1.12,-8.02 2.54,-17.23 2.6,-22.34 l -5.34,-36.29 -7.4,-77.85 0,-145.41 7.78,-290.82 4.13,-581.66 -5.92,-290.82 -5.99,-145.41 0,-72.71 7.94,-37.12 c -0.11,-14.68 3.26,-29.35 2.07,-43.99 -9.59,-116.89 -51.2,-231.49 -128.3,-324.13 -75.77,-92.84 -190.27,-228.34 -314.87,-242.22 -66.13,-6.08 -107.39,-70.63 -157.29,-70.63 l -145.04,0 -290.64,67.02 -1163.21,32.95 -1163.26,20.77 -290.8,9.39 -145.4,4.7 -72.7,2.34 c -28.18,0.11 -59.24,3.38 -88.24,8.17 -117.677,19.28 -226.541,78.18 -308.095,163.39 -82.075,84.64 -135.508,198.49 -147.821,316.31 -5.672,63.99 -2.019,106.33 -2.84,156.12 l 0.5,145.48 0.996,290.85 1.997,581.67 0.996,290.84 0.496,145.41 0.25,72.71 c -0.055,10.53 0.457,29.16 1.734,43.39 1.211,15.26 3.504,30.32 6.129,45.31 23.195,120.27 92.695,156.94 179.641,227.96 87.011,70.76 193.617,55.22 315.257,55.22 l 0.16,0 -19.66,60.4 0,26.2 c 0,8.99 -24.02,15.39 -22.62,32.61 2.49,29.47 2.55,59.69 20,82.78 17.37,23.37 32.88,40.22 54.36,52.65 21.63,12.42 40.79,20.73 62.97,26.48 11.1,2.77 20.78,4.95 31.97,6.48 160.8145,-87.1015 321.1365,-106.8394 419.68,-106.35 25.79,-7.35 54.45,27.72 75.67,3.89 21.43,-23.42 33.89,-26.97 39.47,-52.29 -21.2984,-77.4636 -3.6166,-62.8053 -3.4832,-97.9028 L 1731.21,3737.32 c 0,0 43.8602,-4.2424 105.21,0 l 0.1,0 -53.7488,29.0025 c 10.38,61.16 10.5088,124.4675 23.0488,184.9575 12.16,60.62 26.39,133.94 39.49,194.26 l 42.89,186.53 5.58,26.3 c 3.87,12.91 8.11,27.56 13.43,39.3 10.47,23.85 23.56,46.12 38.38,65.18 29.66,38.39 65.37,69.88 108.7,93.71 21.63,11.88 45.18,22.13 71.51,28.88 9.95,3.38 34.53,7.07 45.7,8.18 l 11.49,1.18 18.1,0.78 c 30.74,1.68 61.49,2.43 92.24,3.29 l 184.48,5.25 c 122.98,3.53 245.97,4.4 368.96,4.89 122.98,0.39 245.97,-0.86 368.96,-3.02 l 184.48,-5.51 92.24,-2.78 12.47,-0.4 22.01,-1.59 c 14.15,-1.86 28.42,-4.13 41.3,-7.87 26.52,-6.83 50.22,-16.99 71.97,-28.97 43.57,-24.05 79.41,-55.36 109.17,-94 15.33,-20.08 26.94,-38.73 39.54,-66.76 l 4.65,-11.11 2.2,-5.58 0.95,-2.97 3.42,-11.03 2.25,-6.94 0.36,-1.4 0.71,-2.79 1.35,-5.62 2.66,-11.25 42.53,-179.96 23.79,-181.12 c 12.17,-60.61 18.95,-121.29 18.95,-182.62 l 0,-5.22 -35.69,-53.18 77.61,0 -41.92,37.95 0,52.41 0,13.15 c 0,7.33 -12.66,14.69 -11.97,22 2.15,14.85 -0.66,29.59 5.34,43.59 74.6223,78.2508 112.7243,77.0623 213.3064,63.4808 174.5369,-87.9271 337.6873,151.2176 420.757,52.7249 25.94,-16.46 52.0966,-92.1957 63.1766,-118.7957 5.68,-13.23 9.77,-13.99 12.18,-26.57 1.22,-6.28 2.43,-6.21 3.03,-13.25 0.14,-1.24 0.17,3.73 0.3,2.46 z m -136.12,-68.76 0,39.31 -0.36,10.75 c -0.05,5.43 -0.57,6.37 -0.75,8.3 -0.03,1.69 -0.62,4.06 -1.04,6.35 -0.8,4.6 -2.13,8.02 -3.23,10.89 -2.49,5.65 -4.31,6.84 -7.61,9.4 -3.22,2.42 -10.52,-26.34 -20.69,-25.05 -133.5073,-142.5628 -340.2295,56.9949 -412.2889,20.3959 -52.7272,-29.003 -44.0311,-35.9359 -44.0311,-37.3159 l 0,-13.06 0,-52.41 c 0,-38.03 -0.05,-207.95 -38.08,-207.95 l -77.61,0 c -30.88,0 -54.31,167.19 -54.31,195.2 l 0,-3.82 c 0,56.12 -56.9,110.97 -81.22,167.81 l -73.51,170.27 -68.36,171.9 -4.89,10.54 -2.44,5.27 -1.17,2.65 -0.59,1.32 -0.29,0.67 c -0.48,1.43 3.34,-10.06 1.58,-4.89 l -4.51,10.64 -1.06,2.42 -0.25,-0.36 -0.26,-0.68 c -0.75,-0.38 -5.64,7.22 -10.06,10.7 -9.09,8.92 -22,17.36 -33.24,21.11 -5.57,2.05 -10.76,3.18 -14.27,3.01 -1.94,0.37 -3.08,-0.37 -4.14,-0.38 -0.37,-0.27 -0.7,-0.51 -1.02,-0.42 l -10.58,-0.3 -92.24,-2.78 -184.48,-5.51 c -122.99,-2.16 -245.98,-3.42 -368.96,-3.02 -122.99,0.49 -245.98,1.35 -368.96,4.89 l -184.48,5.24 c -127.9389,0.4081 -105.5953,8.0999 -168.13,-37.09 l -3.82,-3.44 -8.14,-20.26 -66.57,-172.08 c -23.4,-57.13 -45.66,-114.4 -69.98,-171.23 -23.95,-56.96 -48.3,-113.68 -74.4,-169.96 l -7.66,-86.01 c -10.55,-22.74 -34.51,-101.41 -58.11,-101.41 l -0.1,0 -105.21,0 c -38.03,0 -48.48,169.92 -48.48,207.95 l 0,52.41 -10.15,10.75 -5.53,13.09 c -0.53,4.69 -3.49,7.72 -4.48,12.86 -1.95,8.74 -6.09,12.83 -8.21,15.3 -54.318,-92.2601 -304.8209,-52.1598 -358.85,-21.14 -10.51,-0.17 -13.51,14.81 -19.04,14.25 -6.12,-0.84 -12.11,5.81 -17.98,4.37 -23.37,-5.74 -42.94,-14.05 -49.51,-23.74 -3.47,-4.85 -5.02,-6.39 -5.62,-11.7 0.08,-2.12 -0.63,1.1 -0.63,-4.7 l 0,-13.1 0,-26.2 c 0,-36.32 -27.86,-146.85 -63.53,-149.41 l -6.04,-80.99 1.57,0 c -73.54,0 -148.511,27.18 -206.765,-28.27 -28.973,-28.33 -53.34,-19.79 -72.985,-53.15 -19.039,-33.76 -32.152,-48.97 -38.437,-84.61 -1.285,-8.94 -2.43,-7.75 -2.906,-16.69 -0.567,-9.92 -0.559,-10.51 -0.539,-24.21 l 0.277,-70.18 0.508,-144.15 1.004,-290.19 1.996,-581.34 1,-290.66 0.5,-145.34 c 0.715,-47.07 -1.149,-102.02 2.66,-134.6 8.566,-75.07 42.426,-146.19 95.715,-200.51 52.84,-54.6 123.942,-91.7 197.912,-103.16 18.87,-2.86 36.27,-4.05 56.56,-4.08 l 72.71,0.26 145.41,0.5 290.83,0.99 1163.3,3.97 1163.3,-17.53 290.83,-17.05 145.41,0 c 46.97,0 102.65,15.31 133.08,18.65 68.91,7.94 132.89,52.58 180.02,109.49 47.39,56.41 76.71,135.43 82.87,211.52 0.78,9.53 7.38,21.18 7.46,30.74 l 6.28,37.69 0,72.71 -6.08,145.41 -2.92,290.82 -1.22,581.66 5,290.82 5.22,145.41 0,67.57 -7.04,36.33 c -0.02,7.05 -3.81,9.76 -4.39,13.73 l -3.07,11.42 c -5.54,33.34 -18.15,70.56 -34.64,103.05 -17.24,32.67 -39.32,63.87 -66.63,90.19 -54.21,53.34 -125.98,89.31 -207.01,104.35 l -11.81,2.19 c -32.64,6.06 -55.41,34.6 -55.41,66.64" /><path
         id="path16"
         style="fill:#231f20;fill-opacity:1;fill-rule:nonzero;stroke:none"
         d="m 3520.37,2696.5 c 0,0 -0.26,17.48 -0.75,50.27 0.71,16.54 -1.56,36.62 -4.58,60.27 -1.57,11.79 -2.25,24.71 -4.69,38.16 -2.93,13.38 -6.05,27.59 -9.34,42.61 -14.74,59.45 -37.79,132.14 -83.14,206.71 -44.45,74.55 -108.81,152.69 -197.47,216.38 -45.35,29.74 -93.91,60.36 -149.5,80.25 -13.78,5.21 -27.68,10.45 -41.69,15.74 -14.47,3.89 -29.06,7.8 -43.76,11.75 -29.9,9.64 -58.04,10.45 -87.47,16.26 -14.48,2.51 -34.11,2.15 -51.1,3.38 l -26.53,1.28 -13.34,0.65 c -4.27,0.1 3.94,-0.04 2.56,-0.08 l -1.51,-0.11 -3.01,-0.21 -6.02,-0.42 c -32.11,-2.69 -64.86,-2.62 -97.07,-9.72 -65.24,-8.67 -129.18,-30.84 -191.24,-57.96 -62,-28.18 -118.73,-68.49 -171.81,-113.13 -52.16,-46.17 -96.93,-100.94 -134.43,-160.33 -36.48,-60.23 -63.22,-125.89 -82.21,-193.39 -7.31,-34.43 -15.86,-69.22 -17.75,-100.46 l -3,-23.94 c -1.34,-7.3 -0.66,-19.49 -1.09,-29 l -0.85,-54.98 c 4.66,-69.88 16.25,-138.57 38.5,-203.59 23.78,-64.37 54.57,-125.39 93.8,-179.97 40.7,-53.39 86.11,-102.02 136.96,-142.89 52.02,-39.15 106.84,-73.06 165.06,-96.59 13.83,-7.5 29.36,-10.7 43.77,-16.35 14.73,-4.82 28.9,-11.16 44.11,-13.84 14.91,-3.59 29.75,-7.16 44.52,-10.72 14.61,-3.41 27.17,-3.72 40.63,-6.09 21.91,-5.33 63.93,-5.22 98.45,-6.8 l 6.69,-41.22 3.35,-41.1 1.67,0 c 2.25,0 -13.33,41.34 -6.1,41.19 l 10.95,21.15 21.79,11.47 c 14.43,1.18 28.99,5.64 43.06,8.05 113.25,14.58 216.3,54.93 301.83,107.83 85.5,53.06 152.53,121.46 201.52,188.38 50.12,66.77 78.17,135.96 96.76,193.05 4.36,14.47 8.48,28.49 12.36,41.37 3.32,12.63 4.66,23.75 7.06,34.44 2.24,10.59 4.31,20.47 6.21,29.45 1.95,9.16 2.13,21.58 3.14,30.5 3.16,37.9 4.85,58.14 4.85,58.14 l -0.15,-5.84 z m 231.66,-5.86 c 0,0 -0.36,-20.29 -1.03,-58.32 -0.44,-10.01 0.27,-18.99 -1.18,-32.94 -1.62,-14.12 -3.39,-29.53 -5.31,-46.18 -2.21,-16.47 -3.89,-35.09 -7.34,-53.29 -3.99,-17.72 -8.23,-36.55 -12.71,-56.44 -20.05,-78.73 -52.21,-174.44 -112.77,-272.19 -59.62,-97.68 -145.3,-199.15 -262.31,-281.83 -116.97,-81.52 -265.17,-143.54 -429.09,-162.05 -20.35,-3.04 -41.11,-2.81 -61.86,-4.23 l -31.29,-1.44 -15.71,-0.67 -9.43,0.16 -1.67,0.11 -3.34,0.21 -6.69,0.43 c -36.81,2.91 -67.52,2.44 -117.63,11.4 -22.56,3.88 -46.85,6.77 -68.12,12.18 -21.05,5.66 -42.2,11.34 -63.45,17.05 -21.46,5.01 -41.8,13.9 -62.64,21.49 -20.51,8.41 -42.06,14.6 -61.77,25.29 -81.64,36.89 -156.93,88.72 -226.76,147.41 -68.9,60.22 -128.58,131.54 -178.46,209.55 -48.88,78.86 -85.47,165.24 -111.07,254.63 -24.11,90.09 -33.49,183.23 -32.64,275.51 l 0.31,7.76 0.16,1.89 0.32,3.79 0.64,7.58 1.28,15.16 2.57,30.32 c 1.18,10.68 0.97,18.93 3.31,31.6 l 6.17,36.14 c 7.03,49.53 20.78,92.69 33.67,136.49 30.39,86.24 71.02,168 122.65,241.2 53.09,72.02 113.39,137.21 180.99,192.11 68.77,53.21 142.14,98.64 220.01,130.88 77.66,31.78 157.46,56.24 237.77,65.06 39.8,7.2 79.78,6.68 119.01,8.49 l 7.35,-63.75 3.67,-63.88 1.84,0 5.89,63.88 13.33,31.32 26.53,14.61 c 18.21,-1.38 33.88,7.15 53.83,4.24 39.15,-6.29 80.13,-6.18 115.16,-16.59 18.09,-4.49 36.04,-6.94 53.85,-11.36 17.34,-6.03 34.53,-11.01 51.58,-16.94 68.25,-23.91 130.45,-55.98 187.92,-90.93 113.85,-72.04 202.21,-162.23 266.37,-252.29 65.34,-89.94 102.51,-181.39 126.41,-257.76 5.54,-19.34 10.79,-37.59 15.73,-54.81 4.33,-17.38 6.67,-34.01 9.71,-49.37 5.95,-30.77 10.37,-57.07 11.26,-78.67 3.35,-43.15 5.13,-66.16 5.13,-66.16 l -0.15,-5.85" /></g></g></svg>