<?xml version="1.0" encoding="UTF-8" standalone="no"?>
<svg
   xmlns:dc="http://purl.org/dc/elements/1.1/"
   xmlns:cc="http://creativecommons.org/ns#"
   xmlns:rdf="http://www.w3.org/1999/02/22-rdf-syntax-ns#"
   xmlns:svg="http://www.w3.org/2000/svg"
   xmlns="http://www.w3.org/2000/svg"
   viewBox="0 0 250 610"
   height="610"
   width="250"
   xml:space="preserve"
   version="1.1"
   id="svg2"><metadata
     id="metadata8"><rdf:RDF><cc:Work
         rdf:about=""><dc:format>image/svg+xml</dc:format><dc:type
           rdf:resource="http://purl.org/dc/dcmitype/StillImage" /><dc:title></dc:title></cc:Work></rdf:RDF></metadata><defs
     id="defs6" /><g
     transform="matrix(1.25,0,0,-1.25,0,610.00004)"
     id="g10"><g
       transform="matrix(0.1,0,0,0.1,-183.71143,-40.571737)"
       id="g12"><path
         id="path14"
         style="fill:#231f20;fill-opacity:1;fill-rule:nonzero;stroke:none"
         d="m 3570.74,1638.39 c 13.41,-147.88 24.69,-295.96 34.17,-444.14 4.75,-74.09 9.41,-148.22 13.03,-222.359 2.27,-46.5 21.33,-580.532 -231.11,-294.672 -1.59,1.801 -3.33,2.211 -5.04,2.652 -90.06,131.379 -52.87,377.619 -56.07,513.499 -4.45,189.85 -8.17,379.71 -11.08,569.58 -4.65,305.58 -6.67,611.19 -7.19,916.82 44.58,-7.73 91.5,-13.15 138.17,-12.95 55.48,-340.82 93.94,-684.57 125.12,-1028.43 z m 22.48,2337.33 c 34.64,-226.36 56.43,-454.9 65.23,-683.72 3.44,-89.39 36.32,-243.45 3.4,-322.26 -69.66,-166.69 -195.47,-224.11 -354.55,-230.92 -0.04,54.5 -0.52,108.98 -0.42,163.47 1.12,703.74 43.35,1412.34 26.15,2116.14 118.01,-339.47 205.64,-686.25 260.19,-1042.71 z m 64.11,-1241.15 c 146.1,126.12 92.71,387.38 85.83,555.45 -26.66,650.54 -167.97,1285.9 -390.64,1896.64 -15.44,42.35 -79.77,29.09 -75,-9.65 -93.8,-899.27 -60.31,-1825.53 -53.16,-2728.53 3.6,-455.74 10.6,-911.61 24.73,-1367.14 4.87,-157.258 -34.44,-439.059 163.12,-495.281 3.96,-1.137 7.56,-1.047 10.92,-0.45 107.68,-89.179 261.74,126.313 269.13,258.801 33.18,594.99 -92.24,1239.79 -191.24,1825.98 56.97,7.05 111.27,25.3 156.31,64.18" /><path
         id="path16"
         style="fill:#231f20;fill-opacity:1;fill-rule:nonzero;stroke:none"
         d="m 2901.55,5020.64 c -8.26,19.25 -38.53,11.23 -35.68,-9.81 47.12,-347.99 326.18,-1161.7 -203.08,-1243.55 -0.11,-0.02 -0.15,-0.12 -0.27,-0.13 -12.89,35.66 -69.8,27.8 -64.38,-13.6 69.02,-527.05 185.13,-1051.57 296.72,-1571.01 51.68,-240.52 105.55,-480.61 160.08,-720.49 27.25,-119.9 55.41,-239.58 83.61,-359.28 17.4,-70.43 34.05,-141.028 49.97,-211.79 61.65,-180.628 -11.26,-293.699 -215.19,-340.988 -174.99,145.227 -179.59,702.918 -199.94,870.628 -32.34,266.62 -64.67,533.25 -97,799.83 -61.61,507.84 -89.44,1037.34 -208.37,1535.21 -5.55,23.27 -30.44,24.09 -41.08,9.15 -5.3,19.8 -24.17,35.24 -49.79,24.63 -277.05,-114.62 -306.84,503.18 -323.18,619.65 -24.97,177.87 -46.06,356.22 -76.54,533.23 -7.39,42.86 -68.84,33.86 -66.36,-8.91 11.57,-200.93 15.03,-1478.25 496.26,-1214.86 6.83,3.75 11.32,8.8 14.83,14.23 8.24,-689.13 150.65,-1394 234.64,-2077.68 38.47,-312.94 39.1,-663.659 122.49,-967.67 37.91,-138.168 106.8,-218.25 247.46,-230.848 4.61,-0.402 8.68,0.137 12.38,1.168 58.42,-2.891 116.02,20.871 168.05,77.801 175.01,191.629 16.54,552.129 -32.89,757.229 -194.4,806.64 -328.78,1623.59 -502.32,2434.06 577.33,-265.03 306.68,1114.02 229.58,1293.8" /><path
         id="path18"
         style="fill:#231f20;fill-opacity:1;fill-rule:nonzero;stroke:none"
         d="m 2792.17,5013.98 c -17.17,-123.22 -27.15,-247.52 -28.79,-371.79 -39.23,134.69 -89,265.74 -145.11,383.96 -3.34,7.06 -8.25,11.16 -13.59,12.94 -10.59,27.62 -55.96,30.91 -59.45,-4.72 -21.73,-221.38 -25.7,-445.08 -18.03,-668 -43.89,216.84 -108.17,432.25 -173.04,639.47 -5.5,17.57 -31.15,10.99 -32.95,-5.2 -16.55,17.21 -50.51,14.9 -53.32,-15.57 -17.83,-192.68 -24.26,-388.96 -16.16,-584.07 -52.96,203.47 -135.58,400.25 -242.59,577.54 -11.7,19.37 -41.52,0.21 -33.42,-19.69 124.9,-306.66 216.97,-608.81 286.19,-932.64 5.49,-25.66 35.49,-27.24 47.03,-10.56 7.49,2.51 14.17,8.64 14.11,18.84 -1.69,303.71 -3.96,605.75 6.22,909.28 51.19,-297.37 98.73,-603.82 185.34,-892.03 7.89,-26.24 39.64,-21.95 52.68,-3.75 8.35,1.02 16,5.69 16.12,15.7 3.35,279.46 12.7,558.55 20.08,837.79 67.24,-253.08 124.17,-507.99 192.26,-760.54 8.77,-32.51 53.32,-27.46 52.27,7.02 -1.14,37 -3.74,74.55 -7.55,112.4 -10.43,249.19 -8.18,494.96 25.69,743.53 6.51,47.68 -67.35,57.69 -73.99,10.09" /></g></g></svg>