<?xml version="1.0" encoding="UTF-8" standalone="no"?>
<svg
   xmlns:dc="http://purl.org/dc/elements/1.1/"
   xmlns:cc="http://creativecommons.org/ns#"
   xmlns:rdf="http://www.w3.org/1999/02/22-rdf-syntax-ns#"
   xmlns:svg="http://www.w3.org/2000/svg"
   xmlns="http://www.w3.org/2000/svg"
   xmlns:sodipodi="http://sodipodi.sourceforge.net/DTD/sodipodi-0.dtd"
   xmlns:inkscape="http://www.inkscape.org/namespaces/inkscape"
   width="708.66248"
   height="708.66248">
<g
     id="g10"
     inkscape:groupmode="layer"
     inkscape:label="ink_ext_XXXXXX"
     transform="matrix(1.25,0,0,-1.25,0,708.6625)"><g
       id="g12"
       transform="scale(0.1,0.1)"><path
         d="m 1939.85,3455.89 c 0.97,14.2 2.06,30.46 3.26,48.81 1.18,18.32 2.65,40.51 4.36,66.54 1.71,25.98 3.89,56.79 6.62,92.29 2.74,35.5 6.62,78.6 10.14,127.84 2.27,31.56 4,60.57 6.06,86.02 2.05,25.42 3.66,49.06 4.83,70.91 1.15,21.81 1.85,42.14 2.04,60.95 0.19,18.78 1.92,39.5 1.41,58.24 -0.21,7.62 -0.55,12.85 0.64,14.14 -1.19,-1.29 -1.61,-3.67 -1.29,-7.16 0.32,-3.49 -0.06,-8.34 -0.64,-14.14 -1.51,-15.02 -3.22,-35.54 -6.05,-60.45 -2.83,-24.91 -5.86,-54.57 -8.97,-88.91 -10.5,-118.45 -17.53,-217.84 -21.82,-298.16 -4.31,-80.34 -5.52,-139.23 -4.06,-176.67 0.58,-12.63 0.87,-18.95 1.46,-31.58 0.79,20.54 1.19,30.8 2.01,51.33 z m -73.53,82.06 c 0.51,17.7 1.41,34.82 2.71,51.45 1.28,16.59 2.76,34.69 4.4,54.28 1.63,19.57 3.31,41.81 5.07,66.67 1.75,24.86 4.76,55.33 8.41,90.81 4.5,43.64 8.01,79.29 11.05,106.04 3.04,26.75 5.59,49.32 7.61,67.76 2.02,18.41 3.24,35.27 3.66,50.59 0.42,15.3 0.51,33.92 1.37,54.76 0.68,16.27 1.37,32.45 1.17,47.69 -0.2,15.2 -0.47,24.62 -0.81,28.11 -1.89,5.68 -2.77,7.93 -2.65,6.78 0.11,-1.16 0.21,-7.26 -0.23,-17.64 -0.68,-16.25 -3.64,-39.75 -7.83,-69.5 -4.19,-29.79 -9.08,-68.5 -14.5,-116.05 -6.79,-59.48 -11.97,-110.27 -15.75,-152.4 -3.79,-42.14 -6.11,-78.87 -7.12,-110.1 -1,-31.27 -1.37,-59.26 -1.15,-83.91 0.21,-24.65 1.05,-49.27 2.55,-73.8 0.81,-14.03 1.21,-21.04 2.03,-35.06 0,13.41 0,20.11 0.01,33.52 z m -42.37,94.04 c -0.15,-6.84 -0.06,-7.67 1.12,-1.63 1.2,6 3.07,18.93 4.22,37.53 1,16.13 3.14,44.76 7.57,84.65 4.44,39.87 9.2,80.25 13.58,120.55 7.21,66.2 12.99,116.59 17.98,150.03 4.96,33.41 6.62,63.45 7.64,87.18 0.58,13.7 0.86,20.35 -0.92,18.41 -1.77,-1.96 -3.14,-11.21 -4.04,-27.74 -0.46,-8.29 -2.11,-17.58 -4.97,-27.85 -2.86,-10.29 -5.18,-25.53 -6.97,-45.69 -7.95,-60.78 -13.88,-113.19 -18.05,-157.12 -4.18,-43.96 -7.69,-81.41 -10.58,-112.3 -2.91,-30.93 -4.74,-56.43 -5.61,-76.5 -0.87,-20.1 -0.69,-37.14 -0.97,-49.52 z m -51.59,557.04 c 2.09,4.92 2.47,7.33 1.19,7.19 -0.13,1.14 -1.57,-1.06 -4.24,-6.65 -2.7,-5.6 -5.51,-12.98 -8.44,-22.14 -2.93,-9.16 -6.15,-18.67 -9.64,-28.46 -3.5,-9.83 -6.72,-19.04 -9.68,-27.61 -4.5,-18.18 -10.06,-40.62 -16.71,-67.29 -6.65,-26.7 -10.88,-60.39 -14.48,-98.89 -3.09,-32.92 -6.64,-62.08 -8.82,-85.88 -2.19,-23.84 -4.03,-44.98 -5.55,-63.42 -1.53,-18.47 -3.17,-35.75 -4.93,-51.88 -1.78,-16.12 -3.76,-34.13 -6.58,-52.97 -3.21,-21.41 -6.04,-41.45 -7.48,-59.31 -1.47,-17.87 -2.02,-27.97 -1.72,-30.28 0.76,-5.81 2.34,-1.18 4.79,13.88 2.44,15.03 5.42,35.76 8.99,62.15 3.57,26.37 7.12,55.98 10.65,88.84 3.53,32.82 7.12,64.53 9.44,93.93 2.12,26.88 4.04,51.14 6.75,71.48 2.7,20.32 5.37,38.65 7.99,54.84 2.61,16.18 5.41,30.94 8.42,44.27 3,13.3 6.77,27.55 9.83,41.77 4.5,20.91 9.26,44.6 15.74,68.89 6.46,24.27 11.33,40.13 14.48,47.54 z m -112.63,-497.68 c 0.46,-3.47 1.66,-0.67 3.65,8.43 1.97,9.1 3.88,21.42 5.68,36.99 1.81,15.53 3.37,33.14 4.69,52.75 1.33,19.61 2.79,38.36 4.39,56.23 4.35,77.14 12.7,143.57 24.94,199.22 12.24,55.62 25.47,103.12 39.55,142.42 2.34,2.62 3.66,5.73 3.92,9.28 0.26,3.54 1.16,6.68 1.95,9.05 1.09,3.27 1.95,6.1 3.15,7.43 -1.33,-0.16 -3.85,-4.28 -7.57,-12.35 -3.75,-8.1 -7.86,-18.29 -12.4,-30.57 -4.54,-12.31 -8.71,-24.86 -12.46,-37.66 -3.77,-12.81 -7.11,-23.53 -10.03,-32.1 -6.18,-25.47 -12.29,-50.95 -18.3,-76.42 -6.04,-25.48 -10.6,-57.93 -13.33,-97.08 -1.4,-20.15 -2.67,-38.05 -3.92,-53.51 -1.26,-15.49 -2.28,-30.07 -3.11,-43.7 -0.83,-13.65 -1.71,-26.76 -2.66,-39.23 -0.96,-12.48 -2.28,-26.13 -4.37,-40.34 -1.94,-13.13 -3.33,-25.8 -3.69,-37.62 -0.36,-11.83 -0.38,-18.91 -0.08,-21.22 z m 563.75,170.83 c 10.89,-0.9 20.98,-4.45 28.49,-12.14 7.49,-7.71 10.93,-16.85 10.37,-27.43 0.15,-2.35 -0.73,-13.24 -2.6,-32.68 -1.88,-19.43 -4.64,-44.53 -8.22,-75.22 -3.57,-30.72 -8.06,-65.87 -13.36,-105.48 -5.32,-39.64 -12.09,-79.69 -20.12,-120.06 -9.91,-49.87 -20.49,-94.11 -32.01,-132.51 -11.52,-38.39 -22.63,-72.12 -33.38,-101.14 -20.62,-54.46 -46.51,-90.11 -78.03,-107.09 -31.55,-16.97 -64.45,-22.79 -97.69,-16.56 -34.71,6.49 -65.41,24.79 -91.3,53.63 -25.92,28.83 -45.7,64.86 -59.3,107.87 -17.18,54.38 -29.36,108.62 -35.84,162.58 -6.47,53.98 -9.33,108.66 -8.4,164.1 0.93,55.43 4.71,111.79 11.5,169.05 6.78,57.27 14.49,116.95 23.17,179.07 1.53,9.57 4.01,28.38 7.47,56.38 3.47,27.98 6.79,57.78 10,89.27 3.2,31.47 6.39,60.63 9.55,87.41 3.14,26.78 4.4,43.66 3.67,50.64 -0.15,9.14 -0.23,13.72 -0.38,22.87 -2.82,-3.82 -4.22,-5.73 -7.03,-9.55 -10.55,-14.05 -21.76,-34.34 -33.48,-60.9 -11.75,-26.57 -21.74,-55.62 -30.05,-87.13 -4.3,-8.74 -8.6,-26.01 -12.84,-51.76 -4.25,-25.8 -8.99,-55.51 -14.14,-89.03 -5.15,-33.56 -10,-69.18 -14.47,-106.78 -4.47,-37.61 -8.5,-72.87 -12.1,-105.69 -3.6,-32.85 -6.96,-61.84 -10.12,-86.95 -3.17,-25.12 -5.65,-41.43 -7.1,-48.61 -2.39,-11.86 -4,-25.56 -5.21,-40.43 -1.22,-14.91 -3.01,-30.16 -5.35,-45.77 -2.36,-15.63 -6.38,-30 -12.11,-43.13 -5.71,-13.13 -14.89,-23.49 -27.48,-31.07 -2.14,-2.67 -6.4,-3.21 -12.77,-1.73 -6.39,1.49 -10.67,0.89 -12.77,-1.75 -1.81,-4.98 -10.22,-6.71 -25.29,-5.28 -15.07,1.42 -28.78,4.73 -40.54,10.15 -13.27,6.1 -24.19,21.42 -32.73,44.83 -6.12,16.75 -11.94,31.91 -17.06,45.32 -5.14,13.42 -9.34,29.04 -12.65,46.87 -3.3,17.8 -6,40.15 -8.11,67.04 -2.1,26.85 -2.82,62.57 -3.26,105.87 -0.2,19.83 -0.98,41.51 -1.76,64.43 -0.77,22.9 -2.23,46.02 -4.32,69.36 -10.58,-16.91 -19.92,-37.23 -28.04,-60.89 -8.11,-23.68 -15.12,-46.4 -18.97,-66.72 -3.77,-19.95 -6,-40.56 -8.13,-59.79 -2.14,-19.28 -3.03,-40.14 -2.7,-62.53 0.33,-22.43 1.66,-47.08 4,-73.92 2.33,-26.86 4.99,-57.81 9.59,-90.78 1.91,-13.65 4.52,-28.59 6.98,-44.16 2.46,-15.59 4.02,-31.33 4.67,-47.2 0.66,-15.87 -0.29,-31.42 -2.8,-46.6 -2.5,-15.21 -8.85,-29.54 -18.94,-43 -4.42,-3.11 -6.71,-7.93 -6.85,-14.44 -0.17,-6.55 -3.24,-10.3 -9.19,-11.28 -2.42,-0.4 -4.6,-1.95 -6.6,-4.64 -1.2,-0.2 -2.54,0.47 -4,2 -1.5,1.53 -4.01,5.56 -7.54,12.07 -0.02,-4.27 -0.04,-6.4 -0.06,-10.67 -0.43,-4.83 -3.38,-7.38 -8.83,-7.7 -5.46,-0.33 -11.49,0.74 -18.03,3.18 -6.57,2.45 -13.49,5.12 -20.72,8.02 -7.26,2.9 -12.89,5.17 -16.89,6.87 -13.56,7.12 -25.52,15.42 -35.84,24.86 -10.3,9.44 -21.86,21.93 -34.6,37.45 -27.76,36.55 -55.8,86.98 -84.26,151.21 -28.45,64.23 -52.66,134.6 -73.9,208.2 -6.77,23.46 -12.71,47.85 -16.78,72.66 -4.07,24.79 -7.19,47.99 -9.33,69.61 -2.13,21.6 -3.12,40.73 -2.97,57.44 0.14,16.67 2.15,28.96 6,36.82 7.46,16.85 16.59,25.1 27.35,24.72 4.29,-1.61 7.12,-0.76 8.52,2.46 1.4,3.21 3.84,6.33 7.28,9.36 6.45,1.18 10.01,-3.83 10.73,-14.98 0.7,-11.18 0.92,-19.75 0.7,-25.71 0.37,-6.35 0.55,-9.53 0.92,-15.88 1.17,6.63 1.75,9.95 2.93,16.58 0.22,5.97 1.6,14.82 4.14,26.59 2.52,11.73 9.61,18.67 21.23,20.74 11.61,2.08 18.35,1.48 20.27,-1.75 3.59,-5.32 6.35,-6 8.34,-2.08 1.96,3.9 4.44,4.92 7.44,3.08 6.85,-1.2 14.71,-4.28 23.52,-9.27 8.83,-5.01 16.05,-10.08 20.5,-15.16 5.08,-5.8 9.41,-12.62 13.16,-19.1 3.74,-6.48 8.51,-16.97 14.21,-31.38 5.72,-14.44 13.05,-34.57 21.94,-60.32 8.9,-25.78 20.88,-60.5 35.87,-104.23 4.79,-13.42 9,-25.17 12.59,-35.24 3.58,-10.07 6.18,-16.17 7.81,-18.26 0.2,-1.16 0.75,1.29 1.69,7.38 0.93,6.06 1.88,13.91 2.89,23.58 6.02,57.82 19.53,108.84 40.73,152.98 21.16,44.12 46.71,72.78 74.27,86.63 21.77,10.95 44.73,15.64 68.12,12.43 23.38,-3.21 41.64,-12.34 53.8,-27.14 9.44,-11.49 18.77,-30.51 28.03,-56.4 9.28,-25.9 15.78,-53.35 19.58,-82.3 1.68,-12.76 3.32,-15.47 4.94,-8.19 1.62,7.26 2.97,26.3 4.15,57.12 1.76,46.19 6.1,95.64 13.2,148.41 7.09,52.72 18.07,102.37 33.05,148.95 14.97,46.55 35.67,86.67 62.09,120.27 26.42,33.57 60.51,55.27 100.94,65.56 36.57,9.3 69.24,5.7 97.08,-11.67 27.83,-17.38 49.26,-44.34 64.44,-80.45 16.64,-39.58 27.36,-83.02 32.02,-130.11 4.67,-47.1 6.1,-95.12 4.46,-143.92 -1.64,-48.83 -5.14,-97.53 -10.42,-146.1 -5.28,-48.59 -9.82,-94.87 -13.25,-138.49 -2.97,-37.71 -5.92,-75.99 -9.16,-114.41 -3.25,-38.45 -6.6,-75.2 -10.01,-110.13 -3.42,-34.96 -5.86,-66.63 -7.37,-94.94 -1.51,-28.32 -1,-50.5 -0.01,-65.18 1.29,-19.25 2.62,-39.08 5.63,-57.59 2.99,-18.48 7.84,-37.38 14.49,-56.71 18.19,8.79 36.64,34.02 55.71,75.63 10.89,25.61 21.41,56.72 31.62,93.4 10.2,36.64 19.24,78.61 28.06,124.61 7.49,39.08 14.05,78.2 18.51,116.67 4.45,38.43 8.37,73.02 11.69,103.77 3.32,30.72 6.73,64.96 10.31,102.74 0.46,10.58 4.88,19.7 13.24,27.34 8.35,7.64 18.85,10.06 29.91,9.15"
         style="fill:#231f20;fill-opacity:1;fill-rule:nonzero;stroke:none"
         id="path14"
          /><path
         d="m 2704.28,4021.66 c -5.97,-28.16 -12.37,-61.9 -19.23,-101.2 -6.85,-39.32 -12.67,-78.3 -17.49,-116.99 -4.8,-38.68 -8.67,-73.85 -11.66,-105.49 -2.99,-31.65 -4.29,-53.89 -3.98,-66.75 0.2,-8.18 0.85,-9.92 1.98,-5.2 1.95,21.08 4.77,45.71 8.49,73.85 3.71,28.15 7.77,57.19 12.14,87.08 4.38,29.89 9.46,59.54 15.23,88.88 5.76,29.3 12.75,57.08 17.6,80.99 2.72,13.44 4.94,28.73 7.9,43.97 2.95,15.22 6.45,26.85 8.14,33.46 1.61,6.29 1.73,13.18 1.65,18.43 -0.09,5.27 -0.14,8.47 -0.15,9.65 -2.65,2.28 -6.15,-1.28 -10.5,-10.69 -4.38,-9.44 -7.75,-19.42 -10.12,-29.99 z m -302.22,-405.15 c 6.92,9.71 14.85,24.15 23.87,43.33 9,19.13 18.31,39.76 27.94,61.86 9.61,22.08 19.04,43.85 28.21,65.29 9.16,21.42 17.66,41.12 26.09,57.21 9.9,18.89 18.18,38.7 22.54,58.75 4.36,20.02 8.43,40.66 12.18,61.84 3.75,21.16 8.46,42.4 14.23,63.64 5.74,21.24 14.14,41.96 25.21,62.2 1.21,2.36 -1.09,3.18 -6.9,2.41 -5.8,-0.76 -11.92,-3 -18.28,-6.72 -25.53,-13.72 -47.58,-30.04 -66.21,-48.91 -18.63,-18.89 -35.68,-42.72 -51.03,-71.51 -5.94,-10.8 -12.02,-24.85 -18.2,-42.09 -6.22,-17.27 -12.37,-35.13 -18.41,-53.56 -6.08,-18.47 -11.13,-37.46 -15.16,-56.96 -4.04,-19.51 -6.8,-37.09 -8.6,-52.24 -0.84,-7.02 -1.24,-18.23 -1.05,-33.41 0.17,-15.22 0.72,-31 1.59,-47.33 0.88,-16.36 1.67,-31.24 2.39,-44.64 0.72,-13.44 1.81,-22.46 3.3,-27.04 0.93,-3.46 1.4,-5.2 2.32,-8.66 5.58,6.62 8.37,9.93 13.97,16.54 z m -81.19,179.88 c 3.9,25.38 10.08,54.16 19.82,84.56 9.75,30.42 17.22,57.43 22.39,81.13 -7.68,-0.41 -14.66,-8.42 -20.81,-23.96 -6.18,-15.57 -11.56,-33.14 -16.16,-52.73 -4.6,-19.58 -8.25,-38.24 -11.01,-55.97 -2.74,-17.72 -3.92,-29.52 -3.57,-35.34 -0.99,-25.84 -0.83,-38.7 0.43,-38.62 1.24,0.07 4.78,14.13 8.91,40.93 z m -39.27,143.4 c 6.58,17.98 8.93,26.9 7.01,26.79 -1.92,-0.12 -7.86,-11.07 -18.28,-31.01 -11.95,-22.85 -21.15,-43.84 -25.66,-62.29 -4.51,-18.47 -5.62,-46.34 -4.95,-82.04 0.37,-19.64 1.34,-29.21 3.78,-27.86 2.18,4.81 3.18,9 2.95,12.5 -0.32,4.64 0.63,13.79 2.89,27.42 2.23,13.61 5.03,28.73 8.41,45.37 3.36,16.61 7.37,33.25 12.06,49.98 4.67,16.68 8.62,30.41 11.79,41.14 z m 672.7,-55.42 c 11.39,-2.44 19.92,-8.08 25.52,-16.91 5.61,-8.82 7.06,-18.49 4.43,-28.97 -0.02,-1.19 -1.99,-7.87 -5.91,-20.11 -3.91,-12.23 -9.45,-28.25 -16.52,-48.05 -7.09,-19.83 -14.78,-43.13 -23.04,-69.95 -8.29,-26.84 -16.18,-54.86 -23.69,-84.03 -17.58,-65.4 -37.45,-117.66 -59.78,-156.87 -22.37,-39.22 -46.56,-67.98 -72.76,-86.37 -26.25,-18.38 -53.91,-26.98 -83.28,-25.81 -29.4,1.17 -60.41,9.46 -93.33,24.85 -14.62,6.58 -26.66,15.83 -36.11,27.79 -9.46,11.96 -18.18,28.01 -26.2,48.2 -8.02,20.15 -15.64,44.75 -22.88,73.69 -7.24,28.93 -14.82,64.35 -22.7,106.14 -3.34,-9.26 -5,-13.9 -8.31,-23.16 -5.54,-15.45 -11.67,-30.33 -18.41,-44.67 -6.72,-14.34 -18.95,-28.92 -36.58,-43.82 -11.76,-9.95 -23.34,-16.38 -34.78,-19.31 -11.46,-2.96 -26.18,-6.11 -42.62,-7.6 -11.75,-1.07 -21.63,-1.26 -28.31,-1.66 -6.69,-0.4 -13.15,0.34 -19.38,2.32 -14.89,3.74 -27.1,7.94 -36.59,12.58 -9.49,4.64 -18.8,10.74 -27.89,18.32 -24.68,19.37 -43.3,50.8 -55.86,94.42 -12.57,43.59 -19.33,90.87 -20.04,141.79 -0.7,50.92 5.28,102.09 18.18,153.42 12.91,51.31 32.42,95.01 58.65,130.58 30.82,41.81 70.56,77.37 118.79,106.23 48.21,28.87 98.02,46.11 147.1,53.12 59.51,8.5 112.84,6.55 157.73,-7.69 14.52,-4.37 26.05,-8.25 34.64,-11.6 8.56,-3.35 16.85,-9.09 24.8,-17.13 4,-4.63 7.92,-5.15 11.8,-1.58 2.57,2.36 8.83,0.39 18.69,-5.9 9.86,-6.3 16.37,-15.54 20.81,-23.45 4.99,-8.9 11.26,-21.55 13.98,-36.69 2.73,-15.16 1.44,-30.9 0.37,-43.83 -0.96,-11.67 -2.32,-32.48 -7.21,-58.8 -4.88,-26.34 -10.69,-55.93 -17.31,-88.73 -6.64,-32.81 -13.81,-67.39 -21.49,-103.71 -7.71,-36.36 -14.69,-71.23 -20.99,-104.64 -6.31,-33.42 -11.66,-63.95 -16.09,-91.47 -4.44,-27.54 -5.71,-49.16 -6.24,-62.36 -0.79,-19.93 -2.62,-39.51 -1.71,-55.27 0.91,-15.76 4.43,-26.52 10.63,-32.25 3.71,-4.62 8.27,-5.99 13.7,-4.14 5.43,1.84 10.83,4.83 16.23,9.02 5.39,4.15 10.48,9.18 15.27,15.1 4.77,5.91 8.98,11.21 12.57,15.94 10.74,18.81 20.91,38.19 30.56,58.16 9.63,19.94 21.95,50.52 36.37,91.39 9.86,27.92 18.72,54.99 26.82,80.72 8.07,25.71 14.99,48.51 20.66,68.38 5.68,19.86 11.69,42.07 18.11,66.59 2.55,10.51 8.61,18.39 18.15,23.6 9.55,5.21 20.06,6.61 31.45,4.18"
         style="fill:#231f20;fill-opacity:1;fill-rule:nonzero;stroke:none"
         id="path16"
          /><path
         d="m 3207.5,3933.28 c -2.37,5.93 -7.62,1.72 -15.75,-12.62 -8.14,-14.36 -16.66,-31.94 -25.53,-52.68 -8.89,-20.78 -17.08,-41.02 -24.56,-60.67 -7.5,-19.69 -11.9,-31.85 -13.26,-36.48 -17.23,-33.46 -31.33,-61.78 -42.4,-84.88 -11.09,-23.14 -19.9,-44.32 -26.44,-63.45 -6.56,-19.15 -10.89,-36.92 -13.03,-53.24 -2.16,-16.34 -3.38,-33.26 -3.7,-50.79 -0.23,-12.62 -0.35,-18.93 -0.58,-31.55 0.92,9.81 1.37,14.71 2.29,24.52 10.62,47.72 25.79,100.33 45.73,157.75 19.95,57.41 51.02,127.08 94.35,208.73 6.78,13.8 12.6,26.16 17.46,37.13 4.84,10.93 6.64,17.01 5.42,18.23 z m -178.65,-263.75 c -15.49,-36 -24.48,-63.95 -27.21,-83.76 -2.74,-19.85 -4.87,-39.94 -8.12,-57.76 -1.04,-5.67 -1.68,-11.11 -1.12,-15.76 0.56,-4.67 0.8,-8.78 0.75,-12.29 -0.06,-4.91 -0.09,-7.36 -0.15,-12.27 2.39,-2.39 4.25,-1.23 5.52,3.43 1.27,4.62 2.8,19.28 6.06,42 5.58,38.83 19.34,88.86 38.42,147.56 19.06,58.68 43.75,116.93 74.38,174.63 5.28,9.21 9.97,18.16 14.01,26.82 4.04,8.66 7.28,16.22 10.14,21.65 3.54,6.76 7.37,13.82 10.14,20.76 -1.28,0.03 -7.36,-10.92 -18.11,-32.82 -10.79,-21.94 -23.14,-47.04 -37.05,-75.36 -13.9,-28.34 -27.39,-56.68 -40.42,-85.06 -13.04,-28.42 -22.09,-49.01 -27.24,-61.77 z m -99.11,250.07 c 6.59,40.86 14.21,80.85 22.93,119.96 8.69,39.07 6.14,73.87 -7.98,104.38 -6.63,-12.83 -11.56,-23.62 -14.84,-32.34 -3.29,-8.74 -6.14,-16.44 -8.88,-21.88 -3.44,-6.83 -7.21,-19.28 -9.86,-36.78 -2.65,-17.51 -4,-35.35 -4.06,-53.46 -0.05,-18.13 1.51,-35.08 4.64,-50.86 3.13,-15.78 9.14,-25.46 18.05,-29.02 z m 551.28,-61.26 c 9.3,-3.33 17.5,-9.64 22.52,-19.92 5.03,-10.3 5.62,-21.04 0.92,-29.05 -5.72,-9.76 -17.52,-30.19 -31.38,-60.32 -13.89,-30.17 -29.79,-64.61 -47.62,-103.34 -17.85,-38.76 -37.77,-79.5 -59.65,-122.2 -21.88,-42.71 -44.86,-81.94 -68.87,-117.67 -24.02,-35.73 -49.02,-65.93 -75.09,-90.66 -26.06,-24.71 -53.1,-38.94 -80.09,-41.11 -49.11,-3.95 -89.29,4.62 -118.15,23.79 -28.89,19.2 -49.78,45.43 -62.68,78.84 -12.9,33.43 -19.32,71.45 -19.01,114.13 0.31,42.66 5.19,85.88 14.83,129.63 9.64,43.75 22.8,86.3 39.59,127.57 16.79,41.25 35.01,76.94 54.55,106.99 6.49,9.23 11.76,18.77 15.76,28.63 4.02,9.84 5.37,14.8 4.12,14.83 -1.5,-10.49 -8.08,-22.06 -19.72,-34.69 -11.64,-12.67 -26.37,-23.51 -44.17,-32.61 -17.82,-9.11 -37.42,-14.72 -58.83,-16.9 -21.45,-2.18 -43.31,3.3 -64.26,12.54 -30.89,13.64 -55.03,36.99 -66.69,72.59 -11.67,35.57 -16.48,72.94 -14.21,112.11 2.28,39.16 10.73,75.5 25.51,108.87 14.79,33.38 32.22,54.71 51.75,64.11 14.4,6.93 30.51,11.08 48.19,12.14 17.69,1.07 34.45,0.05 50.14,-3.03 15.68,-3.08 30.05,-8.83 43.01,-17.2 12.94,-8.36 22.14,-18.57 26.95,-30.25 7.64,-18.51 10.28,-43.17 8.43,-72.92 -1.85,-29.77 -8.87,-59.19 -20.9,-88.19 16.87,12.57 34.48,25.69 52.84,39.31 18.34,13.62 34.05,21.39 47.04,23.4 62.27,8.84 103.61,3.08 123.48,-16.4 19.87,-19.48 18.81,-60.12 -2.9,-120.96 -12.74,-35.68 -27.48,-76.15 -43.56,-121.17 -16.08,-45.02 -30.14,-91.36 -42.17,-138.91 -12.06,-47.59 -20.52,-94.69 -25.56,-141.3 -5.04,-46.64 -2.59,-89.38 7.04,-128.27 8.61,6.76 17.88,14.35 27.85,22.79 9.93,8.44 20.29,19.75 31.12,33.98 10.81,14.21 23.02,31.58 36.67,52.09 13.63,20.5 29.4,45.65 46.41,75.21 18.81,32.69 36.09,65.88 52.04,98.42 15.94,32.53 30.03,61.65 42.1,87.32 12.06,25.65 25.38,55.05 40.01,88.18 3.06,9.17 10.12,15.78 21.18,19.81 11.03,3.99 21.85,3.24 31.46,-0.21"
         style="fill:#231f20;fill-opacity:1;fill-rule:nonzero;stroke:none"
         id="path18"
          /><path
         d="m 3592.64,4319.95 c 1.38,1.05 3.43,1.51 6.1,1.32 3.99,-0.29 2.73,-3.77 -2.76,-10.36 -4.42,-5.31 -5.61,-8.38 -3.61,-8.52 1.98,-0.15 6.48,2.44 13.57,7.8 7.05,5.33 12.91,7.83 17.59,7.47 4.63,-0.34 6.74,-3.44 6.3,-9.26 -0.36,-4.67 1.6,-5.39 5.84,-2.21 7.06,5.32 10.76,5.32 11.01,0.03 0.26,-5.28 7.02,-10.12 9.91,-13.96 2.91,-3.87 5.23,-9.82 9.38,-7.78 6.62,-0.53 13.56,-5.49 20.77,-14.88 7.22,-9.39 11.85,-18.27 11.92,-24.74 0.07,-6.35 -7.09,-14.08 -15.73,-21.57 -8.59,-7.46 -13.11,-14.76 -13.4,-18.26 0.92,-4.77 -2.07,-9.22 -9,-13.35 -6.95,-4.13 -12.27,-4.88 -16.01,-2.24 -3.73,2.64 -6.66,2.77 -7.87,0.62 -1.7,-3.03 -4.03,-4.96 -7.29,-4.71 -3.28,0.25 -5.87,3.48 -8.32,7.66 -2.79,4.76 -5.54,5.09 -5.89,0.45 -0.71,-9.34 -5.44,-10.73 -14.17,-4.21 -2.47,2.52 -4.68,3.56 -6.69,3.13 -2.02,-0.45 -6.22,0.73 -12.6,3.55 -35.49,20.14 -49.65,47.32 -40.2,78.38 4.44,14.59 11.45,26.74 19.4,35.58 7.93,8.82 15.84,11.77 23.65,8.88 2.56,-1.36 5.25,-0.97 8.1,1.18 z m -176.39,-782.6 c -1.17,1.23 -1.57,4.76 -1.23,10.61 0.35,5.83 0.11,12.31 -0.7,19.37 -0.81,7.06 -1.28,14.7 -1.43,22.91 -0.13,8.19 -0.68,14.67 -1.64,19.41 0.93,16.11 1.4,24.16 2.34,40.27 0.49,8.4 0.73,12.6 1.22,21 -1.36,-2.28 -1.6,-6.09 -2.38,-8.65 -0.59,-1.93 -2.18,-5.43 -2.41,-9.52 -0.24,-4.1 -1.49,-8.65 -2.62,-13.01 -2.21,-8.55 -3.21,-18.27 -4.33,-26.97 -1.12,-8.71 -1.18,-15.47 -0.23,-20.19 -0.2,-3.5 0.13,-8.79 0.94,-15.85 0.83,-7.08 1.97,-13.89 3.44,-20.41 1.47,-6.53 2.98,-12.18 4.54,-16.95 1.56,-4.78 2.94,-7.19 4.18,-7.26 0.12,2.1 0.18,3.14 0.31,5.24 z m 483.13,293.7 c 9.76,-3.26 17.84,-9.61 23.85,-18.5 6.02,-8.88 7.18,-18.44 3.51,-28.61 -0.27,-2.35 -6.47,-20.44 -18.45,-54.4 -12.01,-33.95 -29.23,-73.23 -51.47,-117.86 -11.13,-22.34 -25.11,-48.77 -41.85,-79.36 -16.78,-30.61 -36.56,-59.14 -59.34,-85.68 -22.77,-26.58 -47.97,-48.55 -75.6,-66.02 -27.67,-17.49 -58.15,-24.83 -91.73,-22.16 -66.01,5.26 -118.35,27.18 -157.78,66.49 -39.44,39.32 -60.99,91.82 -63.42,157.32 -1.04,28.04 1.23,57.88 6.64,89.19 5.42,31.32 16.18,70.67 28.93,116.06 8.53,30.36 16.63,59.34 25.74,84.58 9.11,25.21 19.59,51.53 31.56,78.91 3.05,7.99 7.64,19.74 13.75,35.17 6.1,15.4 12.58,30.82 19.39,46.2 6.82,15.38 13.57,29.27 20.24,41.73 6.68,12.43 12.09,20.28 16.23,23.52 8.19,5.29 18.04,6.07 29.53,2.35 11.48,-3.74 18.53,-5.13 21.24,-4.15 6.9,5.34 9.46,4.59 7.67,-2.32 -0.21,-2.79 -0.31,-4.19 -0.52,-6.99 6.99,6.52 11.86,10.54 14.6,12.09 2.72,1.57 5.36,1.65 7.86,0.3 2.49,-1.34 5.04,-2.44 7.6,-3.22 2.53,-0.78 7.51,-4.39 14.83,-10.82 4.51,-2.46 6.76,-3.69 11.26,-6.16 -0.27,-13.34 -0.41,-20.02 -0.69,-33.36 -0.68,-41.01 -5.89,-81.62 -15.49,-121.89 -9.61,-40.3 -20.37,-80.21 -32.25,-119.72 -11.89,-39.52 -22.78,-79.46 -32.62,-119.74 -9.87,-40.31 -15.05,-82.13 -17.47,-123.54 -0.6,-10.34 -0.22,-24.33 1.58,-41.43 1.81,-17.11 5.85,-32.96 12.09,-47.49 6.23,-14.54 15.18,-25.18 26.82,-31.96 11.62,-6.77 26.93,-5.65 45.98,3.31 25.38,11.96 49.61,33.86 72.82,65.8 23.21,31.92 44.1,66.34 62.64,103.3 18.52,36.96 35.01,73.48 49.4,109.64 14.35,36.14 24.21,65.22 30.55,85 3.2,10.01 10.45,17.72 20.53,22.54 10.07,4.81 20.92,5.53 31.84,1.88"
         style="fill:#231f20;fill-opacity:1;fill-rule:nonzero;stroke:none"
         id="path20"
          /><path
         d="m 4397.72,3902.05 c -10.85,-26.67 -23.1,-58.75 -36.79,-96.23 -13.69,-37.5 -26.29,-74.85 -37.85,-112.08 -11.54,-37.24 -21.56,-71.17 -30.07,-101.8 -8.52,-30.62 -13.72,-52.29 -15.67,-65 -1.25,-8.09 -0.91,-9.92 1.03,-5.47 5.64,20.41 12.75,44.15 21.38,71.2 8.62,27.05 17.73,54.93 27.31,83.59 9.58,28.64 19.81,56.94 30.67,84.8 10.84,27.83 22.63,53.94 31.63,76.62 5.05,12.76 9.93,27.41 15.53,41.9 5.59,14.46 11.1,25.29 13.94,31.49 2.69,5.91 4.02,12.68 4.86,17.86 0.85,5.2 1.36,8.36 1.55,9.52 -2.21,2.72 -6.29,-0.17 -12.24,-8.67 -6,-8.52 -11.07,-17.75 -15.28,-27.73 z m -369.49,-345.59 c 8.53,8.34 18.89,21.16 31.16,38.45 12.24,17.25 25.05,35.92 38.44,55.98 13.36,20.04 26.49,39.82 39.31,59.31 12.8,19.46 24.65,37.37 35.8,51.72 13.09,16.85 24.74,34.89 32.58,53.86 7.81,18.94 15.47,38.55 22.89,58.73 7.42,20.17 15.81,40.25 25.24,60.14 9.4,19.9 21.33,38.81 35.82,56.79 1.6,2.11 -0.51,3.32 -6.38,3.59 -5.87,0.27 -12.3,-0.86 -19.22,-3.39 -27.61,-9.02 -52.24,-21.2 -73.94,-36.49 -21.7,-15.32 -42.72,-35.77 -62.92,-61.41 -7.76,-9.58 -16.22,-22.35 -25.35,-38.23 -9.17,-15.91 -18.37,-32.4 -27.58,-49.48 -9.24,-17.11 -17.56,-34.92 -24.97,-53.41 -7.41,-18.49 -13.22,-35.31 -17.66,-49.91 -2.06,-6.76 -4.44,-17.72 -6.92,-32.71 -2.5,-15.01 -4.74,-30.63 -6.75,-46.87 -2.01,-16.25 -3.85,-31.05 -5.5,-44.37 -1.65,-13.35 -2.16,-22.42 -1.5,-27.19 0.31,-3.57 0.46,-5.36 0.77,-8.93 6.66,5.53 10,8.3 16.68,13.82 z m -48.41,191.37 c 8.32,24.3 19.47,51.54 34.42,79.75 14.95,28.23 27.08,53.5 36.34,75.93 -7.65,0.94 -15.93,-5.71 -24.73,-19.93 -8.84,-14.24 -17.23,-30.59 -25.2,-49.06 -7.98,-18.47 -14.87,-36.19 -20.7,-53.16 -5.82,-16.97 -9.05,-28.38 -9.73,-34.17 -5.53,-25.26 -7.63,-37.95 -6.37,-38.09 1.23,-0.15 7.19,13.07 15.97,38.73 z m -13.48,148.07 c 9.64,16.54 13.53,24.91 11.62,25.13 -1.91,0.23 -9.69,-9.51 -23.47,-27.3 -15.8,-20.39 -28.55,-39.44 -36.24,-56.81 -7.69,-17.39 -13.68,-44.63 -19.3,-79.89 -3.09,-19.4 -3.82,-28.99 -1.18,-28.09 3,4.35 4.72,8.3 5.1,11.78 0.51,4.63 3.05,13.47 7.67,26.5 4.6,12.99 10.01,27.39 16.27,43.17 6.23,15.77 13.11,31.44 20.67,47.08 7.54,15.6 13.84,28.42 18.86,38.43 z m 654.26,-173.15 c 10.83,-4.41 18.27,-11.47 22.25,-21.15 4,-9.68 3.73,-19.45 -0.72,-29.31 -0.22,-1.16 -3.35,-7.39 -9.38,-18.75 -6.02,-11.34 -14.31,-26.14 -24.78,-44.38 -10.5,-18.26 -22.2,-39.84 -35.09,-64.78 -12.92,-24.96 -25.64,-51.15 -38.2,-78.54 -28.88,-61.27 -57.72,-109.21 -86.68,-143.86 -29,-34.65 -57.97,-58.7 -87.09,-72.17 -29.15,-13.47 -57.99,-17.05 -86.78,-10.72 -28.82,6.34 -57.98,19.96 -87.76,40.92 -13.27,9.05 -23.53,20.28 -30.75,33.71 -7.23,13.44 -13.01,30.78 -17.37,52.06 -4.37,21.26 -7.56,46.81 -9.62,76.58 -2.05,29.75 -3.29,65.95 -3.72,108.48 -4.91,-8.53 -7.37,-12.8 -12.27,-21.34 -8.18,-14.23 -16.84,-27.79 -26.01,-40.73 -9.16,-12.93 -23.79,-25.13 -43.79,-36.7 -13.34,-7.72 -25.9,-12.01 -37.69,-12.88 -11.82,-0.89 -26.88,-1.4 -43.36,0.02 -11.77,1.02 -21.54,2.57 -28.19,3.35 -6.67,0.78 -12.91,2.65 -18.7,5.69 -14.02,6.3 -25.31,12.58 -33.84,18.82 -8.54,6.23 -16.64,13.88 -24.27,22.94 -20.9,23.41 -33.72,57.62 -38.42,102.77 -4.71,45.12 -3.06,92.86 5.19,143.1 8.27,50.26 23.15,99.58 44.89,147.85 21.74,48.23 48.65,87.82 80.74,118.22 37.73,35.74 83.15,63.75 135.78,83.68 52.61,19.93 104.77,28.13 154.43,26.39 60.21,-2.12 112.51,-13.44 154.33,-35.37 13.57,-6.86 24.26,-12.71 32.16,-17.53 7.87,-4.81 15.04,-11.92 21.48,-21.24 3.14,-5.26 6.92,-6.46 11.38,-3.64 2.95,1.88 8.77,-1.17 17.41,-9.1 8.64,-7.96 13.44,-18.19 16.43,-26.75 3.37,-9.65 7.34,-23.21 7.37,-38.59 0.02,-15.41 -4.03,-30.68 -7.35,-43.21 -3.01,-11.32 -8.01,-31.57 -17.47,-56.62 -9.46,-25.06 -20.41,-53.17 -32.71,-84.28 -12.34,-31.13 -25.5,-63.91 -39.48,-98.3 -14.01,-34.43 -27.04,-67.53 -39.14,-99.31 -12.12,-31.79 -22.77,-60.89 -31.99,-87.2 -9.22,-26.33 -14.28,-47.39 -17.12,-60.29 -4.29,-19.48 -9.54,-38.44 -11.42,-54.11 -1.87,-15.67 -0.29,-26.88 4.82,-33.62 2.86,-5.2 7.12,-7.36 12.8,-6.49 5.69,0.85 11.55,2.84 17.62,6.01 6.05,3.14 11.96,7.19 17.74,12.18 5.74,4.97 10.84,9.45 15.22,13.47 13.91,16.62 27.37,33.9 40.42,51.86 13.02,17.93 30.57,45.86 52.02,83.54 14.65,25.75 28.16,50.83 40.7,74.73 12.5,23.88 23.34,45.1 32.44,63.66 9.11,18.54 18.96,39.34 29.62,62.36 4.37,9.89 11.75,16.57 22.1,20.01 10.35,3.45 20.98,2.97 31.82,-1.44"
         style="fill:#231f20;fill-opacity:1;fill-rule:nonzero;stroke:none"
         id="path22"
          /><path
         d="m 1708.69,2551.7 c -12.37,-39.32 -35.29,-94.79 -70.58,-164.53 -4.01,-8.12 -7.64,-16 -10.95,-23.68 -3.31,-7.68 -6.93,-14.02 -10.08,-18.85 -3.68,-5.66 -6.64,-12.02 -9.06,-18.2 -0.21,-1.08 0.29,-1.72 1.48,-1.95 1.19,-0.23 4.11,3.63 8.73,11.62 4.6,7.97 10.1,17.45 16.51,28.44 6.38,10.96 12.93,23.01 19.69,36.15 6.73,13.12 12.14,24.3 16.31,33.5 9.84,20.3 18.52,41.11 26.04,62.42 7.52,21.29 12.86,39.24 16.81,52.52 4.88,16.41 7.32,25.5 5.7,26.35 -1.61,0.85 -5.39,-7.22 -10.6,-23.79 z m -16.77,34.66 c -0.55,3.42 -0.93,4.58 -1.12,3.53 -1.21,-6.42 -4.44,-17.46 -9.77,-33.05 -5.32,-15.6 -11.82,-32.69 -19.53,-51.15 -7.72,-18.45 -16.21,-37.63 -25.47,-57.46 -9.28,-19.84 -17.84,-37.38 -25.68,-52.41 -11.54,-22.09 -16.56,-34.48 -14.61,-37.07 1.95,-2.59 11.82,14.23 29.79,49.1 14.96,29.04 27.53,54.85 36.53,76.97 8.99,22.09 18.04,44.48 22.95,64.62 1.7,6.99 3.04,14.66 4.92,21.5 1.88,6.83 2.52,11.99 1.99,15.42 z m -51.98,133.09 c -11.99,-13.17 -21.02,-28.82 -27.05,-47.02 -6.06,-18.22 -12.92,-46.53 -18.73,-83.66 -9.13,-58.43 -11.71,-111.46 -9.65,-156.25 1.7,-15.9 3.46,-22.62 5.17,-20.17 1.69,2.42 9.86,18.88 24.35,49.29 24.63,51.7 41.37,98.42 50.5,139.87 9.14,41.45 9.58,74.62 1.56,99.47 -1.22,5.78 -4.05,12.18 -8.51,19.13 -4.46,6.96 -10.33,6.75 -17.64,-0.66 z m 273.68,-246.53 c 10.15,-3.72 17.86,-10.07 23.13,-19.09 5.23,-9.01 6.02,-18.19 2.28,-27.55 -16.1,-44.96 -42.71,-86.78 -80.44,-125.01 -16,-16.27 -36.1,-32.67 -60.4,-49.13 -24.33,-16.48 -54.32,-29.33 -86.9,-34.25 -44.05,-6.66 -89.53,0.54 -130.24,17.32 -9.28,-12.84 -13.93,-19.25 -23.27,-32.06 -0.13,-0.64 -0.19,-0.96 -0.32,-1.6 -18.23,-21.95 -40.17,-44.48 -66.02,-67.53 -25.85,-23.04 -46.85,-38.4 -62.71,-46.15 -24.25,-10.44 -50.41,-15.64 -78.41,-15.52 -28.02,0.14 -55.47,6.87 -81.15,17.76 -26.68,11.32 -50.65,26.38 -69.31,46.13 -18.65,19.75 -33.03,41.66 -43.16,65.58 -10.13,23.91 -17.14,49.39 -21.05,76.28 -3.9,26.89 -4.58,54.27 -2.49,81.71 1.01,13.19 2.54,31.13 4.75,53.64 2.22,22.49 5.03,47.1 8.45,73.81 3.42,26.68 7.02,53.9 10.82,81.62 3.79,27.73 8.04,54.12 12.14,78.75 8.92,53.6 16.53,91.66 23.53,112.89 7,21.2 17.68,36.05 31.9,44.62 5.56,2.99 11.3,5.41 17.15,7.22 5.84,1.82 8.47,1.67 7.91,-0.42 0.81,-1.35 -1.29,-6.03 -5.45,-13.75 -5.16,-9.57 -7.3,-14.95 -6.72,-15.11 0.55,-0.14 3.91,4.63 10.06,14.22 8,12.45 13.78,18.29 17.11,17.41 4.7,-0.13 5.81,-2.66 3.34,-7.63 -0.56,-2.12 -1.4,-5.28 -2.5,-9.48 -1.11,-4.21 -1.67,-8.58 -1.65,-13.07 0.17,-4.77 0.26,-7.15 0.44,-11.92 1.5,2.98 2.25,4.47 3.74,7.45 5.54,12.06 11.78,21.1 18.7,27.17 6.92,6.06 10.92,6.71 12.07,1.94 0.81,-1.35 5.28,-2.49 13.32,-3.43 8.02,-0.93 11.95,-4.18 11.73,-9.72 3.29,3.64 10.44,0.89 19.25,-8.22 6.47,-6.69 12.15,-14.25 16.98,-21.04 4.83,-6.79 8.49,-14.99 10.91,-24.53 2.41,-9.54 4.42,-20.99 5.99,-34.21 1.57,-13.23 2.87,-29.74 4.41,-48.92 1.47,-18.15 1.79,-42.97 0.56,-73.96 -1.24,-31 -3.46,-74.79 -6.77,-130.88 -2.98,-50.54 -5.25,-92.63 -6.55,-125.81 -1.3,-33.19 -2.15,-60.65 -2.59,-82.3 -0.44,-21.64 -0.32,-39.55 0.35,-53.63 0.68,-14.12 2.17,-27.55 4.5,-40.32 27.28,18.45 50.34,36.29 69.27,53.39 18.95,17.08 38.55,37.97 58.76,62.71 -20.37,23.11 -35.31,48.57 -44.91,76.25 -9.61,27.68 -14.42,59.42 -15.76,93.72 -0.87,22.26 -0.26,48.55 2.68,78.02 2.96,29.45 8.46,59.18 16.41,89.17 7.94,29.99 18.7,57.97 32.22,83.97 13.49,25.98 30.17,46.81 50,62.56 13.92,10.34 29.82,17.78 47.65,22.38 17.82,4.6 35.27,6.28 52.4,5.06 17.11,-1.24 33.79,-5.91 50.15,-14.05 16.34,-8.14 30.51,-20.66 42.78,-35.5 10.86,-13.14 18.88,-28.35 22.2,-45.53 3.3,-17.19 4.28,-34.78 2.84,-52.75 -1.44,-17.99 -4.34,-36.01 -8.72,-54 -4.38,-18.02 -9.12,-34.97 -14.36,-50.51 -12.23,-36.35 -28.03,-72.69 -46.73,-108.52 -18.71,-35.85 -39.18,-76.61 -61.45,-122.25 -0.12,-0.64 -0.18,-0.96 -0.3,-1.6 10.38,-4.19 21.1,-6.73 32.11,-7.65 10.99,-0.92 22.2,-0.73 33.58,0.56 23.14,4.7 44.08,13.22 62.77,25.52 18.69,12.27 33.88,24.65 45.69,37.06 30.78,31.35 52.33,64.88 65.07,100.36 3.84,9.31 10.3,16.27 19.4,20.95 9.04,4.64 18.68,5.12 28.83,1.4"
         style="fill:#231f20;fill-opacity:1;fill-rule:nonzero;stroke:none"
         id="path24"
          /><path
         d="m 2048.53,2884.03 c 1.22,0.91 2.93,1.25 5.13,0.95 3.27,-0.45 2.02,-3.63 -2.96,-9.49 -4.03,-4.75 -5.21,-7.52 -3.57,-7.74 1.64,-0.23 5.55,1.96 11.76,6.63 6.18,4.65 11.17,6.74 15.01,6.23 3.81,-0.51 5.37,-3.47 4.66,-8.86 -0.57,-4.32 1,-5.07 4.7,-2.27 6.16,4.68 9.21,4.55 9.12,-0.36 -0.08,-4.92 5.28,-9.78 7.47,-13.31 2.36,-3.81 3.83,-9.28 7.4,-7.52 5.48,-0.69 11,-5.51 16.59,-14.42 5.6,-8.92 9.1,-17.24 8.89,-23.3 -0.22,-5.97 -6.62,-12.96 -14.2,-19.64 -7.66,-6.74 -12.19,-13.72 -12.2,-16.58 0,-3.94 -2.2,-8.52 -8.29,-12.12 -6.14,-3.61 -10.71,-4.14 -13.78,-1.53 -3.05,2.58 -5.51,2.82 -6.66,0.86 -1.63,-2.78 -3.72,-4.45 -6.48,-4.09 -2.8,0.36 -4.79,3.43 -6.66,7.45 -2.1,4.52 -4.44,4.97 -5.01,0.67 -1.15,-8.65 -5.28,-9.75 -12.32,-3.29 -1.96,2.45 -3.79,3.53 -5.52,3.22 -1.73,-0.32 -5.25,0.97 -10.51,3.9 -28.91,20.46 -38.66,46.51 -28.34,74.89 4.84,13.29 11.57,24.15 18.81,31.93 7.21,7.77 13.95,10.13 20.19,7.08 2.02,-1.39 4.27,-1.16 6.77,0.71 z m -219.46,-713.65 c -1.07,1.24 -1.17,4.57 -0.33,9.96 0.84,5.37 1.14,11.41 0.94,18.03 -0.21,6.63 -0.01,13.77 0.54,21.4 0.57,7.6 0.6,13.66 0.05,18.17 2.32,14.84 3.49,22.25 5.81,37.09 1.21,7.74 1.82,11.62 3.03,19.36 -1.51,-1.98 -2.1,-5.52 -3.06,-7.78 -0.74,-1.73 -2.6,-4.83 -3.2,-8.59 -0.59,-3.78 -2.21,-7.89 -3.69,-11.81 -2.91,-7.68 -4.78,-16.62 -6.67,-24.57 -1.87,-7.95 -2.53,-14.22 -2.01,-18.69 -0.51,-3.23 -0.65,-8.17 -0.47,-14.8 0.2,-6.65 0.74,-13.08 1.65,-19.27 0.89,-6.2 1.92,-11.61 3.08,-16.18 1.16,-4.58 2.34,-6.97 3.58,-7.17 0.3,1.94 0.45,2.91 0.75,4.85 z m 475.45,254.52 c 9.08,-2.85 16.7,-8.57 22.51,-16.69 5.81,-8.12 7.16,-16.98 3.99,-26.56 -0.18,-2.18 -5.44,-19.2 -15.94,-51.07 -10.52,-31.88 -26.04,-68.79 -46.89,-110.6 -10.46,-20.93 -23.75,-45.65 -40.04,-74.15 -16.33,-28.52 -36,-55.02 -59.15,-79.42 -23.16,-24.44 -49.24,-44.36 -78.16,-59.68 -28.96,-15.34 -61.12,-20.83 -96.15,-16.37 -68.88,8.77 -122.54,33.9 -160.15,74.29 -37.62,40.4 -54.34,91.63 -50.41,152.56 1.69,26.08 6.88,53.46 15.2,81.88 8.31,28.42 22.49,63.73 38.78,104.55 10.88,27.29 21.12,53.38 31.81,75.96 10.69,22.55 22.62,46.04 35.79,70.46 3.44,7.17 8.58,17.69 15.35,31.52 6.77,13.82 13.81,27.64 21.09,41.42 7.28,13.77 14.32,26.19 21.15,37.31 6.81,11.1 12.14,18.04 15.98,20.79 7.54,4.39 16.19,4.54 25.95,0.44 9.76,-4.1 15.85,-5.77 18.28,-5.01 6.35,4.62 8.53,3.79 6.54,-2.53 -0.35,-2.59 -0.53,-3.88 -0.88,-6.47 6.52,5.71 11,9.23 13.49,10.54 2.46,1.32 4.77,1.27 6.88,-0.1 2.09,-1.35 4.26,-2.48 6.44,-3.31 2.17,-0.84 6.31,-4.41 12.4,-10.68 3.82,-2.47 5.73,-3.7 9.55,-6.16 -0.89,-12.4 -1.33,-18.6 -2.22,-30.99 -2.55,-38.09 -9.02,-75.67 -19.64,-112.69 -10.65,-37.06 -22.5,-73.65 -35.62,-109.8 -13.14,-36.15 -25.58,-72.65 -37.24,-109.5 -11.68,-36.89 -19.11,-75.46 -23.72,-113.77 -1.15,-9.57 -1.51,-22.61 -0.57,-38.64 0.94,-16.04 4.24,-31.04 9.91,-44.97 5.67,-13.94 14.37,-24.42 26.04,-31.41 11.67,-6.99 27.5,-6.79 47.26,0.67 26.33,9.94 51.48,29.48 75.23,58.6 23.76,29.1 44.72,60.8 62.95,95.02 18.23,34.22 34.05,68.16 47.59,101.84 13.51,33.66 22.52,60.82 28.28,79.28 2.91,9.34 9.58,16.56 18.88,21.18 9.29,4.6 19.29,5.45 29.46,2.26"
         style="fill:#231f20;fill-opacity:1;fill-rule:nonzero;stroke:none"
         id="path26"
          /><path
         d="m 2750.86,2528.33 c -6.29,-26 -13.3,-57.16 -21.14,-93.44 -7.84,-36.31 -14.91,-72.33 -21.18,-108.09 -6.27,-35.77 -11.64,-68.29 -16.07,-97.57 -4.42,-29.27 -6.84,-49.89 -7.18,-61.86 -0.21,-7.62 0.34,-9.27 1.69,-4.94 2.98,19.51 6.95,42.28 11.87,68.27 4.91,25.98 10.1,52.81 15.55,80.44 5.43,27.62 11.41,54.97 17.91,82.05 6.48,27.06 13.88,52.62 19.11,74.71 2.94,12.44 5.44,26.57 8.59,40.67 3.13,14.07 6.61,24.76 8.33,30.88 1.64,5.84 1.93,12.21 2.01,17.11 0.08,4.9 0.13,7.88 0.15,8.98 -2.27,2.2 -5.47,-1.01 -9.63,-9.63 -4.19,-8.65 -7.53,-17.82 -10.01,-27.58 z m -312.34,-354.35 c 7.87,8.2 17.19,20.69 27.95,37.49 10.73,16.77 21.79,34.92 33.14,54.47 11.32,19.52 22.27,38.83 32.81,57.89 10.54,19.05 20.14,36.62 29.28,50.84 10.74,16.71 19.91,34.46 25.43,52.75 5.48,18.27 10.7,37.13 15.6,56.53 4.9,19.37 10.6,38.76 17.16,58.11 6.53,19.34 15.31,38.04 26.24,56.17 1.2,2.13 -0.75,3.02 -5.89,2.66 -5.16,-0.36 -10.65,-2.04 -16.48,-5.08 -23.3,-11.07 -43.95,-24.53 -62,-40.52 -18.05,-16.02 -35.34,-36.6 -51.88,-61.83 -6.37,-9.44 -13.2,-21.89 -20.54,-37.23 -7.36,-15.36 -14.82,-31.26 -22.32,-47.69 -7.54,-16.45 -14.27,-33.44 -20.16,-51.06 -5.91,-17.61 -10.47,-33.54 -13.87,-47.34 -1.58,-6.4 -3.21,-16.73 -4.77,-30.77 -1.56,-14.07 -2.85,-28.73 -3.88,-43.92 -1.03,-15.22 -1.97,-29.07 -2.81,-41.53 -0.85,-12.5 -0.82,-20.97 0.12,-25.38 0.51,-3.31 0.77,-4.96 1.28,-8.27 6.25,5.48 9.37,8.22 15.59,13.71 z m -56.49,175.79 c 6.83,22.93 16.14,48.73 28.67,75.65 12.53,26.93 22.36,51.05 29.64,72.39 -6.94,0.47 -14.11,-6.14 -21.48,-19.78 -7.4,-13.66 -14.39,-29.25 -20.98,-46.77 -6.59,-17.51 -12.29,-34.28 -17.06,-50.29 -4.77,-16.02 -7.38,-26.74 -7.8,-32.16 -4.23,-23.69 -5.74,-35.57 -4.53,-35.66 1.17,-0.09 6.33,12.41 13.54,36.62 z m -17.69,137.28 c 8.26,15.72 11.49,23.66 9.75,23.8 -1.73,0.13 -8.41,-9.21 -20.45,-26.21 -13.81,-19.48 -25.1,-37.52 -31.8,-53.87 -6.71,-16.38 -11.72,-41.88 -16.24,-74.8 -2.49,-18.11 -2.98,-27.06 -0.48,-26.18 2.74,4.12 4.26,7.82 4.54,11.08 0.37,4.32 2.6,12.61 6.62,24.83 4.01,12.19 8.71,25.73 14.12,40.59 5.37,14.83 11.34,29.61 17.82,44.39 6.5,14.75 11.86,26.88 16.12,36.37 z m 613.29,-88.13 c 10.61,-2.02 18.66,-7.03 24.11,-15.1 5.46,-8.05 7.12,-17 4.96,-26.83 0.02,-1.1 -1.62,-7.39 -4.97,-18.89 -3.34,-11.49 -8.14,-26.55 -14.38,-45.15 -6.27,-18.64 -13.12,-40.51 -20.62,-65.63 -7.51,-25.14 -14.79,-51.36 -21.84,-78.63 -16.49,-61.13 -36.31,-109.97 -59.33,-146.46 -23.05,-36.5 -48.65,-63.07 -76.55,-79.67 -27.93,-16.6 -57.55,-23.77 -88.51,-21.45 -30.99,2.32 -63.36,11.66 -96.85,28.14 -14.89,7.08 -26.81,16.53 -35.76,28.35 -8.94,11.8 -16.74,27.39 -23.37,46.76 -6.62,19.35 -12.38,42.8 -17.25,70.27 -4.87,27.44 -9.38,60.93 -13.45,100.37 -4.09,-8.3 -6.13,-12.44 -10.24,-20.73 -6.86,-13.81 -14.3,-27.04 -22.39,-39.67 -8.07,-12.63 -21.73,-24.95 -41.03,-36.86 -12.89,-7.96 -25.31,-12.6 -37.18,-14 -11.91,-1.4 -27.11,-2.57 -43.96,-1.87 -12.02,0.51 -21.98,1.63 -28.77,2.15 -6.8,0.52 -13.22,2.1 -19.22,4.78 -14.49,5.5 -26.14,11.14 -34.99,16.8 -8.83,5.67 -17.24,12.67 -25.14,21.04 -21.65,21.58 -35,53.46 -40.13,95.52 -5.14,42.03 -3.75,86.5 3.81,133.32 7.56,46.8 21.31,92.76 40.76,137.96 19.46,45.17 43.12,82.48 70.93,111.73 32.67,34.37 71.41,62.21 115.9,83.81 44.46,21.59 88.33,33.12 130.59,36.01 51.26,3.51 96.4,-1.07 134.27,-16.1 12.24,-4.67 22.02,-8.66 29.28,-12.06 7.23,-3.39 14.19,-8.99 20.85,-16.7 3.32,-4.42 6.7,-5 10.13,-1.78 2.28,2.13 7.64,0.15 16.03,-5.93 8.4,-6.07 13.83,-14.72 17.6,-22.22 4.2,-8.35 9.49,-20.24 11.67,-34.37 2.19,-14.16 0.85,-28.76 -0.28,-40.81 -1.03,-10.91 -2.5,-30.21 -7.32,-54.64 -4.82,-24.45 -10.62,-51.91 -17.37,-82.29 -6.77,-30.42 -14.24,-62.45 -22.44,-96.06 -8.21,-33.64 -15.9,-65.91 -23.06,-96.79 -7.16,-30.89 -13.5,-59.11 -18.87,-84.57 -5.4,-25.48 -7.51,-45.6 -8.53,-57.79 -1.55,-18.44 -4.19,-36.65 -3.87,-51.35 0.31,-14.72 3.51,-24.86 9.66,-30.42 3.66,-4.44 8.31,-5.87 13.96,-4.33 5.66,1.53 11.31,4.14 16.98,7.88 5.67,3.71 11.02,8.26 16.09,13.65 5.02,5.37 9.44,10.21 13.22,14.54 11.36,17.27 22.02,35.14 32.01,53.59 9.97,18.44 22.67,46.79 37.05,84.77 9.82,25.93 18.48,51.15 26.25,75.12 7.74,23.96 14.22,45.21 19.48,63.76 5.24,18.53 10.72,39.25 16.44,62.16 2.27,9.81 7.81,17.21 16.59,22.21 8.77,4.98 18.45,6.48 29.05,4.46"
         style="fill:#231f20;fill-opacity:1;fill-rule:nonzero;stroke:none"
         id="path28"
          /><path
         d="m 2959.61,2690.92 c -10.75,0.37 -22.26,4.63 -32.94,11.08 -10.7,6.44 -17.75,14 -21.14,22.71 -9.01,17.36 -7.63,32.61 3.95,45.73 11.57,13.14 23.91,24.1 37.04,32.97 5.45,5.5 14.2,9.7 26.27,12.61 12.04,2.9 21.96,2.27 29.77,-1.9 5.54,-2.09 11.08,-3.86 16.65,-5.35 5.54,-1.5 9.24,-6.11 11.87,-11.96 1.87,-4.15 3.56,-9.17 3.7,-14.6 0.19,-7.63 0.44,-17.15 0.74,-28.57 0.29,-11.42 -1.16,-19.91 -4.38,-25.43 -2.19,-2.24 -4.64,-4.47 -7.38,-6.7 -2.74,-2.27 -5.78,-3.97 -9.11,-5.11 -4.43,-2.29 -8.25,-6.46 -11.49,-12.5 -3.25,-6.06 -7.68,-9.13 -13.29,-9.23 -3.37,-0.06 -5.62,-0.67 -6.71,-1.75 0.02,-1.1 -1.39,-1.66 -4.18,-1.71 -2.81,-0.04 -9.75,-0.61 -19.37,-0.29 z m 69.61,-710.68 c -4.9,-5.56 -11.33,-12.48 -19.33,-20.81 -8.02,-8.31 -16.64,-17.72 -25.92,-28.2 -9.3,-10.5 -18.33,-21.24 -27.05,-32.2 -8.76,-10.97 -16.89,-21.41 -24.45,-31.26 -7.54,-9.86 -15.13,-19.7 -22.75,-29.53 -7.61,-9.84 -12.69,-17.45 -15.26,-22.92 -7.65,-11.97 -11.18,-18.26 -10.55,-18.79 0.64,-0.53 4.78,5.4 12.47,17.17 9.96,15.23 24.84,34.37 43.7,57.39 18.86,23.04 38.79,45.59 59.82,67.75 6.17,6.65 11.71,13 16.61,19.09 4.88,6.07 9.19,11.34 12.85,15.79 -0.05,2.61 -0.08,3.91 -0.14,6.52 z m -116.2,-419.52 c 14.6,5.52 29.74,20.87 45.28,46.08 15.54,25.22 29.55,55.64 41.96,91.2 12.41,35.59 22.66,73.38 30.76,113.27 8.11,39.91 12.25,77.85 12.66,113.79 -58,-55.82 -100.09,-106.22 -124.95,-152.08 -24.85,-45.86 -39.58,-85.02 -43.51,-117.67 -3.93,-32.65 -1.02,-57.41 8.92,-74.28 9.95,-16.85 19.63,-23.63 28.88,-20.31 z m -49.32,249.69 c 0,-1.07 1.93,0.82 5.78,5.72 3.84,4.88 8.35,10.59 13.43,17.13 14.06,19.61 30.22,40.07 48.41,61.43 18.17,21.37 39.68,44.72 64.35,70.2 6.15,6.64 11.68,12.71 16.59,18.27 4.88,5.53 9.16,10.52 12.82,14.96 -0.05,1.96 -0.07,2.94 -0.11,4.9 -2.94,-2.68 -4.41,-4.02 -7.35,-6.69 -20.85,-20.02 -41.2,-41.57 -61.07,-64.65 -19.92,-23.09 -38.71,-46.62 -56.48,-70.63 -6.33,-7.62 -11.72,-14.15 -16.21,-19.63 -4.45,-5.43 -7.75,-11.56 -10.54,-16.33 -3.06,-5.23 -7.03,-10.32 -9.62,-14.68 z m 561.63,609.25 c 9.17,-1.66 17.36,-6.16 23.42,-14.36 6.06,-8.23 7.76,-17.35 5.08,-27.41 -18.27,-75.94 -46.35,-145.21 -84.65,-207.48 -38.32,-62.28 -75.46,-113.42 -110.71,-153.51 -0.7,-32.74 -4.67,-68.41 -12.14,-106.93 -7.48,-38.54 -17.93,-77.49 -31.53,-116.82 -13.59,-39.32 -30.42,-76.84 -50.58,-112.52 -20.16,-35.65 -43.1,-66.97 -68.76,-93.88 -12.88,-12.35 -27.48,-23.9 -43.84,-34.65 -16.38,-10.73 -34.21,-19 -53.43,-24.76 -19.24,-5.76 -39.24,-8.73 -59.93,-8.9 -20.67,-0.17 -41.32,4.71 -61.06,12.8 -21.97,9.01 -40.2,21.05 -52.7,36.91 -12.48,15.88 -20.9,33.4 -25.3,52.46 -4.41,19.09 -6.15,38.75 -5.26,58.85 0.89,20.12 4.05,39.41 9.4,57.85 10.76,36.91 34.68,78.82 70.96,126.15 36.27,47.33 81.05,96.82 133.64,149.01 5.15,4.67 7.71,7.01 12.84,11.69 -4.33,28.2 -8.61,56.41 -12.83,84.65 -4.23,28.21 -7.5,48.54 -10.3,60.22 -3.59,14.95 -8.28,32.89 -13.63,52.02 -4.78,17.13 -11.45,38.73 -18.98,64.21 -7.52,25.47 -16.46,56.26 -27.76,90.3 -11.4,34.35 -18.12,62.43 -18.25,83.12 -0.14,20.66 3.61,37.39 8.34,49.04 4.93,12.13 12.5,23.49 23.92,31.26 1.12,1.08 4.55,2.5 10.3,4.21 5.72,1.71 9.24,-0.89 8.7,-5.59 -0.45,-3.91 -0.19,-6.27 2.68,-5.68 2.84,0.59 4.53,3.69 5.93,7.44 1.52,4.08 6.2,6.63 11.96,6.73 5.74,0.11 9.8,-2.54 12.23,-7.93 1.43,-2.58 2.15,-3.87 3.59,-6.46 1.32,2.64 1.99,3.96 3.32,6.61 5.58,7.72 13.89,8.46 24.98,2.2 11.08,-6.24 20.68,-9.26 28.76,-9.02 5.84,-3.09 8.81,-5.2 8.84,-6.26 4.73,-4.23 11.21,-7.83 19.41,-10.81 8.18,-2.99 14.13,-7.15 17.81,-12.45 1.29,-4.32 3.71,-6.4 7.18,-6.27 3.48,0.13 11.82,-14.26 25.27,-43.12 13.47,-28.85 27.14,-65.85 42.76,-107.6 13.84,-37.02 26.52,-73.09 34.92,-106.99 8.37,-33.89 16.24,-72.99 23.57,-117.27 26.31,36.29 52.28,77.39 77.64,123.25 25.36,45.86 44.15,95.57 56.66,148.92 2.78,10.05 8.68,17.59 17.74,22.69 9.03,5.07 19.27,5.99 29.79,4.08"
         style="fill:#231f20;fill-opacity:1;fill-rule:nonzero;stroke:none"
         id="path30"
          /><path
         d="m 3844.23,2600.87 c -1.77,-26.7 -3.36,-58.6 -4.91,-95.69 -1.53,-37.12 -2.37,-73.82 -2.44,-110.12 -0.08,-36.32 0.17,-69.29 0.8,-98.89 0.64,-29.6 1.78,-50.33 3.49,-62.18 1.09,-7.54 1.92,-9.08 2.51,-4.58 -0.39,19.73 -0.36,42.85 0.05,69.29 0.42,26.45 0.97,53.78 1.62,81.92 0.65,28.14 1.87,56.12 3.66,83.91 1.77,27.77 4.72,54.23 6.11,76.9 0.77,12.75 0.83,27.1 1.53,41.54 0.69,14.4 2.3,25.53 2.95,31.85 0.62,6.03 -0.17,12.35 -0.93,17.2 -0.76,4.84 -1.22,7.78 -1.39,8.87 -2.62,1.78 -5.23,-1.93 -7.87,-11.14 -2.66,-9.24 -4.39,-18.85 -5.18,-28.88 z m -247.74,-402.58 c 6.36,9.42 13.42,23.32 21.17,41.72 7.71,18.35 15.51,38.13 23.37,59.33 7.84,21.17 15.34,42.07 22.48,62.65 7.15,20.57 13.61,39.52 20.2,55.1 7.75,18.3 13.77,37.36 16.08,56.32 2.3,18.94 4.22,38.42 5.74,58.36 1.53,19.93 3.84,40.01 7,60.2 3.15,20.18 8.62,40.1 16.31,59.83 0.82,2.3 -1.26,2.85 -6.27,1.62 -5.03,-1.24 -10.16,-3.83 -15.4,-7.82 -21.11,-14.9 -39.18,-31.7 -54.27,-50.54 -15.07,-18.87 -28.62,-42.1 -40.62,-69.79 -4.67,-10.39 -9.28,-23.82 -13.9,-40.19 -4.63,-16.39 -9.27,-33.34 -13.86,-50.81 -4.62,-17.49 -8.36,-35.39 -11.16,-53.75 -2.82,-18.36 -4.59,-34.84 -5.59,-49.02 -0.46,-6.58 -0.31,-17.03 0.56,-31.13 0.86,-14.13 2.09,-28.79 3.67,-43.93 1.59,-15.18 3.03,-28.99 4.33,-41.41 1.3,-12.46 2.78,-20.8 4.45,-24.98 1.07,-3.17 1.61,-4.76 2.68,-7.93 5.23,6.46 7.83,9.69 13.03,16.17 z m -85.73,163.55 c 2.82,23.76 7.58,50.77 15.34,79.44 7.75,28.67 13.32,54.12 16.85,76.39 -6.93,-0.72 -12.86,-8.46 -17.8,-23.16 -4.96,-14.73 -9.18,-31.28 -12.69,-49.67 -3.51,-18.38 -6.26,-35.88 -8.23,-52.47 -1.96,-16.59 -2.71,-27.6 -2.19,-33.01 -0.12,-24.07 0.42,-36.03 1.62,-35.92 1.17,0.11 4.12,13.32 7.1,38.4 z m -40.89,132.24 c 5.45,16.9 7.28,25.28 5.54,25.11 -1.73,-0.16 -6.71,-10.5 -15.68,-29.31 -10.27,-21.55 -18.32,-41.26 -22.13,-58.51 -3.82,-17.29 -4.4,-43.27 -3.23,-76.48 0.65,-18.26 1.69,-27.17 4,-25.87 2,4.52 2.86,8.43 2.58,11.69 -0.37,4.32 0.41,12.87 2.28,25.59 1.87,12.7 4.2,26.84 6.99,42.41 2.76,15.53 6.11,31.11 9.98,46.78 3.88,15.64 7.09,28.51 9.67,38.59 z m 620.71,18.19 c 10.85,-0.17 19.67,-3.72 26.44,-10.73 6.79,-7 9.96,-15.53 9.5,-25.59 0.21,-1.08 -0.35,-7.55 -1.69,-19.46 -1.34,-11.9 -3.51,-27.56 -6.51,-46.97 -3.02,-19.43 -6.06,-42.16 -9.19,-68.2 -3.12,-26.06 -5.85,-53.14 -8.16,-81.22 -5.86,-63.06 -17.12,-114.59 -33.64,-154.49 -16.55,-39.92 -37.32,-70.49 -62.06,-91.63 -24.77,-21.15 -52.82,-33.29 -83.8,-36.3 -31.02,-3.03 -64.58,0.63 -100.47,11.14 -15.91,4.43 -29.3,11.7 -40.15,21.81 -10.84,10.1 -21.2,24.12 -31.06,42.08 -9.84,17.93 -19.53,40.05 -29.03,66.28 -9.49,26.21 -19.67,58.44 -30.44,96.59 -2.61,-8.87 -3.92,-13.3 -6.55,-22.17 -4.41,-14.78 -9.49,-29.08 -15.31,-42.91 -5.81,-13.83 -17.18,-28.31 -34.18,-43.34 -11.36,-10.04 -22.81,-16.74 -34.28,-20.15 -11.5,-3.41 -26.29,-7.16 -43.02,-9.35 -11.94,-1.56 -21.95,-2.15 -28.72,-2.8 -6.81,-0.64 -13.39,-0.19 -19.77,1.43 -15.22,2.95 -27.67,6.51 -37.35,10.57 -9.67,4.08 -19.15,9.54 -28.37,16.44 -25.01,17.57 -43.6,46.7 -55.84,87.27 -12.24,40.53 -18.46,84.59 -19.01,132 -0.55,47.41 5.14,95.05 16.58,142.9 11.46,47.83 28.39,88.63 50.8,122.2 26.32,39.44 59.75,73.49 99.93,102.38 40.15,28.87 81.46,47.74 122.68,57.81 49.99,12.22 95.36,15.45 135.33,7.12 12.9,-2.5 23.24,-4.76 30.99,-6.87 7.73,-2.1 15.56,-6.42 23.46,-12.88 4.04,-3.78 7.47,-3.78 10.32,-0.02 1.89,2.49 7.52,1.46 16.85,-3.09 9.34,-4.54 16.19,-12.13 21.2,-18.87 5.58,-7.51 12.84,-18.32 17.41,-31.87 4.58,-13.58 5.75,-28.19 6.7,-40.26 0.85,-10.92 2.7,-30.2 2.11,-55.09 -0.59,-24.91 -1.63,-52.96 -3.11,-84.05 -1.49,-31.13 -3.4,-63.98 -5.75,-98.5 -2.37,-34.55 -4.44,-67.66 -6.24,-99.32 -1.8,-31.66 -3.24,-60.55 -4.2,-86.55 -0.97,-26.04 0.39,-46.22 1.46,-58.4 1.62,-18.43 2.12,-36.83 4.96,-51.26 2.82,-14.45 7.71,-23.89 14.74,-28.31 4.37,-3.75 9.22,-4.37 14.54,-1.89 5.32,2.48 10.46,6.02 15.43,10.68 4.97,4.63 9.48,10.03 13.56,16.21 4.05,6.16 7.59,11.68 10.59,16.59 8.27,18.97 15.75,38.4 22.48,58.3 6.7,19.86 14.4,49.98 22.13,89.87 5.28,27.24 9.53,53.57 13.12,78.52 3.56,24.93 6.33,46.98 8.36,66.16 2.02,19.16 3.9,40.52 5.64,64.07 0.57,10.06 4.79,18.29 12.62,24.73 7.81,6.42 17.15,9.55 27.97,9.39"
         style="fill:#231f20;fill-opacity:1;fill-rule:nonzero;stroke:none"
         id="path32"
          /><path
         d="m 4308.49,2609.36 c -3.5,4.76 -7.15,-0.25 -11.05,-15.06 -3.9,-14.84 -7.48,-32.65 -10.76,-53.41 -3.29,-20.79 -6.2,-40.95 -8.67,-60.41 -2.49,-19.5 -3.92,-31.49 -4.15,-35.98 -8.61,-34.17 -15.83,-62.94 -21.46,-86.36 -5.64,-23.44 -9.68,-44.56 -12.06,-63.38 -2.38,-18.82 -2.98,-35.89 -1.75,-51.18 1.24,-15.32 3.47,-30.95 6.73,-46.95 2.35,-11.52 3.53,-17.28 5.87,-28.79 -1.09,9.11 -1.64,13.66 -2.73,22.77 0.82,45.7 4.82,96.81 11.6,153.29 6.78,56.49 20.88,126.5 40.96,210.21 2.91,14.04 5.23,26.54 6.97,37.55 1.74,10.97 1.87,16.88 0.5,17.7 z m -107.32,-278.42 c -7.66,-35.97 -11.07,-63.27 -9.91,-81.88 1.16,-18.63 2.95,-37.46 3.12,-54.29 0.06,-5.37 0.47,-10.47 1.91,-14.6 1.45,-4.14 2.49,-7.83 3.12,-11.04 0.88,-4.48 1.32,-6.72 2.2,-11.21 2.86,-1.67 4.49,-0.24 4.87,4.29 0.38,4.49 -0.91,18.2 -2.09,39.52 -2.02,36.47 1.77,84.95 8.09,142.33 6.32,57.36 17.33,115.46 32.65,174.41 2.8,9.5 5.09,18.63 6.84,27.36 1.74,8.73 2.99,16.27 4.34,21.82 1.68,6.91 3.53,14.14 4.44,21.02 -1.16,-0.26 -4.08,-11.5 -8.94,-33.69 -4.88,-22.22 -10.62,-47.66 -17.37,-76.34 -6.77,-28.68 -13.4,-57.3 -19.86,-85.83 -6.47,-28.57 -11.01,-49.19 -13.41,-61.87 z m -139.19,209.18 c -1.21,38.51 -1.49,76.38 -0.88,113.62 0.59,37.21 -8.09,68.49 -25.6,94.02 -3.39,-12.84 -5.75,-23.52 -7.06,-32.04 -1.32,-8.55 -2.44,-16.04 -3.88,-21.48 -1.81,-6.82 -2.94,-18.82 -2.27,-35.27 0.66,-16.47 2.51,-33.03 5.54,-49.62 3.03,-16.6 7.3,-31.86 12.82,-45.78 5.51,-13.91 12.62,-21.75 21.33,-23.45 z m 509.49,75.59 c 9.23,-0.14 18.4,-3.2 26.01,-10.7 7.6,-7.53 11.43,-16.8 9.68,-25.29 -2.14,-10.35 -6.47,-31.96 -10.05,-62.76 -3.59,-30.84 -7.97,-66.11 -13.37,-105.76 -5.4,-39.69 -12.63,-81.77 -21.86,-126.21 -9.23,-44.45 -21.15,-86.14 -35.72,-125 -14.59,-38.85 -32.28,-73.02 -53,-102.43 -20.73,-29.4 -45.63,-49.52 -73.5,-58.5 -50.77,-16.37 -95.08,-18.1 -129.27,-7.23 -34.22,10.87 -61.04,30.36 -80.55,58.21 -19.53,27.85 -32.81,61.33 -40.16,100.39 -7.35,39.04 -10.2,79.48 -8.81,121.29 1.4,41.82 6.14,83.16 14.08,124.11 7.9,40.91 17.75,77 29.53,108.3 4.06,9.7 6.9,19.46 8.51,29.24 1.6,9.76 1.79,14.55 0.66,14.31 0.82,-9.83 -2.75,-21.7 -10.8,-35.55 -8.06,-13.89 -19.42,-26.72 -34.08,-38.48 -14.67,-11.79 -31.79,-20.65 -51.31,-26.54 -19.53,-5.92 -40.85,-4.74 -61.83,0.23 -30.95,7.34 -56.87,25.1 -72.86,56.07 -16.01,30.96 -25.72,64.65 -29.46,101.01 -3.73,36.31 -1.63,70.89 6.05,103.68 7.7,32.79 19.12,54.89 34.17,66.48 11.1,8.54 24.01,14.83 38.77,18.67 14.76,3.84 29.06,5.71 42.88,5.61 13.82,-0.11 27.02,-2.79 39.6,-8.04 12.55,-5.25 22.39,-12.8 28.82,-22.51 10.22,-15.43 17.5,-37.28 21.93,-64.68 4.43,-27.4 4.29,-55.53 -0.61,-84.25 12.45,14.71 25.3,30.13 38.52,46.24 13.18,16.1 25.13,26.42 35.96,31.01 52.1,21.27 88.77,25.94 110.77,13.22 22,-12.73 31.65,-49.3 27.42,-109.27 -2.48,-35.16 -5.84,-75.15 -9.8,-119.58 -3.96,-44.43 -6.23,-89.59 -6.64,-135.39 -0.43,-45.84 2.11,-90.41 7.8,-133.71 5.69,-43.33 17.81,-81.35 36.71,-113.95 7.23,8.29 14.92,17.53 22.98,27.72 8.05,10.16 15.79,23.1 23.16,38.77 7.35,15.66 15.22,34.53 23.49,56.62 8.27,22.07 17.24,48.91 25.9,80.05 9.56,34.41 17.09,68.9 23.18,102.39 6.08,33.48 10.99,63.37 14.86,89.64 3.84,26.26 7.59,56.15 11.13,89.72 0.1,9.01 4.49,16.91 13.14,23.71 8.63,6.77 18.43,9.3 27.97,9.14"
         style="fill:#231f20;fill-opacity:1;fill-rule:nonzero;stroke:none"
         id="path34"
          /><path
         d="m 2577.35,2781.1 c 6.71,6.48 13.29,21.7 19.7,45.68 l -2.8,0.25 c -3.15,-8.68 -6.15,-17.04 -9,-25.05 -2.84,-7.99 -5.42,-14.25 -7.71,-18.78 l -1.73,-3.38 1.54,1.28 z m -16.48,-2.05 c 0.85,-1.02 2.7,1.29 5.58,6.93 2.88,5.65 5.75,11.41 8.65,17.28 6.12,20.69 10.72,41.66 13.82,62.85 3.1,21.21 2.35,42.89 -2.26,65.02 -1.04,4.34 -2.36,9.18 -4,14.52 -1.64,5.34 -3.81,11.44 -6.5,18.3 -6.37,-23.5 -11.36,-43.49 -14.97,-59.92 -3.62,-16.42 -6.61,-32.57 -8.98,-48.41 -0.47,-5.14 -0.8,-11.49 -1.01,-19.04 -0.22,-7.52 0.05,-15.11 0.78,-22.74 0.72,-7.61 1.74,-14.55 3.07,-20.81 1.32,-6.26 3.27,-10.92 5.82,-13.98 z m -25.6,226.13 c 2.63,8.27 6.29,18.67 10.97,31.25 4.67,12.55 9.33,25.01 14,37.33 4.65,12.33 8.82,23.17 12.5,32.52 3.68,9.34 6.07,14.9 7.17,16.7 l 0.19,2.11 c -2.73,-4 -4.93,-7.59 -6.63,-10.73 -1.71,-3.16 -3.54,-6.41 -5.48,-9.78 -1.98,-3.36 -3.77,-6.39 -5.43,-9.08 -5.11,-9.45 -10.49,-21.96 -16.13,-37.49 -5.66,-15.55 -11.17,-32.05 -16.53,-49.5 -5.37,-17.47 -10.2,-34.62 -14.56,-51.46 -4.36,-16.84 -7.34,-31.56 -8.95,-44.16 l -1.85,-12.58 3.63,16.66 c 3.05,12.94 6.56,25.62 10.52,38 3.95,12.4 9.48,29.13 16.58,50.21 z m -37.91,-66.69 c -4.83,-22.23 -4.13,-22.3 2.11,-0.19 6.59,25.84 14.26,50.65 23.02,74.42 1.39,5.06 2.73,9.42 4.02,13.09 1.27,3.66 1.67,5.52 1.2,5.56 -0.51,-0.43 -1.04,-1.09 -1.58,-1.98 -0.56,-0.9 -1.44,-2.71 -2.62,-5.43 -3.36,-5.84 -7.57,-17.03 -12.59,-33.58 -5.05,-16.54 -9.56,-33.84 -13.56,-51.89 z m -14.22,85.58 c 4.13,3.87 7.51,7.34 10.16,10.41 2.63,3.06 5.29,6.36 7.97,9.91 2.68,3.52 5.11,6.85 7.27,9.96 3.19,3.96 6.99,9.4 11.39,16.32 4.41,6.93 8.95,14.07 13.63,21.44 4.67,7.37 9.12,14.64 13.31,21.81 4.18,7.18 7.43,13.03 9.73,17.54 2.24,4.05 5.21,9.44 8.9,16.19 3.68,6.76 8.63,15.99 14.9,27.7 l -7.1,7.73 c -6.09,5.73 -11.42,10.82 -15.97,15.25 -4.55,4.42 -10.67,8.63 -18.35,12.64 -4.29,-0.56 -8.6,-5.25 -12.95,-14.06 -4.33,-8.82 -8.48,-19.42 -12.44,-31.81 -3.94,-12.39 -7.45,-24.95 -10.48,-37.66 -3.04,-12.72 -5.41,-23.24 -7.11,-31.58 -1.54,-6.49 -3.13,-13.78 -4.8,-21.88 -1.69,-8.12 -3.21,-15.89 -4.59,-23.32 -1.38,-7.42 -2.42,-13.59 -3.08,-18.48 -0.69,-4.9 -0.82,-7.61 -0.39,-8.11 z m -21.37,69.21 c 4.43,17.55 9.05,33.41 13.88,47.62 4.81,14.2 10.54,29.26 17.17,45.2 1.8,4.09 3.32,7.96 4.61,11.62 0.62,1.83 1.24,3.43 1.83,4.8 -12.94,-12.54 -22.02,-28.23 -27.26,-47.12 -5.26,-18.89 -9.54,-41.4 -12.84,-67.55 l -1.97,-13.98 4.58,19.41 z m -2.02,95.1 c 0.63,1.83 1.25,3.43 1.84,4.79 0.59,1.36 1.17,2.49 1.73,3.39 0.59,1.36 0.94,2.5 1.02,3.45 -0.95,0.08 -3.18,-2.44 -6.71,-7.54 -3.53,-5.12 -7.23,-10.8 -11.1,-17.06 -6.68,-11.2 -11.43,-23.3 -14.26,-36.25 -2.82,-12.97 -4.86,-26.48 -6.13,-40.53 l -0.95,-10.54 c 5.73,21.67 11.34,40.64 16.83,56.92 5.47,16.26 11.38,30.72 17.73,43.37 z m 251.29,-72.3 c 4.12,-1.32 7.31,-3.84 9.57,-7.58 2.26,-3.75 2.73,-7.69 1.41,-11.82 -0.08,-0.94 -1.79,-5.51 -5.12,-13.71 -3.34,-8.19 -9.4,-17.81 -18.19,-28.81 -8.79,-11.01 -20.89,-22.19 -36.33,-33.55 -15.43,-11.35 -35.27,-20.66 -59.53,-27.91 15.43,-43.42 23.01,-83.65 22.72,-120.69 -0.27,-37.04 -9.34,-70.82 -27.21,-101.32 -10.04,-17.02 -21.03,-26.19 -32.93,-27.47 -11.93,-1.29 -23.41,2.35 -34.43,10.9 -11.04,8.55 -20.82,20.54 -29.34,35.95 -8.52,15.4 -13.96,31 -16.31,46.8 -3.2,16.83 -4.35,34.16 -3.44,52.02 0.9,17.87 2.49,34.24 4.79,49.15 2.49,17.23 5.88,33.7 10.13,49.37 0.55,0.9 -1.22,-0.36 -5.3,-3.77 -6.09,-4.65 -12.99,-7.81 -20.68,-9.46 -7.72,-1.67 -15.65,-1.9 -23.8,-0.69 -8.15,1.2 -15.94,3.92 -23.34,8.14 -7.42,4.21 -13.66,9.61 -18.73,16.21 -2.94,4.04 -5.96,9.85 -9.04,17.46 -3.11,7.6 -5.31,14.53 -6.63,20.79 -2.82,15.83 -3.24,33.23 -1.29,52.17 1.95,18.95 6,37.71 12.16,56.28 6.16,18.56 14.35,36.12 24.6,52.67 10.22,16.54 21.97,30.35 35.26,41.43 10.16,8.05 21.04,13.44 32.62,16.18 11.58,2.73 23.07,3.11 34.46,1.13 11.39,-1.98 22.35,-6.15 32.86,-12.53 10.52,-6.38 20.06,-14.44 28.63,-24.19 5.12,-6.12 8.21,-9.72 9.29,-10.75 1.1,-1.06 2.17,-0.9 3.24,0.41 2.03,1.7 3.54,2.75 4.53,3.14 1.49,0.8 2.32,0.96 2.51,0.48 0.2,-0.5 -0.05,-1.89 -0.72,-4.19 -0.68,-2.3 -0.92,-3.58 -0.71,-3.82 0.21,-0.28 0.58,-0.06 1.12,0.59 0.53,0.66 1.1,1.68 1.69,3.04 0.59,1.36 0.93,2.51 1.02,3.46 0.08,0.92 1.11,1.77 3.07,2.54 0.98,0.38 1.54,0.22 1.72,-0.5 0.17,-0.73 0.05,-3.44 -0.37,-8.12 l 3.25,4.67 c 1.06,1.32 3.53,2.51 7.41,3.58 3.87,1.06 5.69,0.2 5.43,-2.62 0.34,-1.44 1.23,-2 2.69,-1.65 2.46,1.18 4.57,0.99 6.32,-0.58 1.74,-1.57 3.08,-3.82 3.99,-6.73 0.91,-2.92 1.45,-6.04 1.63,-9.36 0.17,-3.32 0.21,-5.68 0.08,-7.09 -5.79,-27.34 -13.77,-54.24 -23.94,-80.71 -10.19,-26.47 -19.4,-53.96 -27.65,-82.49 31.97,8.91 57.44,24.31 76.41,46.21 4.23,4.81 7.7,9.34 10.45,13.58 2.75,4.23 4.99,8.16 6.73,11.79 2.24,4.05 3.76,7.68 4.53,10.92 1.31,4.13 3.73,7.33 7.24,9.61 3.5,2.28 7.33,2.76 11.47,1.44"
         style="fill:#231f20;fill-opacity:1;fill-rule:nonzero;stroke:none"
         id="path36"
          /><path
         d="m 2911.01,3079.6 c -6.03,-24.96 -10.8,-45.06 -14.3,-60.33 -3.5,-15.27 -5.2,-24.8 -5.06,-28.58 -0.13,-1.41 -0.17,-1.88 -0.13,-1.41 0.04,0.46 0.45,2.32 1.22,5.55 0.65,2.3 2.33,9.01 4.99,20.09 2.66,11.09 5.53,23.34 8.64,36.77 3.56,13.36 6.61,26.19 9.14,38.48 2.52,12.28 4.42,20.25 5.7,23.92 0.84,4.17 1.41,7.78 1.69,10.83 0.28,3.04 0.43,4.79 0.47,5.27 -0.38,0.97 -0.68,0.29 -0.89,-2.04 -0.08,-0.95 -1.26,-6.16 -3.53,-15.63 -2.27,-9.47 -4.92,-20.45 -7.94,-32.92 z m -38.86,-77.24 c -2.57,-12.99 -3.84,-20.19 -3.71,-21.62 0.1,-1.42 1.41,3.88 3.92,15.94 1.44,5.54 3.65,14.42 6.65,26.67 3,12.23 5.98,24.36 8.96,36.37 3,12.48 5.62,22.98 7.8,31.52 2.2,8.54 3.91,15.82 5.17,21.85 1.24,6.02 2.3,11.13 3.15,15.3 0.85,4.17 1.68,8.1 2.49,11.81 1.53,6.47 2.09,10.2 1.71,11.19 -0.39,0.97 -1.32,-1.55 -2.8,-7.55 -0.22,-2.35 -1.49,-8.6 -3.82,-18.77 -2.34,-10.19 -5.25,-21.48 -8.74,-33.92 -3.62,-13.84 -6.52,-25.16 -8.73,-33.92 -2.2,-8.77 -4.07,-16.27 -5.57,-22.51 -1.52,-6.24 -2.72,-11.8 -3.63,-16.68 -0.92,-4.87 -1.88,-10.1 -2.85,-15.68 z m -144.1,43.49 c 2.08,7.35 4.39,15.89 6.92,25.57 2.52,9.69 5.19,19.48 7.96,29.39 2.78,9.9 5.53,19.33 8.24,28.3 2.69,8.96 5.02,16.42 6.98,22.39 2.5,6.85 4.62,13.39 6.37,19.6 1.74,6.22 2.95,10.48 3.63,12.78 1.48,6 1.76,9.05 0.83,9.13 -0.95,0.09 -2.63,-2.83 -5.04,-8.75 -3.82,-10.98 -7.75,-23.03 -11.77,-36.12 -4.01,-13.1 -7.8,-26.21 -11.34,-39.35 -3.56,-13.14 -6.69,-25.6 -9.41,-37.39 -2.72,-11.8 -4.67,-21.67 -5.85,-29.59 l -0.95,-10.53 3.43,14.57 z m -29.14,38.04 c 11.04,38.67 21.06,68.46 30.04,89.37 1.27,3.66 2.48,6.62 3.62,8.88 1.15,2.25 1.5,3.4 1.03,3.44 -3.75,-4.85 -7.57,-11.95 -11.48,-21.27 -3.93,-9.32 -7.63,-19.03 -11.14,-29.09 -3.51,-10.08 -6.38,-19.74 -8.63,-28.97 -2.26,-9.24 -3.61,-16.44 -4.07,-21.59 -0.21,-2.35 -0.02,-2.6 0.63,-0.77 z m 334.93,-1.23 c 4.11,-1.32 7.09,-3.83 8.87,-7.53 1.78,-3.71 2.02,-7.62 0.7,-11.75 -0.04,-0.47 -1.15,-3.68 -3.35,-9.61 -2.18,-5.95 -5.01,-13.71 -8.47,-23.32 -3.47,-9.6 -7.54,-20.69 -12.21,-33.25 -4.68,-12.57 -9.98,-25.43 -15.88,-38.58 -6.65,-15.94 -13.13,-30.23 -19.47,-42.87 -6.34,-12.65 -12.56,-24.12 -18.68,-34.43 -16.64,-27.3 -32.09,-44.09 -46.35,-50.36 -7.79,-2.58 -16.12,-3.26 -24.96,-1.98 -8.87,1.27 -17.05,4.85 -24.54,10.71 -7.55,5.41 -13.53,12.33 -17.95,20.75 -4.45,8.43 -7.65,17.34 -9.64,26.72 -1.98,9.39 -2.87,19.14 -2.66,29.28 0.21,10.13 0.99,20.11 2.35,29.9 2.41,16.3 6.4,35.65 11.97,58.06 5.58,22.38 11,43.27 16.29,62.63 5.28,19.35 9.5,34.55 12.62,45.6 3.11,11.05 3.21,13.4 0.28,7.06 -4.12,-9.08 -9.9,-20.71 -17.31,-34.91 -7.43,-14.2 -16.08,-28.89 -25.95,-44.05 -9.86,-15.16 -20.64,-29.78 -32.29,-43.83 -11.66,-14.06 -23.57,-25.61 -35.71,-34.66 -12.15,-9.07 -24.22,-14.36 -36.15,-15.87 -11.94,-1.52 -23.39,2.47 -34.32,11.96 -13.13,11.57 -20.49,30.77 -22.08,57.6 -1.57,26.81 3.47,60.48 15.15,100.98 8.16,27.59 16.36,49.04 24.59,64.35 8.22,15.31 16.55,25.19 24.99,29.62 0.98,0.38 3.26,0.88 6.86,1.51 3.6,0.61 5.31,-0.02 5.15,-1.88 -0.25,-2.82 -2.98,-8.12 -8.18,-15.91 -5.19,-7.8 -9.36,-16.05 -12.49,-24.73 -1.83,-4.55 -4.24,-11.54 -7.21,-20.95 -2.97,-9.41 -6,-19.4 -9.09,-29.99 -3.08,-10.59 -5.81,-21.2 -8.19,-31.83 -2.38,-10.66 -4.14,-19.7 -5.28,-27.16 -1.12,-6.97 -1.5,-9.89 -1.15,-8.74 0.34,1.14 2.27,8.17 5.8,21.07 3.6,13.85 7.44,27.42 11.47,40.76 4.04,13.32 8.25,25.92 12.63,37.81 4.38,11.88 8.66,22.71 12.85,32.49 4.19,9.76 8.22,17.78 12.09,24.05 0.55,0.89 2.1,2.29 4.64,4.19 2.53,1.89 3.23,1.94 2.14,0.15 -0.09,-0.94 -0.47,-2.55 -1.15,-4.85 -0.69,-2.31 -0.15,-1.65 1.59,1.98 2.12,2.64 3.65,3.93 4.6,3.84 -1.37,0.58 -1.36,0.7 0.03,0.35 1.38,-0.37 3.3,-1.26 5.78,-2.65 2.47,-1.41 4.79,-3.15 6.97,-5.23 2.16,-2.09 3.59,-4.58 4.28,-7.47 1.35,-5.8 1.35,-12.52 -0.06,-20.19 -1.39,-7.66 -3.31,-15.63 -5.7,-23.92 -2.41,-8.28 -4.91,-16.32 -7.49,-24.11 -2.6,-7.8 -4.64,-14.7 -6.11,-20.69 -5.63,-20.29 -10.87,-40.46 -15.76,-60.56 -4.88,-20.1 -7.96,-42.38 -9.23,-66.81 7.63,5.92 14.67,12.01 21.14,18.28 6.47,6.25 12.59,12.67 18.38,19.23 18.6,22.86 35.08,47.23 49.47,73.09 14.37,25.85 30.24,51.45 47.66,76.8 5.96,8.42 10.24,14.05 12.86,16.89 2.62,2.83 5.09,4.15 7.44,3.93 1.86,-0.16 2.86,0.22 2.94,1.16 1.02,0.84 2.68,1.17 5.04,0.96 l 9.14,-0.83 c 2.38,0.25 4.69,-0.19 6.96,-1.34 1.78,-1.11 3.14,-1.7 4.09,-1.78 2.34,-0.22 4.89,-1.98 7.66,-5.3 2.78,-3.32 4.73,-6.44 5.89,-9.38 3.36,-9.76 3.09,-25.79 -0.81,-48.1 -2.43,-16.31 -5.52,-32.32 -9.3,-48.03 -3.79,-15.71 -7.46,-31.56 -11.04,-47.52 -3.56,-15.97 -6.91,-32.08 -10.02,-48.33 -3.13,-16.24 -5.21,-32.82 -6.27,-49.72 -0.77,-13.63 -0.87,-25.31 -0.33,-35.02 0.54,-9.74 1.63,-18.45 3.31,-26.16 l 1.08,-3.64 c 3.15,-1.71 6.79,-0.61 10.92,3.26 4.13,3.88 10.61,12.97 19.47,27.29 5.56,9.41 11.4,20.33 17.48,32.77 6.09,12.43 12.39,26.14 18.95,41.14 5.4,12.73 10.54,25.25 15.43,37.56 4.89,12.31 8.94,23.15 12.15,32.55 3.21,9.38 7,20.01 11.39,31.9 1.3,4.14 3.82,7.09 7.54,8.89 3.69,1.78 7.61,2.02 11.75,0.7"
         style="fill:#231f20;fill-opacity:1;fill-rule:nonzero;stroke:none"
         id="path38"
          /><path
         d="m 3098.38,3115.08 c -1.88,-5.03 -3.43,-9.14 -4.66,-12.33 -1.24,-3.2 -1.87,-5.03 -1.91,-5.49 2.04,1.69 7.04,6.2 15.03,13.51 7.98,7.3 15.91,15.44 23.81,24.41 7.9,8.96 14.12,17.85 18.7,26.64 4.57,8.8 4.73,15.98 0.53,21.56 -0.85,1.02 -1.64,1.44 -2.36,1.28 -0.72,-0.18 -2.89,-1.76 -6.44,-4.73 -7.71,-6.87 -15.28,-16.1 -22.69,-27.7 -7.43,-11.62 -14.12,-23.99 -20.01,-37.15 z m -32.77,-9.79 c -1.15,-2.26 -2.37,-5.34 -3.67,-9.23 -1.3,-3.9 -2.47,-7.81 -3.53,-11.72 -1.07,-3.92 -1.96,-7.26 -2.67,-10.03 -0.73,-2.77 -1.12,-4.39 -1.16,-4.86 1.7,-2.04 5.3,3.78 10.79,17.45 1.78,4.09 3.73,8.75 5.86,13.99 2.14,5.23 4.24,10.35 6.34,15.36 2.13,5 4.06,9.55 5.86,13.63 1.79,4.1 3.25,7.26 4.39,9.52 4.04,8.14 2.79,7.3 -3.76,-2.49 -7.03,-9.76 -13.17,-20.3 -18.45,-31.62 z m -38.03,-36.93 c -1.75,-8.83 -2.79,-16.4 -3.11,-22.74 -0.36,-6.34 -0.02,-9.1 1.01,-8.24 0.51,0.42 1.17,3.79 1.97,10.09 0.81,6.3 1.84,11.28 3.13,14.95 3.92,11.92 9,25.15 15.27,39.7 6.27,14.54 12.22,26.75 17.83,36.63 3.92,6.73 2.64,5.67 -3.83,-3.19 -16.81,-23.98 -27.55,-46.38 -32.27,-67.2 z m 215.75,-3.21 c 3.64,-1.28 6.24,-3.88 7.78,-7.79 1.53,-3.92 1.4,-7.92 -0.37,-12.01 -0.04,-0.47 -1.24,-3.2 -3.57,-8.18 -2.34,-4.98 -5.52,-11.3 -9.51,-18.97 -4,-7.67 -8.93,-16.43 -14.78,-26.29 -5.84,-9.86 -12.06,-19.93 -18.65,-30.19 -18.49,-26.66 -36.25,-47.01 -53.33,-61.05 -17.11,-14.03 -33.9,-21.01 -50.43,-20.93 -22.82,3.47 -41.21,11.51 -55.18,24.1 -13.98,12.6 -24.28,27.93 -30.91,46 -6.63,18.07 -9.79,37.83 -9.52,59.3 0.29,21.46 3.15,42.68 8.59,63.68 5.46,20.99 13,40.72 22.72,59.21 9.69,18.48 20.74,33.78 33.17,45.88 12.93,12.52 27.39,22.19 43.35,29.01 15.96,6.82 33.31,6.79 52.06,-0.1 7.75,-3.07 13.58,-7.59 17.54,-13.62 3.94,-6.02 5.6,-12.55 4.95,-19.57 -0.83,-9.38 -4.99,-20.09 -12.46,-32.17 -7.47,-12.07 -17.19,-24.19 -29.15,-36.32 -9.31,-9.07 -17.28,-16.26 -23.9,-21.56 -6.62,-5.32 -11.98,-9.8 -16.08,-13.42 -4.11,-3.65 -7.23,-6.68 -9.31,-9.08 -2.12,-2.41 -3.34,-5.49 -3.68,-9.23 -0.89,-9.84 -1.93,-20.14 -3.15,-30.89 -1.2,-10.76 -2.28,-21.28 -3.21,-31.58 -0.94,-10.3 -1.57,-20.04 -1.92,-29.22 -0.37,-9.18 0.14,-16.66 1.5,-22.45 0.95,-5.28 2.57,-10.85 4.88,-16.73 2.3,-5.87 4.33,-9.37 6.12,-10.47 5.38,-3.32 12.2,-2.16 20.51,3.46 8.29,5.62 16.6,12.66 24.92,21.13 8.32,8.45 15.81,16.98 22.51,25.58 6.67,8.61 11.1,14.46 13.27,17.58 6.55,9.78 12.62,19.39 18.19,28.81 5.57,9.41 10.22,17.84 13.97,25.3 3.75,7.45 7.92,15.92 12.57,25.42 1.74,3.62 4.57,6.19 8.49,7.73 3.91,1.53 7.91,1.41 12.02,-0.37"
         style="fill:#231f20;fill-opacity:1;fill-rule:nonzero;stroke:none"
         id="path40"
          /><path
         d="m 3337.38,3079.31 c -0.73,2.42 -2.74,0.84 -6.09,-4.76 -3.35,-5.61 -6.92,-12.48 -10.71,-20.63 -3.81,-8.16 -7.37,-16.11 -10.66,-23.84 -3.31,-7.73 -5.27,-12.51 -5.9,-14.33 -7.32,-13.05 -13.39,-24.06 -18.22,-33.07 -4.83,-9.01 -8.76,-17.26 -11.8,-24.78 -3.05,-7.51 -5.21,-14.53 -6.5,-21.02 -1.3,-6.5 -2.26,-13.25 -2.9,-20.28 l -1.14,-12.64 1.59,9.77 c 5.48,18.86 12.78,39.57 21.91,62.12 9.12,22.55 22.67,49.77 40.68,81.68 2.83,5.41 5.27,10.26 7.33,14.56 2.03,4.3 2.84,6.71 2.41,7.22 z m -73.64,-101.71 c -6.95,-14.02 -11.23,-24.96 -12.88,-32.84 -1.66,-7.88 -3.3,-15.53 -4.91,-22.93 -0.68,-2.31 -0.99,-4.41 -0.93,-6.29 0.07,-1.89 0.04,-3.55 -0.09,-4.95 l -0.44,-4.92 c 0.85,-1.03 1.59,-0.61 2.23,1.21 0.63,1.83 1.84,7.39 3.64,16.68 3.78,15.7 10.14,35.08 19.05,58.13 8.93,23.03 19.84,45.77 32.73,68.23 2.21,3.57 4.19,7.06 5.91,10.44 1.71,3.38 3.16,6.2 4.32,8.46 1.64,2.68 3.07,5.39 4.27,8.11 -0.48,0.05 -2.99,-4.22 -7.53,-12.77 -4.57,-8.57 -9.81,-18.36 -15.77,-29.39 -5.95,-11.04 -11.8,-22.07 -17.51,-33.13 -5.72,-11.05 -9.76,-19.07 -12.09,-24.04 z m -28.92,103.19 c 3.82,16.18 7.95,31.98 12.43,47.4 4.46,15.41 4.67,29.43 0.62,42.08 -2.83,-4.94 -4.97,-9.11 -6.45,-12.51 -1.49,-3.42 -2.81,-6.25 -3.96,-8.51 -1.65,-2.68 -3.27,-7.49 -4.84,-14.43 -1.58,-6.94 -2.69,-14.05 -3.35,-21.3 -0.65,-7.27 -0.68,-14.1 -0.08,-20.54 0.6,-6.42 2.46,-10.49 5.63,-12.19 z m 202.22,-35.28 c 3.66,-1.28 6.36,-4.01 8.12,-8.17 1.74,-4.17 1.75,-8.07 0.01,-11.69 -2.74,-4 -6.88,-12.02 -12.45,-24.01 -5.57,-12.01 -12.01,-25.72 -19.31,-41.11 -7.29,-15.4 -15.48,-31.54 -24.56,-48.42 -9.07,-16.89 -18.62,-32.33 -28.61,-46.3 -10.01,-13.97 -20.39,-25.65 -31.15,-35.07 -10.76,-9.41 -21.61,-14.35 -32.5,-14.78 -19.84,-0.09 -35.16,4.14 -45.97,12.66 -10.79,8.53 -18.17,19.7 -22.12,33.52 -3.94,13.81 -5.13,29.26 -3.59,46.36 1.55,17.1 4.87,34.27 9.96,51.51 5.12,17.25 11.45,33.92 19.05,49.99 7.59,16.07 15.46,29.88 23.57,41.43 2.68,3.53 4.91,7.23 6.68,11.09 1.76,3.84 2.4,5.8 1.93,5.84 -0.86,-4.17 -3.61,-8.65 -8.29,-13.42 -4.68,-4.77 -10.48,-8.73 -17.36,-11.89 -6.89,-3.15 -14.37,-4.83 -22.42,-5.05 -8.06,-0.22 -15.87,2.15 -23.43,7.08 -11.71,6.24 -19.04,16.71 -21.96,31.38 -2.93,14.66 -3.21,29.79 -0.86,45.41 2.37,15.6 6.84,29.83 13.43,42.7 6.59,12.86 13.56,20.84 20.93,23.96 5.4,2.34 11.29,3.46 17.66,3.36 6.37,-0.11 12.3,-1 17.82,-2.67 5.5,-1.68 10.46,-4.38 14.85,-8.08 4.38,-3.7 7.29,-7.98 8.74,-12.83 2.15,-7.75 2.43,-17.57 0.89,-29.47 -1.56,-11.9 -4.95,-23.53 -10.23,-34.85 6.54,4.6 13.35,9.42 20.43,14.44 7.06,5.03 12.98,7.81 17.75,8.32 22.86,2.18 37.7,-0.82 44.52,-8.98 6.8,-8.17 5.59,-24.35 -3.68,-48.54 -5.53,-14.14 -11.82,-30.1 -18.85,-47.88 -7.04,-17.78 -13.42,-36.1 -19.12,-54.94 -5.72,-18.84 -10.13,-37.58 -13.23,-56.17 -3.1,-18.61 -3.24,-35.84 -0.41,-51.68 3.51,2.52 7.31,5.37 11.38,8.55 4.07,3.17 8.36,7.49 12.87,12.99 4.5,5.49 9.61,12.24 15.29,20.23 5.67,7.98 12.1,17.78 19.3,29.41 7.77,13 14.96,25.92 21.57,38.78 6.58,12.87 12.35,24.39 17.28,34.57 4.93,10.18 10.35,21.84 16.27,35.01 1.28,3.66 3.99,6.25 8.14,7.76 4.15,1.5 8.03,1.4 11.66,-0.35"
         style="fill:#231f20;fill-opacity:1;fill-rule:nonzero;stroke:none"
         id="path42"
          /><path
         d="m 721.012,2633.78 -39.582,-10.39 c 63.734,-479.09 281.375,-921.81 628.9,-1269.34 392.22,-392.218 905.66,-619.198 1455.85,-645.941 l -7.99,41.012 C 1709.82,805.492 856.5,1608.01 721.012,2633.78 Z M 5029.02,2616.33 C 4900.05,1697.58 4194.78,961.289 3291.55,785.852 L 3295.68,745 c 431.73,82.32 828.86,291.44 1146.47,609.05 350.44,350.45 568.87,797.67 630.53,1281.39 l -43.66,-19.11 z m -2724.4,2401.31 0,42.63 C 1931.94,4961.39 1590.24,4765.79 1310.33,4485.88 979.301,4154.85 766.121,3737.46 691.531,3284.54 l 43.278,11.57 C 880.477,4127.8 1500.44,4798.26 2304.62,5017.64 Z m 2634.64,-1411.44 39.92,11.43 c -107.02,323.65 -288.97,620.19 -537.03,868.25 -260.54,260.54 -574.59,448.14 -917.35,552.59 l 0,-43.23 c 665.49,-208.42 1194.27,-728.8 1414.46,-1389.04"
         style="fill:#231f20;fill-opacity:1;fill-rule:nonzero;stroke:none"
         id="path44"
          /><path
         d="m 3119.33,557.152 c 3.38,-37.351 6.23,-74.754 8.63,-112.183 1.19,-18.707 2.37,-37.43 3.29,-56.156 0.57,-11.754 5.38,-146.633 -58.38,-74.434 -0.4,0.461 -0.84,0.562 -1.27,0.672 -22.74,33.191 -13.35,95.379 -14.16,129.699 -1.12,47.949 -2.06,95.898 -2.8,143.859 -1.17,77.18 -1.68,154.371 -1.81,231.563 11.26,-1.953 23.1,-3.32 34.89,-3.274 14.01,-86.078 23.73,-172.898 31.61,-259.746 z M 3125,1147.5 c 8.75,-57.18 14.25,-114.9 16.48,-172.691 0.87,-22.579 9.17,-61.489 0.86,-81.399 -17.6,-42.101 -49.37,-56.601 -89.55,-58.32 -0.01,13.762 -0.13,27.519 -0.11,41.289 0.28,177.741 10.95,356.721 6.61,534.481 29.8,-85.74 51.94,-173.33 65.71,-263.36 z m 16.19,-313.488 c 36.91,31.859 23.42,97.847 21.68,140.297 -6.73,164.311 -42.42,324.781 -98.66,479.041 -3.9,10.69 -20.15,7.35 -18.94,-2.44 -23.69,-227.13 -15.24,-461.078 -13.43,-689.148 0.91,-115.114 2.68,-230.25 6.24,-345.313 1.23,-39.719 -8.69,-110.89 41.2,-125.09 1.01,-0.289 1.91,-0.269 2.76,-0.109 27.2,-22.531 66.11,31.898 67.98,65.359 8.38,150.282 -23.3,313.141 -48.3,461.192 14.39,1.789 28.1,6.39 39.47,16.211"
         style="fill:#231f20;fill-opacity:1;fill-rule:nonzero;stroke:none"
         id="path46"
          /><path
         d="m 2950.3,1411.41 c -2.08,4.87 -9.73,2.84 -9.01,-2.47 11.9,-87.9 82.39,-293.42 -51.29,-314.09 -0.03,0 -0.04,-0.03 -0.07,-0.03 -3.25,9 -17.63,7.02 -16.26,-3.44 17.44,-133.118 46.76,-265.599 74.95,-396.79 13.05,-60.75 26.65,-121.391 40.43,-181.981 6.88,-30.277 13.99,-60.507 21.11,-90.738 4.4,-17.789 8.61,-35.621 12.63,-53.5 15.57,-45.621 -2.85,-74.18 -54.36,-86.121 -44.19,36.68 -45.35,177.539 -50.49,219.902 -8.17,67.336 -16.34,134.68 -24.5,202.008 -15.57,128.27 -22.59,262.012 -52.63,387.76 -1.4,5.87 -7.69,6.08 -10.38,2.31 -1.34,5 -6.1,8.9 -12.57,6.22 -69.98,-28.95 -77.5,127.09 -81.63,156.5 -6.31,44.93 -11.63,89.98 -19.33,134.68 -1.87,10.83 -17.39,8.56 -16.76,-2.25 2.92,-50.75 3.79,-373.36 125.34,-306.84 1.72,0.95 2.86,2.22 3.75,3.6 2.08,-174.058 38.04,-352.089 59.26,-524.769 9.71,-79.039 9.87,-167.621 30.94,-244.41 9.57,-34.902 26.97,-55.121 62.5,-58.301 1.16,-0.109 2.19,0.031 3.13,0.289 14.75,-0.73 29.3,5.27 42.44,19.653 44.2,48.398 4.18,139.449 -8.31,191.257 -49.1,203.731 -83.04,410.071 -126.87,614.781 145.82,-66.94 77.46,281.37 57.98,326.77"
         style="fill:#231f20;fill-opacity:1;fill-rule:nonzero;stroke:none"
         id="path48"
          /><path
         d="m 2922.68,1409.73 c -4.34,-31.12 -6.86,-62.51 -7.27,-93.9 -9.91,34.02 -22.48,67.12 -36.65,96.98 -0.85,1.78 -2.09,2.82 -3.44,3.26 -2.67,6.98 -14.13,7.81 -15.01,-1.19 -5.49,-55.91 -6.49,-112.41 -4.55,-168.72 -11.09,54.77 -27.33,109.18 -43.71,161.52 -1.39,4.44 -7.87,2.77 -8.32,-1.32 -4.18,4.35 -12.76,3.76 -13.47,-3.93 -4.5,-48.66 -6.13,-98.24 -4.08,-147.52 -13.38,51.39 -34.24,101.09 -61.27,145.87 -2.96,4.9 -10.49,0.05 -8.44,-4.97 31.54,-77.46 54.8,-153.77 72.28,-235.56 1.39,-6.48 8.96,-6.88 11.88,-2.67 1.89,0.63 3.58,2.18 3.56,4.76 -0.42,76.71 -1,153 1.57,229.66 12.93,-75.11 24.94,-152.51 46.81,-225.3 2,-6.63 10.02,-5.55 13.31,-0.95 2.11,0.26 4.04,1.44 4.07,3.97 0.85,70.58 3.21,141.07 5.07,211.6 16.99,-63.92 31.37,-128.31 48.56,-192.09 2.22,-8.21 13.47,-6.94 13.21,1.77 -0.29,9.35 -0.95,18.83 -1.91,28.39 -2.64,62.94 -2.07,125.01 6.49,187.8 1.64,12.04 -17.01,14.57 -18.69,2.54"
         style="fill:#231f20;fill-opacity:1;fill-rule:nonzero;stroke:none"
         id="path50"
          /><path
         d="m 3349.21,5242 c 20.95,-1.45 41.93,-9.36 58.97,-22.81 10.63,-8.26 19.68,-18.64 26.63,-30.33 7.09,-11.78 11.87,-24.34 14.4,-38.45 l 0.85,-5.57 c 0.26,-1.82 0.58,-3.91 0.59,-5.07 l -0.97,-8.24 -1.43,-17.68 0,-33.03 1.52,-66.05 0.82,-132.11 -1.17,-66.06 -1.17,-33.03 0,-16.51 1.55,-8.43 c -0.02,-3.34 0.62,-6.67 0.35,-9.99 -2.17,-26.55 -11.69,-52.58 -29.2,-73.62 -17.21,-21.09 -43.24,-51.8 -71.54,-54.95 -15.02,-1.38 -24.43,-15.98 -35.76,-15.98 l -32.94,0 -66.01,15.16 -264.2,7.45 -264.21,4.7 -66.05,2.13 -33.02,1.06 -16.52,0.53 c -6.4,0.02 -13.45,0.76 -20.04,1.85 -26.72,4.38 -51.45,17.76 -69.97,37.12 -18.65,19.21 -30.78,45.08 -33.58,71.84 -1.29,14.53 -0.46,24.15 -0.64,35.46 l 0.11,33.04 0.23,66.06 0.45,132.11 0.23,66.06 0.11,33.03 0.06,16.51 c -0.02,2.39 0.1,6.62 0.39,9.85 0.27,3.47 0.79,6.89 1.39,10.3 5.27,27.31 21.06,36.36 40.8,52.49 19.77,16.07 43.98,13.25 71.61,13.25 l 0.03,0 -3.63,12.29 0,5.96 c 0,2.04 -5.87,3.49 -5.56,7.4 0.57,6.69 0.38,13.56 4.34,18.8 3.95,5.31 7.36,9.14 12.24,11.96 4.91,2.82 9.22,4.71 14.25,6.02 2.52,0.62 4.7,1.12 7.24,1.47 2.68,0.35 5.77,-21.68 7.36,-21.68 l 12.22,-22.22 23.8,0 23.81,0 11.9,0 c 4.44,0 10.41,21.98 16.2,20.23 5.86,-1.66 12.37,6.06 17.19,0.64 4.87,-5.32 7.7,-6.25 8.96,-12 0.62,-2.71 1.05,-3.17 1.22,-6.07 l -2.54,-1.58 -2.63,-2.12 0,-11.9 -10.36,-7.2 23.9,0 0.02,0 -14.94,0.42 c 2.36,13.89 5.12,33.37 7.97,47.11 2.76,13.77 5.99,30.24 8.97,43.94 l 9.74,42.28 1.26,5.93 c 0.89,2.93 1.85,6.23 3.06,8.9 2.37,5.42 5.35,10.46 8.71,14.79 6.74,8.72 14.85,15.87 24.69,21.28 4.91,2.7 10.26,5.03 16.24,6.56 2.26,0.77 7.85,1.61 10.38,1.86 l 2.61,0.26 4.11,0.18 c 6.99,0.38 13.97,0.55 20.95,0.75 l 41.9,1.19 c 27.94,0.8 55.87,1 83.81,1.11 27.93,0.09 55.86,-0.19 83.8,-0.69 l 41.9,-1.25 20.95,-0.63 2.83,-0.09 5,-0.36 c 3.21,-0.42 6.45,-0.94 9.38,-1.79 6.02,-1.55 11.41,-3.86 16.35,-6.58 9.89,-5.46 18.03,-12.57 24.79,-21.35 3.48,-4.56 6.12,-8.79 8.98,-15.16 l 1.06,-2.52 0.5,-1.27 0.21,-0.68 0.78,-2.5 0.51,-1.58 0.08,-0.31 0.17,-0.64 0.3,-1.28 0.61,-2.55 9.66,-40.88 5.11,-41.13 c 2.76,-13.77 4.01,-27.55 4.01,-41.48 l 0,-1.19 -7.52,-10.65 17.62,0 -10.1,7.2 0,11.9 0,2.99 c 0,1.66 -2.59,3.33 -2.43,4.99 0.49,3.37 0,6.72 1.36,9.9 2.74,6.36 6.48,11.52 11.16,15.24 4.71,3.75 9.36,6.31 14.36,8.17 5.03,1.86 9.82,3.02 15.04,3.66 l 4.17,0.37 2.93,-22.17 6.41,-22.25 23.8,0 23.81,0 11.91,0 5.95,0 c 2.4,0 5.19,22.15 7.94,21.78 5.52,-0.73 11.73,8.81 17.64,4.96 5.9,-3.74 10.87,-4.18 13.39,-10.22 1.29,-3.01 2.22,-3.24 2.77,-6.1 0.27,-1.43 0.55,-1.44 0.69,-3.04 0.03,-0.28 0.03,0.82 0.06,0.53 z m -30.96,-15.62 0,8.93 -0.06,2.44 c -0.01,1.23 -0.12,1.45 -0.16,1.89 -0.01,0.38 -0.13,0.92 -0.23,1.44 -0.18,1.05 -0.48,1.82 -0.73,2.47 -0.56,1.29 -0.98,1.56 -1.73,2.14 -0.73,0.55 -2.39,-5.49 -4.69,-5.2 -1.19,0.16 -2.37,-6.4 -3.93,-6.4 l -5.95,0 -11.91,0 -23.81,0 -23.8,0 -5.46,0 -2.97,6.54 -1.67,3.12 c -2.66,-0.33 -5.48,0.67 -7.88,-0.23 -4.99,-1.78 -8.16,-3.91 -8.78,-5.72 -0.19,-0.48 -3.18,-0.57 -3.3,-1.12 0.02,-0.32 -2.94,-0.21 -2.94,-0.53 l 0,-2.96 0,-11.9 c 0,-8.64 -1.26,-47.2 -9.9,-47.2 l -17.62,0 c -7.02,0 -12.48,37.94 -12.48,44.3 l 0,-0.87 c 0,12.75 -12.86,25.2 -18.38,38.11 l -16.66,38.68 -15.51,39.04 -1.1,2.4 -0.55,1.19 -0.26,0.6 -0.13,0.3 -0.07,0.16 c -0.11,0.32 0.76,-2.29 0.36,-1.11 l -1.02,2.41 -0.25,0.55 -0.05,-0.08 -0.06,-0.15 c -0.17,-0.09 -1.28,1.63 -2.29,2.43 -2.06,2.02 -4.99,3.94 -7.55,4.79 -1.26,0.47 -2.44,0.72 -3.24,0.68 -0.44,0.09 -0.7,-0.08 -0.94,-0.08 -0.08,-0.06 -0.16,-0.12 -0.23,-0.1 l -2.4,-0.07 -20.95,-0.63 -41.9,-1.25 c -27.94,-0.49 -55.87,-0.77 -83.8,-0.69 -27.94,0.12 -55.87,0.31 -83.81,1.12 l -41.9,1.18 c -6.98,0.2 -13.96,0.37 -20.95,0.75 l -1.31,0.06 -0.65,0.03 -0.33,-11.88 c -1.39,-0.03 1.71,-11.87 1.33,-11.87 l -0.16,0 -2.63,11.89 c -0.91,-0.16 1.17,6.25 0.06,6.09 -0.84,0.02 -2.05,2.72 -3.34,2.22 -2.61,-0.9 -5.57,-1.38 -7.66,-3.47 -1.12,-1.02 -1.89,-1.37 -2.54,-2.23 l -0.87,-0.79 -1.85,-4.6 -15.12,-39.08 c -5.31,-12.98 -10.37,-25.99 -15.89,-38.9 -5.44,-12.93 -10.97,-25.82 -16.9,-38.6 l -1.74,-19.51 c -2.4,-5.17 -7.84,-23.02 -13.2,-23.02 l -0.02,0 -23.9,0 c -8.64,0 -9.64,38.56 -9.64,47.2 l 0,11.9 -2.99,2.44 -1.6,2.97 c -0.12,1.07 -0.96,1.76 -1.19,2.92 -0.44,1.99 -1.47,2.92 -1.95,3.48 -0.46,0.56 -1.39,-5.56 -3.13,-5.04 -1.84,0.52 -4.05,-5.87 -7.54,-5.87 l -11.9,0 -23.81,0 -23.8,0 -11.41,6.6 c -2.38,-0.04 -3.07,3.12 -4.32,2.99 -1.39,-0.19 -2.75,1.2 -4.09,0.87 -5.3,-1.3 -9.75,-3.25 -11.24,-5.46 -0.79,-1.09 -0.95,-1.48 -1.08,-2.68 0.01,-0.48 0.05,0.22 0.05,-1.1 l 0,-2.97 0,-5.96 c 0,-8.25 -6.53,-33.33 -14.63,-33.91 l -1.56,-18.38 0.35,0 c -16.7,0 -33.73,6.16 -46.96,-6.44 -6.58,-6.43 -12.11,-4.5 -16.57,-12.08 -4.33,-7.67 -7.31,-11.13 -8.74,-19.22 -0.29,-2.03 -0.55,-1.76 -0.65,-3.8 -0.13,-2.25 -0.13,-2.38 -0.13,-5.5 l 0.07,-15.93 0.11,-32.74 0.23,-65.92 0.45,-132.03 0.23,-66.02 0.11,-33.02 c 0.17,-10.68 -0.26,-23.17 0.61,-30.57 1.94,-17.05 9.63,-33.2 21.74,-45.53 12,-12.41 28.15,-20.83 44.95,-23.44 4.28,-0.65 8.24,-0.92 12.85,-0.92 l 16.51,0.05 33.03,0.12 66.05,0.22 264.22,0.91 264.22,-4.12 66.05,-4.02 33.03,0 c 10.67,0 23.31,3.62 30.23,4.38 15.65,1.8 30.18,12.01 40.88,24.94 10.77,12.81 17.43,30.79 18.82,48.07 0.18,2.17 2.37,4.83 2.38,7 l 2.12,8.58 0,16.51 -2.07,33.03 -1.01,66.06 -0.44,132.11 1.73,66.05 1.79,33.03 0,15.34 -2.29,8.26 c 0,1.59 -1.21,2.21 -1.34,3.11 l -0.87,2.6 c -1.25,7.57 -4.2,16.02 -7.95,23.4 -3.92,7.42 -8.97,14.51 -15.18,20.49 -12.31,12.11 -28.63,20.28 -47.03,23.7 l -2.72,0.5 c -7.42,1.37 -12.62,7.85 -12.62,15.13"
         style="fill:#231f20;fill-opacity:1;fill-rule:nonzero;stroke:none"
         id="path52"
          /><path
         d="m 3104.26,4976.27 c 0,0 -0.06,3.96 -0.17,11.41 0.16,3.76 -0.35,8.32 -1.04,13.69 -0.36,2.68 -0.51,5.61 -1.07,8.67 -0.66,3.04 -1.37,6.26 -2.12,9.68 -3.35,13.5 -8.58,30.01 -18.88,46.95 -10.1,16.93 -24.71,34.68 -44.85,49.14 -10.3,6.76 -21.33,13.71 -33.96,18.23 -3.13,1.18 -6.28,2.37 -9.47,3.58 -3.28,0.88 -6.6,1.77 -9.94,2.67 -6.79,2.18 -13.18,2.37 -19.86,3.69 -3.29,0.57 -7.75,0.48 -11.61,0.76 l -6.03,0.3 -3.02,0.14 c -0.97,0.03 0.89,0 0.58,-0.02 l -0.35,-0.02 -0.68,-0.05 -1.37,-0.09 c -7.29,-0.61 -14.73,-0.6 -22.04,-2.21 -14.82,-1.97 -29.35,-7 -43.44,-13.16 -14.08,-6.41 -26.97,-15.56 -39.02,-25.7 -11.85,-10.49 -22.02,-22.93 -30.54,-36.41 -8.28,-13.68 -14.35,-28.6 -18.67,-43.93 -1.66,-7.82 -3.6,-15.72 -4.03,-22.82 l -0.68,-5.43 c -0.31,-1.66 -0.15,-4.43 -0.25,-6.59 l -0.19,-12.49 c 1.06,-15.87 3.69,-31.47 8.74,-46.24 5.4,-14.62 12.4,-28.48 21.31,-40.88 9.24,-12.12 19.55,-23.17 31.1,-32.45 11.82,-8.89 24.27,-16.59 37.49,-21.94 3.15,-1.7 6.67,-2.43 9.95,-3.71 3.34,-1.09 6.56,-2.54 10.01,-3.15 3.39,-0.81 6.76,-1.62 10.12,-2.43 3.31,-0.78 6.17,-0.85 9.23,-1.38 4.97,-1.22 14.51,-1.19 22.35,-1.55 l 1.53,-9.23 0.76,-9.21 0.37,0 c 0.52,0 -3.02,9.27 -1.38,9.23 l 2.49,4.74 4.95,2.57 c 3.27,0.27 6.58,1.26 9.78,1.81 25.72,3.31 49.12,12.47 68.55,24.49 19.42,12.05 34.64,27.58 45.77,42.78 11.38,15.17 17.76,30.88 21.98,43.84 0.99,3.29 1.92,6.47 2.81,9.4 0.75,2.87 1.05,5.39 1.6,7.82 0.51,2.41 0.98,4.65 1.41,6.69 0.44,2.08 0.48,4.9 0.71,6.93 0.72,8.61 1.1,13.2 1.1,13.2 l -0.03,-1.32 z m 52.62,-1.34 c 0,0 -0.08,-4.6 -0.24,-13.24 -0.1,-2.28 0.06,-4.31 -0.26,-7.48 -0.37,-3.21 -0.78,-6.71 -1.21,-10.49 -0.5,-3.74 -0.89,-7.97 -1.67,-12.11 -0.91,-4.02 -1.87,-8.3 -2.89,-12.81 -4.55,-17.89 -11.85,-39.62 -25.61,-61.83 -13.54,-22.18 -33,-45.23 -59.58,-64.01 -26.56,-18.51 -60.23,-32.6 -97.46,-36.8 -4.62,-0.7 -9.33,-0.64 -14.05,-0.96 l -7.1,-0.33 -3.57,-0.16 -2.14,0.04 -0.38,0.03 -0.76,0.04 -1.52,0.1 c -8.36,0.67 -15.34,0.56 -26.72,2.59 -5.12,0.88 -10.64,1.54 -15.47,2.77 -4.78,1.28 -9.58,2.57 -14.41,3.87 -4.87,1.14 -9.49,3.16 -14.23,4.88 -4.65,1.91 -9.55,3.32 -14.03,5.74 -18.54,8.39 -35.64,20.16 -51.5,33.49 -15.65,13.67 -29.2,29.87 -40.53,47.59 -11.11,17.91 -19.41,37.53 -25.23,57.83 -5.48,20.46 -7.61,41.62 -7.41,62.58 l 0.07,1.76 0.03,0.43 0.08,0.86 0.14,1.73 0.29,3.44 0.58,6.89 c 0.27,2.42 0.23,4.29 0.76,7.17 l 1.4,8.21 c 1.6,11.25 4.72,21.05 7.65,31 6.9,19.59 16.13,38.16 27.85,54.79 12.06,16.35 25.76,31.16 41.11,43.63 15.62,12.08 32.28,22.4 49.97,29.72 17.64,7.22 35.76,12.78 54,14.78 9.04,1.63 18.13,1.52 27.03,1.93 l 1.68,-14.24 0.83,-14.27 0.42,0 1.33,14.27 3.03,6.99 6.03,3.26 c 4.13,-0.31 7.69,1.6 12.22,0.93 8.9,-1.42 18.2,-1.41 26.16,-3.78 4.11,-1.02 8.19,-1.58 12.23,-2.58 3.94,-1.38 7.84,-2.51 11.72,-3.86 15.5,-5.43 29.63,-12.71 42.68,-20.65 25.86,-16.37 45.93,-36.85 60.5,-57.3 14.84,-20.43 23.28,-41.2 28.71,-58.55 1.26,-4.39 2.45,-8.53 3.57,-12.45 0.99,-3.95 1.52,-7.73 2.21,-11.21 1.35,-6.99 2.35,-12.96 2.56,-17.87 0.76,-9.8 1.16,-15.03 1.16,-15.03 l -0.03,-1.33"
         style="fill:#231f20;fill-opacity:1;fill-rule:nonzero;stroke:none"
         id="path54"
          /><path
         d="m 5301.67,2827.31 c -4.31,2.16 -7.44,3.72 -10.52,5.27 4.73,13.02 8.84,25.82 14.02,38.18 5.08,12.1 11.23,23.75 16.91,35.6 0.13,0.27 0.31,0.53 0.39,0.81 5.74,19.72 16.95,36.9 25.62,55.26 4.74,10.03 9.62,19.98 14.3,30.03 1.01,2.15 1.52,4.55 2.12,6.86 0.52,2.04 0.46,4.32 1.33,6.15 6.18,12.97 12.63,25.81 18.8,38.77 3.35,7.03 6.37,14.22 9.48,21.36 1.08,2.47 1.61,5.25 3.05,7.48 10.26,15.95 15.8,34.15 24.93,51.63 3.11,-0.89 6.42,-1.83 10.61,-3.02 -2.52,-5.79 -4.61,-11 -7.01,-16.05 -12.14,-25.49 -24.56,-50.85 -36.47,-76.45 -6.07,-13.05 -11.11,-26.57 -16.87,-39.77 -10.1,-23.12 -20.51,-46.11 -30.55,-69.25 -11.6,-26.74 -22.92,-53.59 -34.39,-80.37 -1.64,-3.83 -3.48,-7.57 -5.75,-12.49"
         style="fill:#231f20;fill-opacity:1;fill-rule:evenodd;stroke:none"
         id="path56"
          /><path
         d="m 5272.24,2833.64 c 1.12,-15.6 2.11,-29.55 3.09,-43.29 6.17,-2.12 11.51,-3.95 16.86,-5.79 9.77,7.68 18.73,15.63 27.49,26.25 -16.4,7.9 -31.38,15.11 -47.44,22.83 z m 32.65,87.4 c -9.02,-22.56 -18.19,-45.06 -27.29,-67.59 -1.64,-4.07 -3.3,-8.13 -5.11,-12.6 4.03,-1.91 7.22,-3.43 11.67,-5.54 2.34,4.05 4.59,7.23 6.12,10.73 5.65,12.92 10.96,25.98 16.58,38.91 8.49,19.54 16.79,39.17 25.79,58.46 10.54,22.6 21.33,45.03 30.99,68.07 14.05,33.5 30.34,66.06 45.61,99.06 2.47,5.34 4.6,10.84 6.93,16.39 -4.64,1.92 -8.47,3.51 -13.25,5.48 -1.76,-3.17 -3.58,-6.17 -5.13,-9.31 -12.91,-26.14 -25.88,-52.25 -38.62,-78.47 m 80.11,73.83 c -1.57,-2.45 -2.65,-3.87 -3.46,-5.44 -7.8,-15.16 -15.64,-30.3 -23.26,-45.56 -1.57,-3.15 -1.93,-6.9 -3.43,-10.11 -6.21,-13.27 -12.97,-26.31 -18.9,-39.7 -5.95,-13.42 -10.86,-27.3 -16.75,-40.75 -10.23,-23.36 -21,-46.5 -31.3,-69.83 -9.59,-21.69 -18.94,-43.49 -28.23,-65.31 -2.32,-5.45 -4.02,-11.17 -6.02,-16.81 2.22,-1.32 3.78,-2.17 5.25,-3.13 7.3,-4.78 7.75,-4.75 11.7,3.36 6.71,13.79 13.58,27.51 19.82,41.5 18.09,40.61 35.96,81.3 53.79,122.03 8.55,19.54 16.97,39.13 25.12,58.85 8.7,21.05 17.01,42.26 25.84,64.29 -2.42,1.57 -5.83,3.79 -10.17,6.61 z m -166.53,-361.73 c -5.13,1.81 -6.04,4.86 -6,8.9 0.12,11.43 0.31,22.89 -0.25,34.29 -0.62,12.59 -2.17,25.12 -3.04,37.7 -0.2,2.89 0.12,6.1 1.19,8.76 7.63,18.93 15.59,37.72 23.31,56.61 8.99,22 17.66,44.12 26.81,66.04 5.2,12.48 11.01,24.7 16.69,36.98 8.94,19.37 17.76,38.81 27.07,58.01 8.77,18.07 18.14,35.86 27.2,53.79 3.53,6.98 6.78,14.09 10.45,20.99 2.41,4.54 5.88,5.7 9.54,2.65 7.24,-6.02 16.25,-7.56 24.64,-10.46 9.53,-3.29 18.03,-8.19 26.03,-14.01 4.91,-3.56 4.5,-4.79 1.77,-10.39 -8.15,-16.71 -15.86,-33.57 -22.27,-51.12 -7.2,-19.73 -16.4,-38.74 -24.74,-58.06 -7.02,-16.28 -13.86,-32.65 -21.15,-48.82 -15.18,-33.7 -30.69,-67.26 -45.88,-100.96 -5.43,-12.04 -10.18,-24.37 -15.48,-36.46 -1.16,-2.66 -2.94,-5.28 -5.05,-7.25 -10.52,-9.86 -21.28,-19.44 -31.88,-29.21 -6.35,-5.87 -12.55,-11.89 -18.96,-17.98"
         style="fill:#231f20;fill-opacity:1;fill-rule:evenodd;stroke:none"
         id="path58"
          /><path
         d="m 5223.42,2717.86 c 4.07,28.29 7.49,54.32 11.62,80.23 7.48,46.88 15.73,93.64 23.02,140.56 5.98,38.48 11.11,77.1 16.48,115.68 6.65,47.77 13.45,95.52 19.7,143.34 8.39,64.15 16.1,128.39 33.53,190.95 1.79,6.4 2.27,13.19 3.73,22.04 -22.52,3.06 -43.01,5.85 -64.48,8.77 -1.48,-7.7 -2.49,-13.71 -3.81,-19.64 -1.53,-6.85 -4.15,-13.56 -4.84,-20.47 -1.08,-11.14 -7.55,-14.35 -17.41,-14.38 -17.81,-0.02 -25.57,6.75 -25.59,25.17 -0.01,12.82 2.29,25.65 3.6,38.93 -17.85,3.62 -34.25,8.51 -52.36,1.94 6.64,-20.13 -0.8,-34.93 -16.19,-46.47 -9.15,-6.85 -19.07,-3.71 -25.83,2.57 -16.59,15.45 -9.39,33.99 -2.29,53.65 -10.96,1.49 -20.42,2.78 -28.2,3.85 -5.5,-18.63 -10.15,-34.42 -14.61,-49.49 -14.07,-0.01 -25.71,-0.61 -37.26,0.14 -13.29,0.87 -16.91,6.29 -11.59,18.26 5.66,12.75 9.27,25.53 8.99,40.79 -11.87,0.68 -22.52,1.3 -34.99,2.03 -2.32,-18.54 -4.45,-35.46 -6.74,-53.64 -18.94,5.42 -34.37,9.84 -49.94,14.29 3.64,15.54 6.96,29.72 10.78,46.02 -14.57,-0.02 -26.71,-0.03 -39.65,-0.05 -1.56,-14.87 -2.96,-28.36 -4.48,-42.83 -17.01,2.95 -31.22,5.41 -46.21,8.01 1.39,13.95 2.67,26.87 4.08,41.02 -16.84,2.17 -31.83,4.09 -47.89,6.15 -1.74,-8.94 -3.48,-15.65 -4.31,-22.46 -2.56,-20.87 -3.99,-41.92 -7.27,-62.67 -7.52,-47.58 -16.9,-94.88 -23.64,-142.56 -8.47,-59.99 -12.96,-120.53 -25.01,-180.08 -3.38,-16.71 0.02,-35.27 -5.45,-50.99 -13.07,-37.56 -7.54,-77.12 -16.07,-115.2 -8.43,-37.7 -11.77,-76.57 -16.99,-114.97 -1.83,-13.56 -2.6,-27.24 -3.9,-41.25 9.52,-2.74 16.91,-6.51 24.4,-6.75 36.52,-1.15 73.07,-1.27 109.6,-1.91 34.2,-0.61 68.46,-0.38 102.58,-2.34 69.14,-3.98 138.2,-9.3 207.3,-13.83 18.57,-1.21 37.21,-1.58 57.59,-2.41 z m -347.62,771.9 c 1.97,13.97 4.09,24.56 4.8,35.25 0.82,12.49 5.62,19.16 16.66,20.53 12.9,1.6 27.35,-7.04 28.71,-18.19 0.74,-6.03 -0.69,-12.37 -1.42,-18.53 -0.8,-6.79 -1.92,-13.54 -3.37,-23.55 13.2,-0.32 24.45,-0.6 38.48,-0.95 1.83,8.46 3.83,16.31 5.17,24.28 2.3,13.64 9.66,20.92 20.92,20.07 15.59,-1.18 28.24,-13.54 26.71,-26.87 -0.78,-6.81 -3.06,-13.44 -5.23,-22.55 13.44,-1.73 25.39,-3.27 39.86,-5.12 1.29,13.65 2.43,25.65 3.66,38.46 12.73,11.89 25.91,7.37 39.43,-1.1 16.66,-10.43 7.5,-24.76 5.69,-40.94 9.1,-2.12 18.3,-4.28 30.23,-7.06 1.21,10.31 3.32,18.5 2.87,26.54 -0.97,17.68 1.48,21.69 17.16,23 17.21,1.44 29.74,-6.84 30.23,-21.5 0.37,-10.72 -1.57,-21.51 -2.65,-34.17 17.68,-2.01 34.27,-3.89 52.02,-5.91 1.49,9.15 2.74,16.69 3.93,24.24 2.13,13.51 7.41,17.48 20.09,15.02 16.22,-3.15 23.87,-14.14 20.71,-30.14 -0.88,-4.48 -2.45,-8.83 -4.18,-14.92 5.9,-1.71 10.68,-3.55 15.62,-4.45 21.46,-3.91 42.99,-7.42 64.45,-11.32 11.16,-2.03 14.47,-7.29 11.17,-17.87 -23.28,-74.66 -33.13,-151.85 -43.87,-228.94 -6.55,-46.99 -8.27,-94.52 -20.03,-141.01 -7.56,-29.92 -8.16,-61.55 -12.8,-92.28 -4.89,-32.32 -11.75,-64.34 -16.18,-96.71 -4.93,-36.11 -8.34,-72.45 -11.9,-108.75 -1.28,-13.08 -0.93,-26.32 -1.56,-39.48 -0.58,-12.52 -5.34,-16.07 -17.99,-14.67 -35.5,3.96 -70.95,9.03 -106.57,11.24 -44.18,2.74 -88.53,2.7 -132.77,4.61 -13.03,0.56 -25.91,4.86 -38.93,5.39 -34.87,1.39 -69.78,1.65 -104.68,2.42 -4.67,0.1 -9.33,0.67 -14,0.94 -21.63,1.25 -42.79,3.97 -64.96,-0.42 -19.4,-3.83 -40.24,-0.68 -60.42,0.05 -10.42,0.38 -15.06,8.21 -14.73,17.31 0.67,17.81 2.02,35.67 4.53,53.32 4.91,34.52 11.16,68.85 16.23,103.35 9.17,62.31 17.83,124.69 26.8,187.03 11.75,81.75 25.86,163.25 34.5,245.32 4.48,42.59 20.38,83.14 19.23,126.37 -0.27,10.04 1.16,20.18 0.31,30.15 -1.48,17.61 4.79,24.66 21.94,22.06 17.63,-2.68 35.15,-5.95 56.13,-9.55"
         style="fill:#231f20;fill-opacity:1;fill-rule:evenodd;stroke:none"
         id="path60"
          /><path
         d="m 4840,3102.17 c 48.98,-3.03 96.19,-5.63 143.34,-8.95 58.2,-4.08 116.36,-8.79 174.55,-13.15 20.91,-1.57 41.87,-2.73 62.77,-4.52 5.91,-0.51 11.68,-2.58 17.22,-7.94 -7.33,-0.45 -14.66,-1.46 -21.97,-1.27 -54.4,1.38 -108.64,4.12 -162.89,9.7 -57.16,5.88 -114.83,6.79 -172.29,9.89 -10.09,0.54 -20.21,0.86 -30.26,1.88 -8.31,0.86 -12.38,5.52 -10.47,14.36"
         style="fill:#231f20;fill-opacity:1;fill-rule:evenodd;stroke:none"
         id="path62"
          /><path
         d="m 4835.49,3166.25 c 14.52,0.38 25.66,1.49 36.7,0.82 70.06,-4.29 140.05,-9.56 210.13,-13.3 48.23,-2.57 96.57,-3.09 144.87,-4.83 5.56,-0.21 11.06,-2.33 16.6,-3.57 -0.06,-1.84 -0.1,-3.68 -0.16,-5.52 -5.48,-0.86 -11.01,-2.64 -16.45,-2.42 -95.74,4.02 -191.46,8.13 -287.16,12.66 -15.46,0.73 -30.77,4.13 -46.23,5.21 -11.52,0.8 -23.18,0.18 -34.75,-0.47 -7.66,-0.44 -15.63,-3.39 -23.55,11.42"
         style="fill:#231f20;fill-opacity:1;fill-rule:evenodd;stroke:none"
         id="path64"
          /><path
         d="m 4856.44,3308.83 c 126.68,-19.48 253.37,-9.08 378.4,-25.32 1.64,-0.21 2.9,-3.23 6.27,-7.22 -5.98,-1.71 -10.69,-4.63 -14.91,-4.05 -43.78,6.08 -87.58,12.9 -131.91,9.87 -48.41,-3.31 -96.23,3.02 -144.28,6.18 -27.1,1.79 -54.28,2.72 -81.44,3.44 -9.72,0.27 -14.72,3.04 -12.13,17.1"
         style="fill:#231f20;fill-opacity:1;fill-rule:evenodd;stroke:none"
         id="path66"
          /><path
         d="m 4787.74,2919.97 c 126.17,1.34 251.61,-11.74 380.99,-20.33 -8.4,-10.1 -16.12,-8.4 -23.07,-8.05 -36.52,1.91 -73.04,4.07 -109.55,6.16 -60.62,3.45 -121.21,7.17 -181.85,10.24 -18.62,0.93 -37.34,-0.27 -55.98,0.39 -4.13,0.14 -8.13,3.97 -12.19,6.1 0.55,1.84 1.1,3.67 1.65,5.49"
         style="fill:#231f20;fill-opacity:1;fill-rule:evenodd;stroke:none"
         id="path68"
          /><path
         d="m 4861.49,3231.34 c 129.62,-9.91 257.98,1.99 385.24,-13.12 0.29,-1.64 0.57,-3.28 0.86,-4.91 -3.39,-1.48 -6.83,-4.38 -10.16,-4.26 -58.24,2.01 -116.47,5.06 -174.72,6.51 -61.38,1.53 -122.78,1.6 -184.17,2.34 -8.06,0.09 -18.04,-2.4 -17.05,13.44"
         style="fill:#231f20;fill-opacity:1;fill-rule:evenodd;stroke:none"
         id="path70"
          /><path
         d="m 5216.3,3021.03 c -26.99,-7.21 -54.22,-8.73 -82.03,-6.56 -71.39,5.57 -142.82,10.86 -214.29,15.24 -23.28,1.42 -46.74,-0.23 -70.12,-0.68 -7.81,-0.14 -15.52,-0.81 -19.41,11.56 130.46,7.39 257.62,-16.69 385.85,-19.56"
         style="fill:#231f20;fill-opacity:1;fill-rule:evenodd;stroke:none"
         id="path72"
          /><path
         d="m 4832.13,2975.36 c 1.78,15.08 9.62,14.6 17.5,14.42 51.38,-1.25 102.8,-1.54 154.13,-3.88 49.79,-2.27 99.51,-6.31 149.2,-10.23 17.53,-1.4 34.92,-4.74 52.07,-9.87 -123.53,6.2 -246.77,14.97 -372.9,9.56"
         style="fill:#231f20;fill-opacity:1;fill-rule:evenodd;stroke:none"
         id="path74"
          /><path
         d="m 4808.24,2840.02 c 11.8,15.71 24.55,14.79 36.43,14.69 31.95,-0.32 63.93,-0.7 95.85,-2.13 52.13,-2.33 104.25,-5.05 156.31,-8.64 19.12,-1.32 38.05,-5.57 56.89,-10.87 -113.44,5.07 -226.72,12.13 -345.48,6.95"
         style="fill:#231f20;fill-opacity:1;fill-rule:evenodd;stroke:none"
         id="path76"
          /><path
         d="m 872.273,3082.08 c 4.063,-82.07 77.653,-164.59 115.055,-235.62 23.162,-44 43.052,-87.89 59.372,-134.93 14.19,-40.88 48.14,-86.18 13.31,-124.6 -10.2,-11.24 8.49,-26.36 18.52,-14.8 17.01,19.62 29.32,32.08 27.59,58.53 -0.61,9.46 -25.34,52.04 -24.76,50.67 -10.38,24.28 -17.01,49.84 -26.42,74.45 -15.97,41.77 -38.75,80.64 -60.327,119.83 -35.218,63.96 -98.605,136.78 -112.258,208.25 -1.105,5.79 -10.363,3.92 -10.082,-1.78 l 0,0"
         style="fill:#231f20;fill-opacity:1;fill-rule:nonzero;stroke:none"
         id="path78"
          /><path
         d="m 1074.75,2585.44 c -73.02,73.85 -154.305,139.78 -224.234,216.66 -34.672,38.13 -80.664,64.98 -111.18,106.24 -5.191,7.03 -16.531,6.39 -20.203,-1.88 -17.317,-39.03 71.347,-84.48 93.406,-106.41 80.227,-79.76 157.633,-165.32 252.931,-227.61 7.93,-5.19 15.45,6.75 9.28,13 l 0,0"
         style="fill:#231f20;fill-opacity:1;fill-rule:nonzero;stroke:none"
         id="path80"
          /><path
         d="m 761.672,3163.03 c -84.817,26.25 -177.277,39.78 -264.465,58.21 -83.965,17.75 -167.148,45.06 -252.137,56.61 -4.207,0.57 -10.16,-2.82 -11.832,-6.71 -8.793,-20.47 -10.66,-33.25 -8.941,-56.35 1.262,-16.99 27.894,-17.87 26.726,-0.65 -3.414,50.35 80.321,18.19 109.317,12.82 47.902,-8.87 95.234,-20.5 143.105,-29.53 43.934,-8.28 86.778,-17.39 130.305,-27.6 40.527,-9.52 83.266,-9.93 123.406,-20.03 8.614,-2.17 13.215,10.54 4.516,13.23 l 0,0"
         style="fill:#231f20;fill-opacity:1;fill-rule:nonzero;stroke:none"
         id="path82"
          /><path
         d="m 636.988,2984.18 c -30.359,5.68 -89.508,45.85 -118.355,63.58 -43.867,26.96 -85.789,57.32 -126.863,88.24 -29.02,21.84 -57.797,40.63 -89.407,58.65 -25.648,14.62 -45.093,36.21 -73.886,42.8 -15.872,3.64 -24.387,-20.56 -8.375,-24.11 25.378,-5.63 49.191,-27.28 72.464,-39.75 41.926,-22.46 77.391,-51.43 115.762,-79.11 37.598,-27.12 78.785,-53.45 119.199,-76.3 33.559,-18.98 68.672,-44.22 107.653,-46.02 7.691,-0.36 9.64,10.55 1.808,12.02 l 0,0"
         style="fill:#231f20;fill-opacity:1;fill-rule:nonzero;stroke:none"
         id="path84"
          /><path
         d="m 920.531,3324.02 c 17.949,-9.44 53.856,-3.86 50.719,-35.32 -1.211,-12.14 -21.367,-30.87 -27.652,-42.07 -18.422,-32.81 -30.789,-67.36 -51.676,-98.98 -16.492,-24.96 -29.125,-42.12 -30.449,-71.83 -0.563,-12.63 16.406,-13.6 20.558,-3.1 17.379,43.9 45.852,81.74 65.766,124.75 13.715,29.62 36.375,56.73 47.652,86.96 21.031,56.34 -32.035,44.45 -66.566,58.3 -10.828,4.35 -18.715,-13.26 -8.352,-18.71 l 0,0"
         style="fill:#231f20;fill-opacity:1;fill-rule:nonzero;stroke:none"
         id="path86"
          /><path
         d="m 936.199,3337.72 c -34.707,-16.08 -67.926,-41.92 -96.371,-67.12 -13.375,-11.85 -23.887,-26.71 -35.926,-39.83 -13.664,-14.89 -30.425,-25.08 -44.695,-39.2 -12.684,-12.55 7,-31.47 19.856,-19.24 23.664,22.52 43.464,41.16 63.507,67.51 25.145,33.05 63.125,67.79 97.383,90.59 4.305,2.86 1.156,9.57 -3.754,7.29 l 0,0"
         style="fill:#231f20;fill-opacity:1;fill-rule:nonzero;stroke:none"
         id="path88"
          /><path
         d="m 721.406,2915.9 c -7.801,-19.57 -23.164,-27.06 -38.179,-41.51 -20.465,-19.69 -39.118,-38.78 -61.211,-56.99 -30.246,-24.94 -51.786,-60.28 -74.563,-91.72 -9.652,-13.32 10.43,-26.65 20.711,-14.4 31.684,37.75 57.18,74.41 93.785,108.01 27.625,25.36 64.742,54.21 73.731,92.36 2.226,9.45 -10.746,13.08 -14.274,4.25 l 0,0"
         style="fill:#231f20;fill-opacity:1;fill-rule:nonzero;stroke:none"
         id="path90"
          /><path
         d="m 634.516,2983.09 c -36.207,-7.22 -56.59,-47.97 -79.161,-74.04 -38.464,-44.44 -85.511,-89.82 -114.628,-140.78 -5.375,-9.41 5.964,-20.59 14.75,-12.89 30.382,26.64 53.507,62.01 78.527,93.63 23.426,29.6 71.008,112.54 103.648,124.23 6.387,2.29 3.27,11.13 -3.136,9.85 l 0,0"
         style="fill:#231f20;fill-opacity:1;fill-rule:nonzero;stroke:none"
         id="path92"
          /><path
         d="m 452.73,2774.53 c -20.796,-5.63 -39.953,1.06 -60.289,3.94 -18.808,2.66 -37.918,-0.71 -56.898,3.39 -12.461,2.7 -22.316,-10.7 -13.656,-21.19 14.234,-17.24 31.59,-29.87 50.57,-41.45 19.731,-12.04 39.625,-26.56 60.371,-36.4 10.848,-5.14 21.848,9.55 14.238,18.65 -27.742,33.19 -75.593,44.6 -105.785,76.69 -3.457,-7.26 -6.914,-14.52 -10.371,-21.78 23.391,-3.44 46.442,1.24 69.817,-0.06 18.773,-1.04 38.183,-0.2 55.367,8.12 6.015,2.92 3.433,11.94 -3.364,10.09 l 0,0"
         style="fill:#231f20;fill-opacity:1;fill-rule:nonzero;stroke:none"
         id="path94"
          /><path
         d="m 472.422,2656.78 c 7.797,-9.19 -0.516,-14.95 -9.887,-16.34 -9.117,-1.35 -19.531,1.67 -27.328,6.35 -5.039,3.03 -12.121,6.73 -13.477,12.47 -1.468,6.21 3.579,12.07 6.786,16.94 8.004,12.14 -9.59,27.53 -20.024,16.68 -13,-13.53 -18.918,-28.98 -10.605,-47.03 7.308,-15.86 31.113,-26.51 47.625,-28.59 15.269,-1.93 32.129,1.93 42.601,13.85 11.43,13 6.457,26.56 -6.679,35.8 -6.399,4.5 -14.024,-4.23 -9.012,-10.13 l 0,0"
         style="fill:#231f20;fill-opacity:1;fill-rule:nonzero;stroke:none"
         id="path96"
          /><path
         d="m 610.555,3193.26 c 8.761,-8.64 22.211,-11.28 32.64,-3.24 11.305,8.72 3.321,26 -4.445,34.45 -20.68,22.48 -47.645,16.31 -66.613,-4.9 -10.364,-11.59 9.187,-26.59 19.39,-14.67 5.028,5.88 13.348,13.31 21.828,10.51 7.516,-2.49 13.18,-11.07 14.938,-18.25 0.973,3.27 1.941,6.54 2.914,9.81 -3.246,-3.85 -9.344,-7.38 -14.719,-5.35 -5.23,1.97 -10.406,-3.94 -5.933,-8.36 l 0,0"
         style="fill:#231f20;fill-opacity:1;fill-rule:nonzero;stroke:none"
         id="path98"
          /><path
         d="m 514.031,3206.69 c -8.508,26.32 -18.121,49.54 -44.14,63.22 -22.25,11.7 -48.797,6.77 -50.59,-21.85 -0.949,-15.13 19.957,-18.77 23.402,-3.72 3.574,15.6 21.766,5.17 30.461,-0.69 15.551,-10.48 22.52,-26.02 31.176,-41.83 3.051,-5.58 11.543,-0.85 9.691,4.87 l 0,0"
         style="fill:#231f20;fill-opacity:1;fill-rule:nonzero;stroke:none"
         id="path100"
          /><path
         d="m 931.762,2953.37 c 15.207,-1.02 52.113,-21.4 41.863,-41.14 -4.355,-8.38 6.934,-15.94 13.367,-9.28 28.268,29.25 -27.019,66.59 -54.617,61.55 -5.652,-1.04 -7.465,-10.67 -0.613,-11.13 l 0,0"
         style="fill:#231f20;fill-opacity:1;fill-rule:nonzero;stroke:none"
         id="path102"
          /><path
         d="m 998.754,2845.71 c 16.566,-1.34 34.746,-5.93 39.366,-24.06 3.92,-15.43 -2.54,-32.12 -7.38,-46.55 -2.64,-7.86 8.18,-12.61 12.79,-6.08 12.75,18.07 17.66,44.06 6.29,64.23 -10.6,18.81 -31.28,23.56 -51.066,18.78 -3.234,-0.78 -3.871,-6.01 0,-6.32 l 0,0"
         style="fill:#231f20;fill-opacity:1;fill-rule:nonzero;stroke:none"
         id="path104"
          /><path
         d="m 1080.13,2576.58 c -21.84,47.98 -62.4,80.36 -99.989,116.42 -52.813,50.67 -107.243,103.69 -164.528,149.25 -8.367,6.66 -19.148,-5.35 -11.043,-12.54 49.879,-44.29 99.735,-88.55 149.903,-132.5 41.507,-36.35 90.427,-77.29 117.327,-125.64 3.11,-5.59 10.86,-0.55 8.33,5.01 l 0,0"
         style="fill:#231f20;fill-opacity:1;fill-rule:nonzero;stroke:none"
         id="path106"
          /><path
         d="m 617.199,3010.96 c -67.176,48.24 -138.32,89.35 -208.125,133.76 -45.629,29.02 -86.926,61.91 -129.265,94.8 -13.797,10.72 -20.911,17.99 -38.891,16.43 -13.262,-1.15 -13.992,-21.9 -0.453,-20.96 28.199,1.96 86.426,-54.75 109.285,-70.27 27.102,-18.4 53.422,-35.77 82.012,-52.13 61.195,-35.01 121.066,-72.75 180.636,-110.09 5.407,-3.39 9.77,4.89 4.801,8.46 l 0,0"
         style="fill:#231f20;fill-opacity:1;fill-rule:nonzero;stroke:none"
         id="path108"
          /><path
         d="m 570.512,2706.32 c -1.633,-0.55 3.402,1.28 3.078,1.12 11.558,5.62 -4.66,21.22 -9.828,10.33 -8.75,-18.46 3.515,-32.39 8.144,-50.92 6.192,-24.78 7.18,-50.76 14.696,-75.12 2.918,-9.46 17.472,-5.98 16.777,3.62 -1.66,22.91 -7.551,45.9 -12.606,68.29 -3.668,16.25 -15.375,33.56 -13.367,50 1.539,12.59 -22.519,7.06 -12.699,-4.83 0.422,-0.51 0.844,-1.02 1.262,-1.53 1.183,-1.43 2.929,-1.5 4.543,-0.96 l 0,0"
         style="fill:#231f20;fill-opacity:1;fill-rule:nonzero;stroke:none"
         id="path110"
          /><path
         d="m 478.078,2665.83 c -10.359,-18.82 12.563,-33.69 26.828,-41.4 13.332,-7.21 26.356,-12.94 39.11,-21.4 16.586,-11.01 24.863,-28.51 45.746,-27.56 9.625,0.45 13.14,12.52 8.125,19.46 -16.117,22.3 -42.203,35.06 -67.649,44.39 -7.152,2.62 -42.09,11.8 -40.035,22.03 1.285,6.41 -8.961,10.24 -12.125,4.48 l 0,0"
         style="fill:#231f20;fill-opacity:1;fill-rule:nonzero;stroke:none"
         id="path112"
          /></g></g></svg>