<?xml version="1.0" encoding="UTF-8" standalone="no"?>
<svg
   xmlns:dc="http://purl.org/dc/elements/1.1/"
   xmlns:cc="http://creativecommons.org/ns#"
   xmlns:rdf="http://www.w3.org/1999/02/22-rdf-syntax-ns#"
   xmlns:svg="http://www.w3.org/2000/svg"
   xmlns="http://www.w3.org/2000/svg"
   id="svg2"
   version="1.1"
   xml:space="preserve"
   width="470"
   height="370"
   viewBox="0 0 470 370"><metadata
     id="metadata8"><rdf:RDF><cc:Work
         rdf:about=""><dc:format>image/svg+xml</dc:format><dc:type
           rdf:resource="http://purl.org/dc/dcmitype/StillImage" /><dc:title></dc:title></cc:Work></rdf:RDF></metadata><defs
     id="defs6" /><g
     id="g10"
     transform="matrix(1.25,0,0,-1.25,-120.11228,538.15721)"><g
       id="g12"
       transform="scale(0.1,0.1)"><path
         d="m 1908.62,3319.68 c 0.97,14.04 2.06,30.12 3.24,48.27 1.18,18.11 2.61,40.06 4.3,65.79 1.7,25.7 3.86,56.17 6.56,91.28 2.7,35.1 6.53,77.72 10.02,126.43 2.24,31.2 3.96,59.89 6,85.06 2.03,25.13 3.63,48.52 4.78,70.12 1.14,21.56 1.82,41.67 2.01,60.27 0.19,18.58 1.89,39.07 1.39,57.6 -0.21,7.54 -0.54,12.71 0.64,13.99 -1.18,-1.28 -1.6,-3.63 -1.28,-7.09 0.32,-3.45 -0.06,-8.24 -0.64,-13.99 -1.49,-14.83 -3.18,-35.14 -5.98,-59.77 -2.8,-24.63 -5.79,-53.97 -8.87,-87.93 -8.93,-98.06 -16.35,-196.56 -21.57,-294.85 -4.22,-79.41 -5.47,-137.68 -4.02,-174.71 0.57,-12.49 0.86,-18.74 1.44,-31.23 0.78,20.3 1.17,30.45 1.98,50.76 z m -72.71,81.14 c 0.5,17.51 1.42,34.46 2.69,50.89 1.28,16.4 2.72,34.31 4.34,53.67 1.62,19.36 3.28,41.35 5.01,65.94 1.74,24.58 4.71,54.72 8.33,89.81 4.45,43.16 7.92,78.41 10.92,104.87 3.01,26.45 5.53,48.76 7.53,66.99 2,18.21 3.21,34.88 3.62,50.04 0.41,15.12 0.51,33.55 1.36,54.15 0.67,16.09 1.35,32.08 1.15,47.16 -0.2,15.05 -0.46,24.35 -0.8,27.8 -1.87,5.62 -2.74,7.84 -2.63,6.71 0.12,-1.16 0.21,-7.17 -0.22,-17.45 -0.68,-16.08 -3.6,-39.3 -7.74,-68.73 -4.14,-29.47 -8.97,-67.74 -14.34,-114.76 -6.7,-58.81 -11.83,-109.07 -15.57,-150.71 -3.74,-41.67 -6.05,-77.99 -7.04,-108.89 -1,-30.92 -1.36,-58.59 -1.15,-82.97 0.22,-24.39 1.05,-48.73 2.53,-72.99 0.8,-13.87 1.2,-20.8 2.01,-34.67 -0.01,13.26 -0.01,19.89 0,33.14 z m -41.89,93.01 c -0.16,-6.75 -0.07,-7.59 1.11,-1.62 1.18,5.94 3.03,18.72 4.17,37.12 0.99,15.95 3.09,44.25 7.48,83.71 4.39,39.43 9.09,79.37 13.43,119.22 7.13,65.47 12.86,115.3 17.78,148.37 4.92,33.03 6.55,62.74 7.55,86.2 0.58,13.55 0.86,20.13 -0.9,18.21 -1.75,-1.93 -3.08,-11.09 -3.99,-27.43 -0.46,-8.19 -2.1,-17.38 -4.92,-27.54 -2.83,-10.18 -5.13,-25.24 -6.89,-45.18 -7.86,-60.11 -13.73,-111.93 -17.86,-155.38 -4.13,-43.48 -7.59,-80.52 -10.45,-111.06 -2.87,-30.57 -4.7,-55.8 -5.56,-75.65 -0.85,-19.88 -0.68,-36.74 -0.95,-48.97 z M 1743,4044.7 c 2.06,4.86 2.45,7.25 1.17,7.11 -0.13,1.13 -1.54,-1.07 -4.19,-6.58 -2.65,-5.53 -5.45,-12.83 -8.34,-21.89 -2.9,-9.06 -6.09,-18.47 -9.54,-28.15 -3.47,-9.73 -6.65,-18.83 -9.57,-27.3 -4.45,-17.97 -9.96,-40.17 -16.53,-66.55 -6.57,-26.41 -10.76,-59.71 -14.32,-97.79 -3.04,-32.56 -6.56,-61.39 -8.72,-84.93 -2.16,-23.58 -3.99,-44.49 -5.49,-62.72 -1.51,-18.26 -3.13,-35.34 -4.88,-51.3 -1.75,-15.95 -3.71,-33.75 -6.5,-52.39 -3.17,-21.17 -5.97,-40.98 -7.41,-58.65 -1.44,-17.68 -1.99,-27.67 -1.69,-29.95 0.75,-5.75 2.32,-1.16 4.73,13.73 2.42,14.86 5.38,35.37 8.91,61.46 3.53,26.06 7.03,55.37 10.52,87.85 3.48,32.47 7.04,63.81 9.34,92.9 2.09,26.59 3.99,50.56 6.66,70.7 2.67,20.09 5.32,38.2 7.91,54.22 2.58,16.01 5.36,30.61 8.33,43.78 2.97,13.14 6.7,27.24 9.72,41.3 4.45,20.7 9.17,44.13 15.57,68.14 6.39,23.98 11.2,39.67 14.32,47.01 z m -111.38,-492.17 c 0.45,-3.44 1.65,-0.65 3.6,8.34 1.96,8.98 3.83,21.18 5.62,36.57 1.79,15.37 3.33,32.78 4.64,52.17 1.31,19.4 2.76,37.94 4.33,55.62 4.31,76.27 12.56,141.97 24.67,197.01 12.11,55 25.19,101.97 39.12,140.84 2.32,2.58 3.62,5.67 3.87,9.17 0.26,3.51 1.15,6.61 1.93,8.95 1.08,3.24 1.93,6.04 3.12,7.34 -1.32,-0.15 -3.81,-4.24 -7.49,-12.21 -3.7,-8 -7.79,-18.08 -12.26,-30.22 -4.49,-12.17 -8.6,-24.61 -12.32,-37.25 -3.72,-12.66 -7.03,-23.27 -9.92,-31.75 -6.11,-25.18 -12.15,-50.39 -18.1,-75.57 -5.96,-25.18 -10.49,-57.3 -13.19,-95.99 -1.39,-19.93 -2.62,-37.65 -3.86,-52.92 -1.25,-15.31 -2.27,-29.75 -3.09,-43.22 -0.82,-13.51 -1.69,-26.46 -2.63,-38.8 -0.94,-12.34 -2.25,-25.83 -4.32,-39.89 -1.92,-12.99 -3.3,-25.51 -3.65,-37.2 -0.35,-11.71 -0.37,-18.71 -0.07,-20.99 z m 557.5,168.94 c 10.77,-0.9 20.78,-4.4 28.18,-12 7.39,-7.6 10.8,-16.67 10.25,-27.13 0.15,-2.33 -0.73,-13.1 -2.58,-32.32 -1.85,-19.22 -4.58,-44.04 -8.11,-74.39 -3.55,-30.37 -7.98,-65.14 -13.22,-104.31 -5.26,-39.18 -11.96,-78.81 -19.9,-118.74 -9.8,-49.3 -20.26,-93.06 -31.66,-131.03 -11.39,-37.97 -22.37,-71.32 -33,-100.02 -20.4,-53.86 -46,-89.11 -77.17,-105.9 -31.19,-16.79 -63.72,-22.53 -96.61,-16.38 -34.33,6.42 -64.68,24.53 -90.29,53.03 -25.62,28.52 -45.19,64.15 -58.64,106.68 -16.99,53.78 -29.03,107.42 -35.44,160.79 -6.4,53.37 -9.24,107.43 -8.31,162.28 0.92,54.81 4.66,110.54 11.37,167.17 6.71,56.63 14.33,115.65 22.93,177.09 1.5,9.46 3.94,28.06 7.37,55.76 3.43,27.67 6.71,57.12 9.89,88.27 3.16,31.12 6.32,59.96 9.44,86.45 3.12,26.48 4.35,43.16 3.63,50.06 -0.15,9.05 -0.23,13.58 -0.38,22.63 -2.78,-3.78 -4.17,-5.67 -6.95,-9.45 -10.43,-13.9 -21.51,-33.96 -33.1,-60.22 -11.62,-26.29 -21.5,-55 -29.72,-86.17 -4.24,-8.63 -8.5,-25.72 -12.69,-51.19 -4.2,-25.51 -8.9,-54.87 -13.99,-88.04 -5.1,-33.19 -9.89,-68.41 -14.31,-105.6 -4.42,-37.2 -8.41,-72.06 -11.97,-104.51 -3.56,-32.48 -6.88,-61.15 -10.01,-85.99 -3.13,-24.85 -5.59,-40.97 -7.02,-48.07 -2.36,-11.73 -3.93,-25.29 -5.14,-39.99 -1.2,-14.73 -2.98,-29.83 -5.3,-45.26 -2.32,-15.46 -6.31,-29.66 -11.97,-42.65 -5.66,-12.98 -14.73,-23.22 -27.18,-30.72 -2.11,-2.64 -6.33,-3.18 -12.63,-1.72 -6.32,1.48 -10.55,0.88 -12.63,-1.72 -1.79,-4.93 -10.1,-6.64 -25.01,-5.23 -14.91,1.4 -28.44,4.68 -40.09,10.04 -13.13,6.05 -23.91,21.2 -32.36,44.33 -6.04,16.56 -11.8,31.58 -16.87,44.83 -5.07,13.26 -9.25,28.71 -12.52,46.34 -3.26,17.61 -5.94,39.71 -8.02,66.3 -2.08,26.56 -2.78,61.88 -3.22,104.7 -0.19,19.6 -0.97,41.05 -1.74,63.71 -0.76,22.65 -2.2,45.51 -4.28,68.59 -10.46,-16.73 -19.71,-36.81 -27.73,-60.21 -8.02,-23.41 -14.95,-45.88 -18.75,-65.98 -3.73,-19.73 -5.93,-40.13 -8.04,-59.14 -2.11,-19.04 -3,-39.69 -2.67,-61.83 0.33,-22.18 1.64,-46.55 3.94,-73.1 2.31,-26.57 4.95,-57.16 9.5,-89.78 1.89,-13.49 4.47,-28.26 6.91,-43.67 2.43,-15.42 3.96,-30.97 4.61,-46.66 0.65,-15.7 -0.29,-31.09 -2.77,-46.09 -2.48,-15.04 -8.75,-29.22 -18.72,-42.53 -4.38,-3.07 -6.64,-7.85 -6.79,-14.28 -0.15,-6.47 -3.2,-10.18 -9.09,-11.15 -2.38,-0.4 -4.54,-1.94 -6.52,-4.59 -1.19,-0.2 -2.52,0.47 -3.96,1.97 -1.46,1.52 -3.96,5.5 -7.45,11.95 -0.03,-4.22 -0.04,-6.34 -0.07,-10.56 -0.42,-4.77 -3.33,-7.3 -8.73,-7.61 -5.39,-0.32 -11.35,0.73 -17.82,3.14 -6.49,2.42 -13.34,5.06 -20.5,7.93 -7.17,2.87 -12.75,5.12 -16.7,6.79 -13.41,7.05 -25.24,15.26 -35.44,24.59 -10.2,9.33 -21.62,21.69 -34.22,37.03 -27.45,36.15 -55.18,86.02 -83.32,149.54 -28.15,63.52 -52.08,133.11 -73.09,205.89 -6.69,23.2 -12.57,47.32 -16.59,71.85 -4.03,24.51 -7.11,47.47 -9.22,68.85 -2.11,21.36 -3.09,40.29 -2.94,56.8 0.14,16.47 2.12,28.63 5.93,36.41 7.38,16.66 16.41,24.82 27.04,24.45 4.25,-1.59 7.05,-0.76 8.44,2.43 1.39,3.17 3.79,6.26 7.2,9.25 6.37,1.17 9.9,-3.79 10.6,-14.8 0.7,-11.05 0.91,-19.53 0.7,-25.43 0.36,-6.28 0.54,-9.42 0.9,-15.7 1.16,6.55 1.74,9.83 2.91,16.39 0.21,5.91 1.58,14.67 4.09,26.3 2.5,11.59 9.5,18.45 20.99,20.5 11.48,2.05 18.15,1.47 20.04,-1.72 3.55,-5.26 6.3,-5.93 8.26,-2.07 1.94,3.85 4.38,4.87 7.35,3.05 6.77,-1.18 14.56,-4.22 23.27,-9.16 8.72,-4.93 15.87,-9.98 20.27,-14.99 5.01,-5.73 9.32,-12.49 13.02,-18.89 3.69,-6.39 8.4,-16.78 14.05,-31.04 5.65,-14.27 12.91,-34.19 21.7,-59.65 8.79,-25.47 20.64,-59.83 35.46,-103.07 4.74,-13.28 8.9,-24.89 12.45,-34.85 3.55,-9.96 6.11,-15.99 7.74,-18.06 0.18,-1.15 0.73,1.28 1.65,7.3 0.92,6 1.86,13.76 2.87,23.31 5.95,57.19 19.33,107.66 40.27,151.29 20.94,43.62 46.2,71.98 73.45,85.67 21.53,10.82 44.23,15.47 67.37,12.29 23.12,-3.18 41.17,-12.2 53.2,-26.83 9.33,-11.36 18.57,-30.18 27.73,-55.78 9.17,-25.61 15.6,-52.75 19.36,-81.39 1.66,-12.62 3.28,-15.3 4.88,-8.1 1.59,7.18 2.93,26.01 4.1,56.49 1.74,45.68 6.03,94.59 13.05,146.76 7.02,52.14 17.88,101.26 32.7,147.31 14.8,46.02 35.26,85.71 61.39,118.93 26.11,33.19 59.84,54.66 99.83,64.83 36.16,9.21 68.5,5.65 96,-11.53 27.51,-17.18 48.71,-43.86 63.72,-79.57 16.46,-39.14 27.07,-82.09 31.67,-128.67 4.61,-46.57 6.03,-94.05 4.41,-142.31 -1.62,-48.3 -5.09,-96.46 -10.31,-144.49 -5.23,-48.05 -9.71,-93.83 -13.1,-136.95 -2.93,-37.3 -5.85,-75.15 -9.06,-113.14 -3.21,-38.03 -6.52,-74.37 -9.9,-108.91 -3.38,-34.58 -5.79,-65.89 -7.28,-93.89 -1.49,-28.01 -0.98,-49.95 -0.01,-64.46 1.28,-19.04 2.6,-38.66 5.57,-56.95 2.96,-18.26 7.75,-36.97 14.32,-56.09 17.99,8.71 36.24,33.66 55.1,74.79 10.77,25.34 21.17,56.11 31.27,92.37 10.08,36.22 19.02,77.74 27.74,123.23 7.41,38.65 13.9,77.34 18.31,115.38 4.41,38 8.28,72.21 11.56,102.62 3.29,30.37 6.65,64.24 10.19,101.61 0.46,10.46 4.85,19.48 13.11,27.04 8.24,7.53 18.64,9.95 29.57,9.04"
         style="fill:#231f20;fill-opacity:1;fill-rule:nonzero;stroke:none"
         id="path14" /><path
         d="m 2664.59,3879.18 c -5.89,-27.85 -12.23,-61.22 -19.01,-100.07 -6.79,-38.89 -12.54,-77.44 -17.29,-115.7 -4.75,-38.26 -8.58,-73.04 -11.54,-104.33 -2.95,-31.28 -4.24,-53.29 -3.93,-65.99 0.2,-8.1 0.84,-9.82 1.96,-5.16 1.92,20.86 4.72,45.22 8.4,73.04 3.67,27.81 7.67,56.55 12,86.11 4.33,29.56 9.34,58.88 15.05,87.9 5.7,28.98 12.61,56.44 17.4,80.09 2.7,13.29 4.9,28.41 7.82,43.49 2.91,15.04 6.38,26.55 8.05,33.08 1.6,6.23 1.71,13.03 1.63,18.23 -0.08,5.2 -0.13,8.38 -0.15,9.54 -2.61,2.26 -6.07,-1.28 -10.38,-10.58 -4.32,-9.33 -7.66,-19.2 -10.01,-29.65 z m -298.87,-400.67 c 6.85,9.6 14.68,23.89 23.6,42.85 8.91,18.93 18.12,39.33 27.64,61.19 9.51,21.81 18.82,43.36 27.89,64.56 9.07,21.19 17.47,40.68 25.8,56.57 9.79,18.68 17.99,38.27 22.31,58.1 4.3,19.8 8.32,40.22 12.03,61.16 3.71,20.93 8.39,41.93 14.08,62.93 5.68,20.99 13.98,41.5 24.93,61.51 1.19,2.34 -1.08,3.16 -6.82,2.4 -5.74,-0.76 -11.8,-2.98 -18.09,-6.66 -25.24,-13.57 -47.07,-29.71 -65.47,-48.36 -18.43,-18.68 -35.29,-42.25 -50.47,-70.72 -5.87,-10.68 -11.88,-24.58 -18,-41.63 -6.14,-17.08 -12.22,-34.75 -18.21,-52.97 -6,-18.25 -11,-37.03 -14.99,-56.32 -3.99,-19.29 -6.73,-36.67 -8.51,-51.66 -0.82,-6.95 -1.2,-18.04 -1.02,-33.05 0.18,-15.03 0.71,-30.65 1.57,-46.8 0.87,-16.17 1.65,-30.89 2.36,-44.15 0.71,-13.28 1.8,-22.2 3.27,-26.74 0.91,-3.42 1.37,-5.13 2.29,-8.56 5.51,6.55 8.28,9.82 13.81,16.35 z m -80.3,177.9 c 3.87,25.11 9.98,53.56 19.62,83.63 9.63,30.07 17.03,56.79 22.13,80.23 -7.59,-0.41 -14.48,-8.34 -20.58,-23.7 -6.11,-15.41 -11.43,-32.78 -15.98,-52.15 -4.54,-19.37 -8.16,-37.82 -10.88,-55.35 -2.71,-17.53 -3.88,-29.19 -3.53,-34.95 -0.98,-25.55 -0.82,-38.26 0.43,-38.19 1.22,0.08 4.71,13.97 8.79,40.48 z m -38.82,141.81 c 6.5,17.78 8.83,26.61 6.94,26.49 -1.9,-0.11 -7.77,-10.94 -18.09,-30.66 -11.82,-22.6 -20.92,-43.36 -25.37,-61.6 -4.45,-18.27 -5.56,-45.84 -4.9,-81.14 0.37,-19.41 1.32,-28.88 3.74,-27.55 2.16,4.76 3.14,8.9 2.91,12.36 -0.31,4.59 0.64,13.66 2.86,27.13 2.22,13.43 5,28.41 8.32,44.86 3.32,16.4 7.29,32.9 11.92,49.42 4.62,16.49 8.53,30.08 11.67,40.69 z m 665.25,-54.81 c 11.26,-2.41 19.69,-7.99 25.24,-16.72 5.54,-8.73 6.98,-18.28 4.37,-28.66 -0.02,-1.16 -1.97,-7.78 -5.84,-19.87 -3.87,-12.1 -9.34,-27.96 -16.33,-47.53 -7,-19.59 -14.62,-42.66 -22.8,-69.17 -8.18,-26.54 -15.99,-54.25 -23.43,-83.1 -17.37,-64.68 -37.02,-116.36 -59.11,-155.12 -22.11,-38.8 -46.04,-67.26 -71.96,-85.43 -25.94,-18.18 -53.32,-26.68 -82.35,-25.52 -29.07,1.16 -59.74,9.35 -92.29,24.58 -14.46,6.5 -26.36,15.65 -35.72,27.48 -9.34,11.82 -17.97,27.7 -25.91,47.66 -7.92,19.93 -15.46,44.25 -22.63,72.89 -7.16,28.6 -14.65,63.62 -22.45,104.95 -3.3,-9.16 -4.94,-13.74 -8.21,-22.91 -5.49,-15.27 -11.53,-29.99 -18.19,-44.17 -6.67,-14.18 -18.75,-28.6 -36.19,-43.33 -11.63,-9.84 -23.1,-16.19 -34.39,-19.1 -11.34,-2.91 -25.89,-6.04 -42.16,-7.52 -11.61,-1.05 -21.38,-1.24 -27.98,-1.64 -6.63,-0.4 -13.02,0.35 -19.17,2.3 -14.73,3.7 -26.8,7.85 -36.18,12.44 -9.39,4.59 -18.6,10.62 -27.6,18.11 -24.39,19.17 -42.81,50.24 -55.23,93.38 -12.42,43.11 -19.11,89.86 -19.81,140.22 -0.7,50.36 5.21,100.95 17.97,151.72 12.77,50.75 32.07,93.96 58,129.14 30.47,41.34 69.79,76.51 117.48,105.06 47.67,28.53 96.93,45.58 145.47,52.51 58.85,8.4 111.58,6.48 155.99,-7.59 14.34,-4.33 25.74,-8.16 34.24,-11.48 8.47,-3.32 16.66,-8.99 24.54,-16.94 3.94,-4.57 7.83,-5.08 11.66,-1.56 2.54,2.33 8.74,0.39 18.48,-5.83 9.76,-6.24 16.19,-15.38 20.58,-23.19 4.94,-8.8 11.13,-21.31 13.83,-36.29 2.7,-14.99 1.42,-30.56 0.36,-43.34 -0.95,-11.54 -2.29,-32.12 -7.12,-58.15 -4.83,-26.05 -10.57,-55.33 -17.12,-87.74 -6.55,-32.44 -13.66,-66.66 -21.26,-102.57 -7.61,-35.94 -14.52,-70.45 -20.75,-103.48 -6.24,-33.04 -11.55,-63.24 -15.92,-90.45 -4.39,-27.24 -5.65,-48.63 -6.17,-61.67 -0.78,-19.72 -2.58,-39.09 -1.68,-54.66 0.9,-15.58 4.38,-26.23 10.5,-31.89 3.67,-4.57 8.19,-5.93 13.55,-4.11 5.36,1.83 10.72,4.79 16.05,8.92 5.32,4.12 10.36,9.09 15.1,14.95 4.71,5.83 8.88,11.08 12.43,15.76 10.63,18.6 20.69,37.77 30.23,57.51 9.53,19.71 21.71,49.97 35.97,90.38 9.75,27.61 18.52,54.39 26.52,79.83 7.98,25.4 14.81,47.96 20.43,67.62 5.61,19.63 11.56,41.6 17.91,65.85 2.52,10.4 8.51,18.18 17.95,23.34 9.44,5.15 19.83,6.54 31.1,4.13"
         style="fill:#231f20;fill-opacity:1;fill-rule:nonzero;stroke:none"
         id="path16" /><path
         d="m 3162.24,3791.78 c -2.34,5.86 -7.55,1.7 -15.58,-12.48 -8.04,-14.2 -16.47,-31.58 -25.25,-52.11 -8.79,-20.54 -16.89,-40.57 -24.28,-59.99 -7.4,-19.46 -11.78,-31.5 -13.12,-36.06 -17.04,-33.1 -30.98,-61.08 -41.93,-83.95 -10.98,-22.9 -19.67,-43.82 -26.15,-62.75 -6.49,-18.94 -10.77,-36.51 -12.89,-52.64 -2.12,-16.17 -3.33,-32.89 -3.64,-50.23 -0.23,-12.48 -0.34,-18.72 -0.57,-31.2 0.9,9.69 1.35,14.54 2.25,24.24 10.51,47.19 25.5,99.23 45.23,156 19.73,56.78 50.46,125.68 93.3,206.42 6.71,13.66 12.48,25.88 17.27,36.72 4.78,10.8 6.56,16.82 5.36,18.03 z m -176.68,-260.83 c -15.32,-35.6 -24.21,-63.24 -26.91,-82.83 -2.7,-19.62 -4.8,-39.5 -8.03,-57.12 -1.02,-5.6 -1.65,-10.99 -1.1,-15.59 0.55,-4.62 0.79,-8.68 0.75,-12.15 -0.07,-4.85 -0.1,-7.28 -0.16,-12.14 2.37,-2.35 4.2,-1.21 5.46,3.4 1.25,4.58 2.77,19.05 6,41.54 5.52,38.41 19.13,87.87 37.99,145.92 18.85,58.01 43.27,115.63 73.55,172.69 5.22,9.11 9.87,17.96 13.86,26.52 4,8.57 7.21,16.05 10.02,21.41 3.52,6.69 7.3,13.67 10.04,20.53 -1.27,0.04 -7.27,-10.8 -17.91,-32.45 -10.66,-21.69 -22.89,-46.53 -36.64,-74.52 -13.75,-28.03 -27.09,-56.07 -39.97,-84.13 -12.9,-28.09 -21.85,-48.46 -26.95,-61.08 z m -98.01,247.3 c 6.52,40.42 14.08,79.96 22.68,118.62 8.6,38.64 6.08,73.06 -7.89,103.23 -6.55,-12.69 -11.43,-23.35 -14.68,-31.98 -3.26,-8.64 -6.07,-16.25 -8.78,-21.63 -3.41,-6.77 -7.13,-19.06 -9.75,-36.38 -2.63,-17.32 -3.95,-34.96 -4.01,-52.86 -0.05,-17.94 1.49,-34.7 4.58,-50.3 3.1,-15.6 9.04,-25.18 17.85,-28.7 z m 545.18,-60.58 c 9.19,-3.29 17.32,-9.54 22.28,-19.7 4.97,-10.17 5.55,-20.81 0.9,-28.73 -5.66,-9.66 -17.33,-29.85 -31.04,-59.65 -13.73,-29.83 -29.45,-63.91 -47.08,-102.2 -17.64,-38.33 -37.36,-78.6 -59,-120.83 -21.64,-42.24 -44.36,-81.04 -68.11,-116.37 -23.76,-35.33 -48.48,-65.22 -74.25,-89.67 -25.76,-24.43 -52.52,-38.5 -79.2,-40.65 -48.55,-3.92 -88.31,4.58 -116.85,23.53 -28.56,18.98 -49.23,44.92 -61.98,77.97 -12.77,33.06 -19.1,70.66 -18.79,112.87 0.3,42.18 5.12,84.92 14.65,128.19 9.54,43.27 22.55,85.33 39.16,126.16 16.6,40.79 34.61,76.08 53.94,105.8 6.42,9.12 11.63,18.55 15.6,28.31 3.96,9.73 5.3,14.63 4.06,14.66 -1.48,-10.38 -8,-21.81 -19.5,-34.3 -11.51,-12.52 -26.09,-23.25 -43.68,-32.25 -17.62,-9.01 -37,-14.56 -58.18,-16.71 -21.21,-2.15 -42.83,3.26 -63.54,12.41 -30.55,13.48 -54.42,36.58 -65.96,71.77 -11.53,35.17 -16.3,72.13 -14.05,110.88 2.25,38.71 10.61,74.66 25.23,107.66 14.63,33.01 31.85,54.1 51.18,63.4 14.24,6.85 30.16,10.94 47.66,12 17.49,1.06 34.06,0.05 49.57,-2.99 15.52,-3.05 29.73,-8.74 42.53,-17.01 12.8,-8.27 21.9,-18.37 26.66,-29.92 7.55,-18.32 10.16,-42.69 8.33,-72.12 -1.82,-29.43 -8.77,-58.52 -20.67,-87.2 16.69,12.42 34.12,25.39 52.27,38.87 18.13,13.46 33.67,21.15 46.52,23.14 61.58,8.75 102.45,3.05 122.1,-16.22 19.65,-19.27 18.6,-59.46 -2.87,-119.62 -12.59,-35.28 -27.17,-75.3 -43.07,-119.82 -15.9,-44.54 -29.81,-90.37 -41.71,-137.38 -11.91,-47.05 -20.29,-93.65 -25.27,-139.73 -4.99,-46.12 -2.57,-88.39 6.96,-126.85 8.51,6.68 17.7,14.19 27.53,22.53 9.82,8.34 20.07,19.53 30.79,33.61 10.69,14.06 22.77,31.24 36.25,51.51 13.49,20.28 29.08,45.15 45.9,74.38 18.61,32.33 35.7,65.15 51.46,97.33 15.77,32.17 29.69,60.97 41.64,86.36 11.93,25.37 25.1,54.44 39.58,87.19 3.02,9.07 10,15.62 20.94,19.59 10.91,3.96 21.6,3.21 31.11,-0.2"
         style="fill:#231f20;fill-opacity:1;fill-rule:nonzero;stroke:none"
         id="path18" /><path
         d="m 3543.1,4174.17 c 1.38,1.04 3.39,1.49 6.05,1.3 3.94,-0.29 2.7,-3.73 -2.74,-10.23 -4.38,-5.26 -5.53,-8.3 -3.57,-8.44 1.97,-0.14 6.42,2.41 13.42,7.71 6.98,5.27 12.77,7.75 17.39,7.4 4.59,-0.35 6.68,-3.41 6.25,-9.17 -0.36,-4.62 1.56,-5.33 5.76,-2.17 6.99,5.24 10.64,5.24 10.9,0.02 0.25,-5.22 6.95,-10.01 9.81,-13.81 2.87,-3.82 5.15,-9.71 9.26,-7.7 6.54,-0.52 13.41,-5.42 20.54,-14.71 7.15,-9.28 11.72,-18.06 11.78,-24.46 0.07,-6.29 -7.01,-13.93 -15.54,-21.33 -8.5,-7.38 -12.97,-14.6 -13.25,-18.06 0.91,-4.72 -2.06,-9.13 -8.9,-13.2 -6.88,-4.09 -12.13,-4.83 -15.85,-2.22 -3.69,2.61 -6.58,2.74 -7.77,0.61 -1.69,-2.99 -3.99,-4.91 -7.21,-4.66 -3.25,0.25 -5.79,3.45 -8.22,7.59 -2.76,4.7 -5.5,5.03 -5.84,0.44 -0.7,-9.24 -5.38,-10.62 -14.01,-4.17 -2.44,2.49 -4.64,3.53 -6.61,3.09 -1.99,-0.43 -6.15,0.73 -12.46,3.52 -35.1,19.91 -49.11,46.8 -39.76,77.51 4.39,14.43 11.31,26.45 19.18,35.19 7.85,8.72 15.67,11.65 23.39,8.78 2.53,-1.35 5.19,-0.97 8,1.17 z m -174.43,-773.93 c -1.15,1.21 -1.54,4.7 -1.2,10.5 0.34,5.75 0.1,12.16 -0.7,19.14 -0.8,6.98 -1.27,14.56 -1.42,22.66 -0.14,8.08 -0.67,14.5 -1.63,19.2 0.93,15.93 1.39,23.89 2.32,39.81 0.48,8.31 0.73,12.47 1.21,20.78 -1.35,-2.26 -1.57,-6.03 -2.34,-8.55 -0.59,-1.92 -2.16,-5.39 -2.39,-9.42 -0.24,-4.05 -1.47,-8.56 -2.59,-12.87 -2.19,-8.46 -3.18,-18.07 -4.29,-26.68 -1.11,-8.6 -0.52,-15.81 -0.23,-19.96 0.21,-3.01 0.12,-8.7 0.94,-15.68 0.81,-6.98 1.94,-13.73 3.39,-20.17 1.45,-6.46 2.96,-12.06 4.5,-16.76 1.55,-4.72 2.91,-7.12 4.12,-7.19 0.13,2.08 0.19,3.11 0.31,5.19 z m 477.79,290.44 c 9.66,-3.22 17.64,-9.5 23.59,-18.29 5.95,-8.78 7.09,-18.24 3.46,-28.3 -0.26,-2.32 -6.38,-20.23 -18.24,-53.8 -11.86,-33.57 -28.91,-72.41 -50.9,-116.55 -11,-22.1 -24.83,-48.23 -41.4,-78.47 -16.58,-30.27 -36.15,-58.49 -58.66,-84.74 -22.53,-26.28 -47.45,-48.01 -74.78,-65.29 -27.35,-17.29 -57.5,-24.55 -90.71,-21.9 -65.27,5.19 -117.04,26.87 -156.04,65.75 -38.99,38.87 -60.3,90.8 -62.71,155.56 -1.03,27.74 1.21,57.24 6.57,88.21 5.36,30.97 16.01,69.88 28.61,114.77 8.42,30.03 16.45,58.69 25.45,83.65 9.01,24.93 19.39,50.96 31.21,78.03 3.02,7.91 7.55,19.52 13.59,34.77 6.04,15.25 12.45,30.49 19.19,45.7 6.73,15.21 13.41,28.94 20.02,41.27 6.59,12.3 11.95,20.06 16.04,23.26 8.09,5.23 17.85,6.02 29.2,2.33 11.35,-3.69 18.34,-5.09 21,-4.11 6.83,5.29 9.36,4.53 7.59,-2.3 -0.2,-2.76 -0.3,-4.15 -0.51,-6.91 6.92,6.44 11.74,10.43 14.45,11.96 2.67,1.53 5.29,1.63 7.77,0.29 2.46,-1.33 4.98,-2.4 7.51,-3.18 2.5,-0.77 7.41,-4.34 14.66,-10.7 4.46,-2.43 6.69,-3.65 11.14,-6.09 -0.27,-13.2 -0.41,-19.8 -0.69,-33 -0.67,-40.55 -5.81,-80.73 -15.3,-120.54 -9.5,-39.84 -20.15,-79.31 -31.91,-118.39 -11.76,-39.08 -22.51,-78.59 -32.25,-118.41 -9.74,-39.85 -14.89,-81.22 -17.27,-122.17 -0.6,-10.23 -0.23,-24.06 1.55,-40.97 1.79,-16.94 5.78,-32.59 11.96,-46.96 6.16,-14.38 15.01,-24.91 26.51,-31.61 11.5,-6.7 26.65,-5.59 45.48,3.28 25.11,11.81 49.06,33.49 72.02,65.07 22.94,31.55 43.62,65.6 61.94,102.15 18.32,36.55 34.64,72.67 48.85,108.42 14.2,35.72 23.95,64.48 30.22,84.06 3.17,9.9 10.32,17.52 20.3,22.29 9.96,4.76 20.69,5.47 31.49,1.86"
         style="fill:#231f20;fill-opacity:1;fill-rule:nonzero;stroke:none"
         id="path20" /><path
         d="m 4339.27,3760.89 c -10.72,-26.38 -22.84,-58.11 -36.38,-95.16 -13.53,-37.09 -26,-74.02 -37.42,-110.84 -11.42,-36.82 -21.33,-70.39 -29.75,-100.67 -8.41,-30.27 -13.57,-51.71 -15.5,-64.27 -1.23,-8.01 -0.89,-9.81 1.03,-5.43 5.58,20.2 12.62,43.69 21.14,70.43 8.52,26.74 17.53,54.31 27.01,82.65 9.47,28.35 19.58,56.31 30.32,83.87 10.73,27.52 22.38,53.34 31.27,75.78 5,12.61 9.84,27.1 15.37,41.43 5.52,14.3 10.97,25 13.78,31.14 2.67,5.85 3.98,12.53 4.82,17.66 0.83,5.14 1.34,8.27 1.53,9.41 -2.19,2.7 -6.22,-0.16 -12.12,-8.57 -5.92,-8.43 -10.93,-17.56 -15.1,-27.43 z m -365.4,-341.76 c 8.44,8.24 18.69,20.93 30.82,38.02 12.11,17.06 24.77,35.53 38.01,55.37 13.22,19.81 26.2,39.38 38.87,58.65 12.67,19.26 24.39,36.96 35.41,51.14 12.93,16.66 24.47,34.51 32.22,53.27 7.73,18.74 15.3,38.12 22.64,58.08 7.34,19.95 15.65,39.8 24.96,59.47 9.3,19.66 21.09,38.39 35.42,56.16 1.58,2.09 -0.51,3.3 -6.31,3.56 -5.79,0.26 -12.16,-0.85 -19.01,-3.36 -27.31,-8.92 -51.68,-20.96 -73.12,-36.08 -21.46,-15.13 -42.23,-35.38 -62.21,-60.73 -7.68,-9.48 -16.04,-22.11 -25.08,-37.81 -9.05,-15.73 -18.16,-32.06 -27.27,-48.94 -9.13,-16.91 -17.37,-34.51 -24.69,-52.8 -7.33,-18.3 -13.09,-34.94 -17.47,-49.36 -2.04,-6.7 -4.37,-17.55 -6.84,-32.35 -2.47,-14.84 -4.68,-30.3 -6.67,-46.35 -1.99,-16.08 -3.8,-30.7 -5.44,-43.88 -1.63,-13.2 -2.14,-22.17 -1.49,-26.9 0.31,-3.53 0.46,-5.29 0.76,-8.83 6.59,5.47 9.89,8.21 16.49,13.67 z M 3926,3608.38 c 8.23,24.03 19.26,50.97 34.04,78.88 14.8,27.9 26.77,52.9 35.94,75.08 -7.56,0.94 -15.76,-5.66 -24.46,-19.71 -8.73,-14.09 -17.04,-30.26 -24.92,-48.52 -7.89,-18.27 -14.71,-35.79 -20.47,-52.57 -5.76,-16.78 -8.96,-28.06 -9.63,-33.79 -5.46,-24.97 -7.53,-37.52 -6.29,-37.67 1.21,-0.14 7.1,12.93 15.79,38.3 z m -13.33,146.44 c 9.54,16.35 13.39,24.63 11.49,24.85 -1.88,0.22 -9.58,-9.41 -23.21,-27 -15.62,-20.17 -28.24,-39.01 -35.84,-56.18 -7.6,-17.2 -13.53,-44.14 -19.09,-79.01 -3.06,-19.18 -3.78,-28.66 -1.16,-27.78 2.97,4.3 4.66,8.21 5.04,11.65 0.5,4.58 3.04,13.34 7.6,26.21 4.55,12.83 9.9,27.09 16.08,42.69 6.16,15.58 12.97,31.1 20.44,46.56 7.46,15.43 13.69,28.11 18.65,38.01 z m 647.01,-171.24 c 10.72,-4.36 18.07,-11.35 22.01,-20.92 3.94,-9.57 3.69,-19.23 -0.72,-28.98 -0.22,-1.15 -3.31,-7.32 -9.27,-18.53 -5.96,-11.22 -14.16,-25.87 -24.51,-43.9 -10.36,-18.05 -21.95,-39.42 -34.69,-64.07 -12.77,-24.67 -25.36,-50.58 -37.79,-77.65 -28.56,-60.6 -57.07,-108.02 -85.71,-142.27 -28.67,-34.28 -57.33,-58.08 -86.13,-71.39 -28.82,-13.31 -57.35,-16.85 -85.82,-10.59 -28.5,6.27 -57.33,19.74 -86.79,40.47 -13.12,8.94 -23.26,20.05 -30.4,33.33 -7.15,13.3 -12.87,30.45 -17.19,51.49 -4.31,21.01 -7.47,46.29 -9.51,75.74 -2.03,29.42 -3.24,65.2 -3.67,107.26 -4.87,-8.43 -7.3,-12.65 -12.14,-21.1 -8.1,-14.07 -16.65,-27.49 -25.71,-40.27 -9.07,-12.79 -23.53,-24.86 -43.32,-36.29 -13.19,-7.64 -25.62,-11.87 -37.27,-12.74 -11.68,-0.88 -26.58,-1.4 -42.88,0.01 -11.64,1 -21.3,2.54 -27.87,3.31 -6.6,0.77 -12.77,2.63 -18.5,5.63 -13.86,6.23 -25.02,12.45 -33.46,18.61 -8.44,6.17 -16.46,13.72 -24,22.69 -20.67,23.16 -33.34,56.99 -38,101.63 -4.65,44.62 -3.02,91.83 5.14,141.53 8.17,49.69 22.89,98.46 44.39,146.19 21.5,47.71 48.11,86.86 79.85,116.92 37.3,35.35 82.23,63.04 134.27,82.76 52.02,19.7 103.61,27.81 152.72,26.08 59.54,-2.1 111.26,-13.29 152.62,-34.97 13.41,-6.79 23.99,-12.57 31.8,-17.33 7.78,-4.76 14.87,-11.79 21.26,-21.01 3.09,-5.2 6.83,-6.39 11.23,-3.6 2.92,1.85 8.71,-1.15 17.24,-9 8.53,-7.85 13.28,-17.99 16.23,-26.45 3.33,-9.54 7.26,-22.95 7.29,-38.17 0.03,-15.23 -3.98,-30.34 -7.27,-42.73 -2.97,-11.19 -7.92,-31.21 -17.27,-55.98 -9.35,-24.78 -20.18,-52.6 -32.35,-83.35 -12.18,-30.78 -25.22,-63.21 -39.05,-97.22 -13.84,-34.04 -26.73,-66.8 -38.69,-98.21 -11.97,-31.42 -22.53,-60.21 -31.64,-86.22 -9.12,-26.05 -14.13,-46.88 -16.94,-59.63 -4.24,-19.27 -9.44,-38.01 -11.28,-53.51 -1.85,-15.5 -0.29,-26.59 4.76,-33.24 2.82,-5.15 7.04,-7.28 12.65,-6.43 5.62,0.84 11.43,2.83 17.42,5.94 5.98,3.12 11.83,7.12 17.55,12.06 5.68,4.9 10.72,9.34 15.05,13.31 13.77,16.44 27.08,33.53 39.98,51.29 12.88,17.71 30.24,45.35 51.44,82.61 14.49,25.46 27.85,50.27 40.25,73.91 12.36,23.61 23.08,44.6 32.09,62.95 8.99,18.33 18.74,38.91 29.29,61.66 4.32,9.79 11.61,16.39 21.85,19.8 10.24,3.4 20.74,2.93 31.46,-1.43"
         style="fill:#231f20;fill-opacity:1;fill-rule:nonzero;stroke:none"
         id="path22" /><path
         d="m 1680.03,2425.51 c -12.23,-38.88 -34.9,-93.74 -69.8,-162.71 -3.96,-8.04 -7.56,-15.82 -10.83,-23.42 -3.27,-7.59 -6.85,-13.86 -9.96,-18.64 -3.65,-5.6 -6.58,-11.89 -8.96,-18 -0.21,-1.07 0.28,-1.7 1.47,-1.93 1.16,-0.22 4.06,3.59 8.62,11.49 4.55,7.88 10.01,17.26 16.33,28.12 6.31,10.84 12.8,22.77 19.47,35.76 6.66,12.96 12.02,24.03 16.13,33.12 9.73,20.08 18.32,40.67 25.75,61.74 7.44,21.05 12.72,38.81 16.62,51.94 4.83,16.22 7.24,25.21 5.64,26.05 -1.59,0.83 -5.33,-7.14 -10.48,-23.52 z m -16.58,34.27 c -0.54,3.37 -0.91,4.53 -1.11,3.49 -1.19,-6.35 -4.4,-17.26 -9.66,-32.68 -5.27,-15.43 -11.7,-32.31 -19.32,-50.57 -7.63,-18.27 -16.02,-37.23 -25.19,-56.84 -9.17,-19.61 -17.63,-36.95 -25.4,-51.82 -11.41,-21.86 -16.36,-34.11 -14.43,-36.67 1.93,-2.55 11.68,14.07 29.45,48.56 14.8,28.73 27.23,54.24 36.13,76.12 8.89,21.85 17.84,43.99 22.7,63.91 1.68,6.91 3,14.49 4.86,21.26 1.85,6.75 2.5,11.87 1.97,15.24 z m -51.41,131.62 c -11.86,-13.02 -20.78,-28.52 -26.75,-46.5 -5.98,-18 -12.77,-46.02 -18.52,-82.74 -9.03,-57.77 -11.59,-110.22 -9.54,-154.51 1.68,-15.72 3.43,-22.36 5.11,-19.96 1.67,2.39 9.75,18.68 24.07,48.75 24.35,51.13 40.92,97.33 49.95,138.33 9.04,40.99 9.47,73.79 1.55,98.37 -1.22,5.7 -4.02,12.04 -8.42,18.92 -4.41,6.88 -10.22,6.67 -17.45,-0.66 z m 270.65,-243.8 c 10.04,-3.67 17.67,-9.96 22.86,-18.88 5.19,-8.89 5.97,-17.99 2.27,-27.24 -15.92,-44.48 -42.25,-85.82 -79.55,-123.63 -15.83,-16.09 -35.7,-32.31 -59.74,-48.59 -24.06,-16.29 -53.71,-29 -85.93,-33.87 -43.56,-6.58 -88.55,0.54 -128.8,17.13 -9.17,-12.7 -13.78,-19.04 -23.01,-31.7 -0.13,-0.63 -0.19,-0.95 -0.31,-1.58 -18.04,-21.71 -39.73,-43.99 -65.29,-66.79 -25.56,-22.79 -46.33,-37.97 -62.02,-45.62 -23.98,-10.35 -49.85,-15.49 -77.53,-15.36 -27.72,0.13 -54.86,6.8 -80.26,17.56 -26.4,11.2 -50.1,26.08 -68.54,45.61 -18.45,19.54 -32.67,41.2 -42.69,64.86 -10.02,23.66 -16.94,48.84 -20.81,75.44 -3.86,26.59 -4.54,53.66 -2.46,80.8 0.99,13.05 2.51,30.79 4.7,53.05 2.19,22.24 4.97,46.57 8.35,72.99 3.38,26.38 6.95,53.31 10.7,80.72 3.75,27.43 7.95,53.52 12,77.88 8.83,53.01 16.35,90.66 23.27,111.64 6.91,20.95 17.48,35.64 31.56,44.12 5.5,2.95 11.17,5.35 16.94,7.14 5.78,1.8 8.39,1.65 7.84,-0.42 0.8,-1.33 -1.27,-5.96 -5.39,-13.6 -5.11,-9.46 -7.22,-14.78 -6.65,-14.93 0.54,-0.15 3.86,4.57 9.95,14.05 7.91,12.32 13.93,17.66 16.92,17.23 4.07,-0.59 5.74,-2.64 3.29,-7.55 -0.55,-2.1 -1.37,-5.22 -2.46,-9.37 -1.1,-4.17 -1.66,-8.48 -1.64,-12.92 0.18,-4.72 0.27,-7.08 0.44,-11.81 1.49,2.95 2.23,4.43 3.71,7.38 5.47,11.92 11.64,20.87 18.49,26.88 6.82,5.98 10.78,6.63 11.92,1.91 0.81,-1.33 5.23,-2.46 13.19,-3.39 7.93,-0.93 11.81,-4.13 11.6,-9.63 3.24,3.6 10.32,0.9 19.03,-8.12 6.39,-6.62 12.02,-14.09 16.79,-20.81 4.78,-6.71 8.4,-14.82 10.78,-24.25 2.39,-9.44 4.38,-20.75 5.93,-33.84 1.55,-13.09 2.84,-29.39 4.37,-48.36 1.45,-17.97 1.77,-42.5 0.54,-73.15 -1.23,-30.66 -3.41,-73.97 -6.68,-129.43 -2.95,-49.98 -5.2,-91.6 -6.48,-124.42 -1.29,-32.82 -2.13,-59.98 -2.57,-81.38 -0.43,-21.41 -0.31,-39.12 0.36,-53.04 0.67,-13.96 2.14,-27.24 4.43,-39.87 26.99,18.23 49.8,35.89 68.52,52.79 18.71,16.89 38.11,37.56 58.11,62 -20.16,22.86 -34.93,48.06 -44.42,75.43 -9.5,27.37 -14.26,58.75 -15.58,92.67 -0.87,22.01 -0.26,48.02 2.65,77.15 2.92,29.13 8.36,58.54 16.22,88.19 7.85,29.67 18.51,57.34 31.87,83.04 13.34,25.68 29.83,46.3 49.44,61.87 13.78,10.23 29.5,17.58 47.13,22.13 17.61,4.55 34.89,6.22 51.81,5.01 16.91,-1.21 33.41,-5.85 49.6,-13.9 16.16,-8.05 30.17,-20.41 42.31,-35.1 10.74,-13 18.68,-28.05 21.95,-45.04 3.27,-16.97 4.23,-34.38 2.81,-52.16 -1.42,-17.79 -4.3,-35.61 -8.63,-53.41 -4.33,-17.81 -9.02,-34.57 -14.19,-49.94 -12.11,-35.95 -27.73,-71.88 -46.23,-107.31 -18.51,-35.46 -38.73,-75.77 -60.76,-120.9 -0.12,-0.64 -0.18,-0.95 -0.3,-1.59 10.28,-4.15 20.89,-6.65 31.75,-7.55 10.87,-0.91 21.96,-0.73 33.22,0.54 22.88,4.65 43.59,13.09 62.07,25.24 18.47,12.14 33.51,24.38 45.19,36.64 30.43,31.01 51.74,64.18 64.34,99.25 3.8,9.21 10.2,16.1 19.18,20.72 8.95,4.6 18.48,5.06 28.52,1.39"
         style="fill:#231f20;fill-opacity:1;fill-rule:nonzero;stroke:none"
         id="path24" /><path
         d="m 2016.11,2754.16 c 1.2,0.9 2.9,1.23 5.07,0.93 3.23,-0.44 1.99,-3.58 -2.93,-9.37 -3.99,-4.7 -5.15,-7.45 -3.53,-7.67 1.63,-0.22 5.49,1.95 11.63,6.56 6.12,4.6 11.05,6.66 14.84,6.16 3.77,-0.5 5.31,-3.43 4.61,-8.76 -0.56,-4.27 0.99,-5.01 4.65,-2.23 6.1,4.61 9.11,4.49 9.03,-0.37 -0.08,-4.86 5.22,-9.67 7.38,-13.16 2.33,-3.77 3.78,-9.18 7.32,-7.44 5.41,-0.68 10.87,-5.44 16.41,-14.26 5.53,-8.82 8.99,-17.05 8.78,-23.04 -0.22,-5.9 -6.53,-12.82 -14.04,-19.42 -7.58,-6.67 -12.06,-13.56 -12.06,-16.4 0,-3.89 -2.18,-8.42 -8.21,-11.98 -6.05,-3.58 -10.59,-4.08 -13.61,-1.52 -3.01,2.56 -5.46,2.79 -6.6,0.86 -1.61,-2.75 -3.67,-4.41 -6.41,-4.05 -2.76,0.36 -4.73,3.39 -6.58,7.38 -2.08,4.46 -4.39,4.9 -4.95,0.65 -1.14,-8.55 -5.23,-9.64 -12.19,-3.25 -1.93,2.42 -3.75,3.49 -5.45,3.18 -1.72,-0.32 -5.21,0.96 -10.4,3.86 -28.58,20.23 -38.23,45.99 -28.02,74.05 4.78,13.15 11.44,23.89 18.6,31.59 7.13,7.68 13.79,10.01 19.96,6.99 2.01,-1.37 4.23,-1.14 6.7,0.71 z m -217.03,-705.75 c -1.06,1.23 -1.16,4.52 -0.33,9.85 0.83,5.31 1.14,11.28 0.93,17.83 -0.2,6.56 -0.02,13.62 0.54,21.16 0.55,7.51 0.58,13.51 0.05,17.97 2.3,14.67 3.45,22.01 5.75,36.69 1.2,7.65 1.8,11.48 2.99,19.14 -1.5,-1.97 -2.07,-5.47 -3.03,-7.7 -0.73,-1.71 -2.57,-4.78 -3.16,-8.49 -0.58,-3.74 -2.19,-7.81 -3.66,-11.68 -2.87,-7.58 -4.72,-16.43 -6.58,-24.3 -1.86,-7.87 -1.92,-14.64 -2,-18.48 -0.06,-2.8 -0.65,-8.09 -0.46,-14.64 0.19,-6.55 0.73,-12.94 1.62,-19.05 0.89,-6.14 1.91,-11.48 3.06,-16 1.14,-4.54 2.32,-6.9 3.53,-7.09 0.3,1.92 0.45,2.88 0.75,4.79 z m 470.18,251.69 c 8.99,-2.81 16.52,-8.47 22.26,-16.49 5.74,-8.03 7.08,-16.8 3.95,-26.26 -0.18,-2.16 -5.38,-19.02 -15.76,-50.52 -10.39,-31.5 -25.76,-68.03 -46.39,-109.37 -10.32,-20.69 -23.47,-45.15 -39.59,-73.33 -16.12,-28.2 -35.6,-54.41 -58.49,-78.54 -22.9,-24.15 -48.7,-43.86 -77.29,-59.01 -28.63,-15.17 -60.44,-20.6 -95.09,-16.19 -68.11,8.67 -121.18,33.51 -158.37,73.47 -37.2,39.95 -53.75,90.61 -49.85,150.86 1.67,25.8 6.8,52.87 15.02,80.97 8.23,28.11 22.26,63.03 38.36,103.39 10.76,26.99 20.88,52.81 31.45,75.13 10.56,22.29 22.37,45.53 35.39,69.68 3.41,7.08 8.49,17.49 15.19,31.17 6.69,13.67 13.65,27.33 20.85,40.96 7.2,13.62 14.17,25.9 20.92,36.9 6.74,10.97 12,17.83 15.8,20.55 7.46,4.35 16.01,4.49 25.66,0.44 9.66,-4.06 15.68,-5.72 18.07,-4.94 6.31,4.55 8.45,3.73 6.48,-2.52 -0.34,-2.56 -0.52,-3.84 -0.86,-6.4 6.44,5.65 10.88,9.12 13.33,10.42 2.44,1.3 4.72,1.27 6.8,-0.08 2.08,-1.35 4.22,-2.46 6.38,-3.29 2.14,-0.82 6.23,-4.36 12.26,-10.55 3.77,-2.44 5.66,-3.66 9.44,-6.1 -0.88,-12.25 -1.32,-18.38 -2.2,-30.64 -2.52,-37.67 -8.91,-74.84 -19.42,-111.45 -10.52,-36.65 -22.24,-72.85 -35.22,-108.58 -12.98,-35.74 -25.29,-71.87 -36.82,-108.29 -11.55,-36.47 -18.91,-74.62 -23.46,-112.5 -1.13,-9.47 -1.5,-22.37 -0.57,-38.21 0.93,-15.87 4.18,-30.71 9.8,-44.49 5.61,-13.78 14.22,-24.14 25.76,-31.05 11.53,-6.91 27.19,-6.73 46.72,0.65 26.04,9.85 50.92,29.17 74.41,57.96 23.48,28.77 44.22,60.13 62.24,93.97 18.03,33.83 33.69,67.41 47.07,100.71 13.37,33.27 22.27,60.13 27.97,78.4 2.88,9.24 9.47,16.38 18.66,20.94 9.2,4.55 19.07,5.39 29.14,2.23"
         style="fill:#231f20;fill-opacity:1;fill-rule:nonzero;stroke:none"
         id="path26" /><path
         d="m 2710.65,2402.4 c -6.22,-25.71 -13.15,-56.53 -20.9,-92.41 -7.75,-35.9 -14.75,-71.52 -20.95,-106.89 -6.19,-35.38 -11.5,-67.53 -15.88,-96.49 -4.38,-28.95 -6.77,-49.35 -7.11,-61.17 -0.21,-7.55 0.34,-9.17 1.67,-4.89 2.95,19.3 6.88,41.81 11.74,67.51 4.86,25.7 10,52.23 15.38,79.55 5.38,27.31 11.29,54.37 17.71,81.15 6.41,26.74 13.73,52.02 18.9,73.89 2.91,12.28 5.39,26.27 8.5,40.21 3.1,13.9 6.54,24.49 8.23,30.53 1.62,5.78 1.91,12.08 1.99,16.92 0.08,4.85 0.13,7.79 0.15,8.88 -2.25,2.18 -5.4,-1.01 -9.52,-9.52 -4.14,-8.55 -7.44,-17.63 -9.91,-27.27 z m -308.87,-350.44 c 7.77,8.12 16.99,20.47 27.64,37.09 10.61,16.58 21.56,34.54 32.77,53.86 11.2,19.29 22.02,38.4 32.45,57.26 10.42,18.83 19.92,36.2 28.96,50.27 10.62,16.53 19.69,34.08 25.13,52.17 5.44,18.05 10.59,36.71 15.43,55.89 4.85,19.17 10.51,38.35 16.98,57.47 6.46,19.11 15.13,37.62 25.94,55.55 1.19,2.11 -0.75,2.99 -5.82,2.64 -5.08,-0.35 -10.53,-2.02 -16.29,-5.02 -23.05,-10.95 -43.47,-24.28 -61.32,-40.09 -17.85,-15.84 -34.95,-36.19 -51.3,-61.13 -6.3,-9.34 -13.07,-21.65 -20.32,-36.81 -7.28,-15.21 -14.65,-30.95 -22.07,-47.18 -7.43,-16.26 -14.09,-33.09 -19.93,-50.49 -5.83,-17.41 -10.36,-33.16 -13.72,-46.82 -1.56,-6.33 -3.19,-16.54 -4.72,-30.42 -1.54,-13.92 -2.82,-28.42 -3.84,-43.44 -1.02,-15.05 -1.94,-28.74 -2.78,-41.08 -0.83,-12.35 -0.8,-20.72 0.12,-25.08 0.51,-3.27 0.76,-4.91 1.27,-8.18 6.18,5.41 9.26,8.12 15.42,13.54 z m -55.87,173.86 c 6.76,22.67 15.96,48.18 28.36,74.81 12.39,26.62 22.1,50.48 29.31,71.59 -6.87,0.46 -13.95,-6.08 -21.25,-19.56 -7.31,-13.52 -14.23,-28.93 -20.74,-46.25 -6.52,-17.33 -12.15,-33.91 -16.87,-49.74 -4.72,-15.83 -7.31,-26.44 -7.72,-31.79 -4.17,-23.45 -5.67,-35.2 -4.49,-35.29 1.16,-0.09 6.27,12.28 13.4,36.23 z m -17.49,135.76 c 8.17,15.54 11.35,23.39 9.64,23.52 -1.72,0.14 -8.32,-9.1 -20.23,-25.91 -13.65,-19.26 -24.81,-37.11 -31.45,-53.28 -6.63,-16.19 -11.59,-41.4 -16.06,-73.96 -2.46,-17.92 -2.94,-26.76 -0.47,-25.89 2.71,4.07 4.22,7.73 4.5,10.95 0.36,4.28 2.56,12.47 6.53,24.56 3.97,12.05 8.64,25.44 13.97,40.13 5.33,14.66 11.21,29.3 17.63,43.9 6.42,14.59 11.73,26.59 15.94,35.98 z m 606.5,-87.16 c 10.49,-2 18.44,-6.96 23.84,-14.92 5.4,-7.97 7.04,-16.82 4.9,-26.55 0.02,-1.08 -1.61,-7.3 -4.91,-18.67 -3.31,-11.37 -8.04,-26.28 -14.22,-44.66 -6.19,-18.41 -12.98,-40.06 -20.4,-64.9 -7.43,-24.87 -14.62,-50.79 -21.59,-77.75 -16.31,-60.46 -35.91,-108.76 -58.68,-144.84 -22.78,-36.11 -48.11,-62.4 -75.69,-78.8 -27.61,-16.41 -56.92,-23.5 -87.54,-21.21 -30.64,2.3 -62.66,11.53 -95.78,27.83 -14.72,7 -26.51,16.36 -35.36,28.03 -8.84,11.68 -16.55,27.1 -23.11,46.25 -6.55,19.13 -12.24,42.33 -17.05,69.48 -4.82,27.14 -9.28,60.26 -13.32,99.27 -4.03,-8.2 -6.06,-12.3 -10.12,-20.5 -6.78,-13.67 -14.13,-26.74 -22.13,-39.23 -7.99,-12.5 -21.5,-24.68 -40.59,-36.46 -12.74,-7.86 -25.03,-12.46 -36.77,-13.84 -11.77,-1.38 -26.8,-2.54 -43.46,-1.84 -11.89,0.49 -21.74,1.61 -28.45,2.12 -6.73,0.52 -13.08,2.07 -19.01,4.73 -14.33,5.44 -25.85,11.01 -34.6,16.62 -8.73,5.6 -17.05,12.53 -24.88,20.79 -21.4,21.36 -34.59,52.88 -39.67,94.47 -5.08,41.56 -3.7,85.54 3.77,131.83 7.48,46.3 21.07,91.75 40.31,136.45 19.24,44.67 42.64,81.57 70.13,110.49 32.3,33.98 70.64,61.51 114.62,82.87 43.97,21.35 87.35,32.76 129.15,35.62 50.69,3.47 95.33,-1.05 132.78,-15.93 12.11,-4.6 21.76,-8.55 28.95,-11.93 7.17,-3.36 14.04,-8.88 20.62,-16.5 3.28,-4.37 6.63,-4.95 10.03,-1.77 2.25,2.11 7.54,0.15 15.84,-5.85 8.31,-6.02 13.69,-14.56 17.41,-21.98 4.15,-8.26 9.38,-20.01 11.54,-33.99 2.17,-14.01 0.84,-28.44 -0.28,-40.37 -1.01,-10.78 -2.47,-29.87 -7.24,-54.03 -4.76,-24.17 -10.48,-51.34 -17.17,-81.38 -6.69,-30.07 -14.08,-61.76 -22.18,-94.99 -8.12,-33.26 -15.74,-65.18 -22.82,-95.72 -7.08,-30.55 -13.34,-58.46 -18.66,-83.63 -5.33,-25.19 -7.43,-45.09 -8.44,-57.16 -1.53,-18.23 -4.13,-36.25 -3.82,-50.78 0.31,-14.53 3.46,-24.58 9.55,-30.07 3.61,-4.39 8.23,-5.81 13.81,-4.29 5.59,1.51 11.19,4.11 16.79,7.79 5.6,3.68 10.9,8.17 15.9,13.51 4.97,5.31 9.35,10.1 13.08,14.38 11.25,17.07 21.79,34.75 31.66,53 9.86,18.21 22.41,46.26 36.64,83.82 9.72,25.65 18.28,50.58 25.95,74.29 7.66,23.68 14.06,44.71 19.26,63.06 5.19,18.31 10.61,38.81 16.27,61.46 2.25,9.71 7.73,17.02 16.4,21.96 8.68,4.94 18.25,6.41 28.74,4.42"
         style="fill:#231f20;fill-opacity:1;fill-rule:nonzero;stroke:none"
         id="path28" /><path
         d="m 2917.09,2563.19 c -10.63,0.36 -22.01,4.58 -32.58,10.95 -10.58,6.37 -17.54,13.86 -20.9,22.47 -8.91,17.16 -7.54,32.25 3.9,45.23 11.44,12.97 23.65,23.82 36.64,32.6 5.38,5.43 14.04,9.59 25.98,12.46 11.91,2.87 21.72,2.24 29.43,-1.88 5.48,-2.06 10.97,-3.81 16.47,-5.3 5.48,-1.48 9.14,-6.03 11.75,-11.82 1.85,-4.1 3.51,-9.07 3.65,-14.44 0.19,-7.54 0.43,-16.95 0.73,-28.25 0.29,-11.29 -1.15,-19.68 -4.32,-25.14 -2.17,-2.22 -4.61,-4.43 -7.3,-6.64 -2.73,-2.23 -5.72,-3.92 -9.01,-5.05 -4.39,-2.27 -8.18,-6.39 -11.37,-12.35 -3.21,-5.99 -7.6,-9.04 -13.14,-9.14 -3.33,-0.06 -5.56,-0.65 -6.64,-1.73 0.02,-1.08 -1.37,-1.64 -4.13,-1.69 -2.79,-0.04 -9.65,-0.61 -19.16,-0.28 z m 68.83,-702.81 c -4.83,-5.5 -11.2,-12.37 -19.1,-20.58 -7.91,-8.22 -16.47,-17.53 -25.65,-27.89 -9.19,-10.37 -18.12,-21.02 -26.74,-31.85 -8.63,-10.84 -16.7,-21.16 -24.17,-30.91 -7.47,-9.75 -14.97,-19.48 -22.5,-29.2 -7.53,-9.73 -12.56,-17.26 -15.1,-22.66 -7.57,-11.85 -11.05,-18.06 -10.43,-18.59 0.63,-0.53 4.72,5.33 12.34,16.98 9.85,15.06 24.55,33.99 43.21,56.77 18.64,22.77 38.35,45.07 59.16,66.99 6.1,6.56 11.57,12.85 16.43,18.88 4.83,6 9.08,11.21 12.7,15.61 -0.06,2.58 -0.09,3.87 -0.15,6.45 z M 2871.03,1445.5 c 14.42,5.47 29.4,20.65 44.77,45.56 15.37,24.94 29.22,55.04 41.49,90.21 12.27,35.18 22.41,72.56 30.42,112.01 8.01,39.48 12.11,76.99 12.53,112.53 -57.37,-55.2 -98.99,-105.05 -123.57,-150.4 -24.59,-45.35 -39.14,-84.08 -43.03,-116.36 -3.89,-32.3 -1.01,-56.77 8.82,-73.46 9.83,-16.66 19.42,-23.37 28.57,-20.09 z m -48.78,246.94 c 0,-1.07 1.91,0.79 5.71,5.63 3.8,4.84 8.25,10.5 13.29,16.96 13.9,19.39 29.87,39.63 47.86,60.75 17.98,21.13 39.25,44.22 63.65,69.42 6.08,6.56 11.54,12.57 16.39,18.07 4.82,5.46 9.07,10.4 12.68,14.78 -0.04,1.94 -0.06,2.91 -0.1,4.85 -2.91,-2.65 -4.36,-3.97 -7.28,-6.61 -20.61,-19.8 -40.73,-41.12 -60.39,-63.93 -19.68,-22.84 -38.28,-46.1 -55.85,-69.84 -6.26,-7.55 -11.59,-14.01 -16.03,-19.42 -4.4,-5.37 -7.67,-11.44 -10.42,-16.15 -3.03,-5.19 -6.95,-10.21 -9.51,-14.51 z m 555.4,602.5 c 9.07,-1.65 17.19,-6.11 23.16,-14.21 5.99,-8.12 7.68,-17.15 5.03,-27.11 -18.07,-75.09 -45.84,-143.59 -83.71,-205.17 -37.9,-61.61 -74.62,-112.17 -109.48,-151.83 -0.7,-32.37 -4.62,-67.64 -12.01,-105.74 -7.4,-38.1 -17.74,-76.63 -31.18,-115.53 -13.44,-38.87 -30.08,-75.99 -50.02,-111.26 -19.94,-35.26 -42.63,-66.24 -68,-92.84 -12.74,-12.22 -27.19,-23.67 -43.36,-34.28 -16.17,-10.61 -33.83,-18.78 -52.83,-24.48 -19.02,-5.69 -38.82,-8.63 -59.27,-8.8 -20.44,-0.17 -40.86,4.65 -60.38,12.65 -21.73,8.91 -39.79,20.84 -52.13,36.51 -12.33,15.67 -20.66,33.03 -25.01,51.88 -4.37,18.88 -6.08,38.31 -5.2,58.19 0.88,19.9 4.01,38.98 9.3,57.22 10.64,36.49 34.28,77.94 70.16,124.76 35.88,46.8 80.16,95.75 132.17,147.34 5.08,4.62 7.62,6.94 12.69,11.57 -4.27,27.88 -8.5,55.78 -12.68,83.71 -4.19,27.9 -7.42,48 -10.19,59.55 -3.55,14.8 -8.19,32.53 -13.47,51.45 -4.73,16.94 -11.34,38.29 -18.78,63.5 -7.43,25.18 -16.28,55.63 -27.45,89.3 -11.27,33.98 -17.92,61.74 -18.06,82.2 -0.13,20.43 3.57,36.97 8.26,48.5 4.87,11.99 12.35,23.23 23.65,30.91 1.1,1.07 4.51,2.47 10.18,4.16 5.66,1.69 9.16,-0.89 8.62,-5.53 -0.45,-3.86 -0.19,-6.2 2.65,-5.61 2.8,0.58 4.48,3.65 5.86,7.35 1.5,4.04 6.13,6.56 11.83,6.66 5.67,0.11 9.69,-2.51 12.09,-7.84 1.42,-2.56 2.13,-3.83 3.55,-6.39 1.31,2.61 1.97,3.92 3.28,6.53 5.52,7.64 13.74,8.37 24.71,2.18 10.95,-6.17 20.46,-9.15 28.44,-8.92 5.78,-3.06 8.71,-5.14 8.74,-6.2 4.68,-4.17 11.09,-7.72 19.2,-10.68 8.08,-2.95 13.97,-7.07 17.6,-12.31 1.29,-4.27 3.68,-6.33 7.11,-6.2 3.44,0.13 11.69,-14.1 25,-42.64 13.3,-28.54 26.83,-65.12 42.27,-106.42 13.69,-36.6 26.25,-72.28 34.54,-105.79 8.29,-33.51 16.06,-72.19 23.3,-115.99 26.03,35.9 51.71,76.54 76.79,121.9 25.07,45.35 43.66,94.51 56.03,147.27 2.75,9.93 8.58,17.39 17.54,22.43 8.94,5.02 19.05,5.93 29.46,4.05"
         style="fill:#231f20;fill-opacity:1;fill-rule:nonzero;stroke:none"
         id="path30" /><path
         d="m 3791.9,2474.13 c -1.74,-26.4 -3.31,-57.95 -4.85,-94.63 -1.53,-36.7 -2.34,-72.99 -2.41,-108.9 -0.08,-35.92 0.16,-68.51 0.79,-97.79 0.64,-29.28 1.75,-49.79 3.44,-61.49 1.08,-7.47 1.9,-8.98 2.5,-4.53 -0.39,19.52 -0.37,42.35 0.04,68.52 0.41,26.17 0.94,53.18 1.59,81.02 0.65,27.82 1.87,55.5 3.63,82.98 1.76,27.45 4.67,53.61 6.04,76.04 0.77,12.61 0.84,26.8 1.53,41.08 0.68,14.24 2.28,25.25 2.92,31.49 0.61,5.97 -0.18,12.23 -0.92,17.02 -0.75,4.78 -1.21,7.7 -1.38,8.77 -2.61,1.76 -5.17,-1.93 -7.79,-11.02 -2.62,-9.13 -4.34,-18.64 -5.13,-28.56 z M 3546.92,2076 c 6.27,9.33 13.27,23.08 20.92,41.27 7.63,18.13 15.37,37.72 23.12,58.67 7.75,20.91 15.17,41.61 22.24,61.96 7.05,20.33 13.47,39.08 19.98,54.49 7.65,18.1 13.59,36.94 15.88,55.7 2.28,18.73 4.18,37.97 5.68,57.71 1.5,19.73 3.83,39.58 6.94,59.53 3.11,19.94 8.5,39.65 16.11,59.17 0.81,2.28 -1.25,2.82 -6.2,1.61 -4.95,-1.22 -10.04,-3.8 -15.21,-7.74 -20.88,-14.73 -38.79,-31.36 -53.69,-49.99 -14.9,-18.64 -28.3,-41.64 -40.16,-69 -4.61,-10.29 -9.19,-23.57 -13.76,-39.75 -4.58,-16.22 -9.15,-33 -13.69,-50.25 -4.56,-17.29 -8.26,-35 -11.04,-53.16 -2.78,-18.16 -4.56,-34.43 -5.54,-48.48 -0.45,-6.51 -0.31,-16.82 0.55,-30.78 0.85,-13.99 2.08,-28.47 3.65,-43.45 1.57,-15.01 2.99,-28.65 4.28,-40.95 1.28,-12.32 2.74,-20.56 4.41,-24.69 1.05,-3.14 1.57,-4.71 2.63,-7.85 5.17,6.39 7.75,9.59 12.9,15.98 z m -84.78,161.75 c 2.79,23.49 7.49,50.2 15.15,78.56 7.67,28.35 13.18,53.52 16.67,75.55 -6.84,-0.72 -12.71,-8.38 -17.6,-22.91 -4.9,-14.56 -9.09,-30.93 -12.55,-49.11 -3.47,-18.19 -6.18,-35.5 -8.13,-51.89 -1.96,-16.4 -2.69,-27.3 -2.18,-32.65 -0.11,-23.8 0.43,-35.64 1.61,-35.53 1.17,0.11 4.09,13.19 7.03,37.98 z m -40.45,130.78 c 5.4,16.71 7.2,24.99 5.49,24.83 -1.72,-0.16 -6.64,-10.39 -15.52,-29 -10.16,-21.3 -18.11,-40.79 -21.88,-57.86 -3.77,-17.09 -4.35,-42.77 -3.19,-75.62 0.63,-18.07 1.67,-26.87 3.95,-25.58 1.98,4.47 2.84,8.33 2.56,11.56 -0.37,4.27 0.39,12.72 2.25,25.3 1.85,12.56 4.16,26.55 6.91,41.93 2.74,15.35 6.04,30.79 9.87,46.27 3.84,15.47 7.02,28.2 9.56,38.17 z m 613.84,17.98 c 10.72,-0.16 19.44,-3.68 26.14,-10.6 6.71,-6.93 9.86,-15.36 9.4,-25.32 0.21,-1.06 -0.35,-7.47 -1.67,-19.24 -1.32,-11.76 -3.48,-27.27 -6.44,-46.45 -2.97,-19.2 -6,-41.69 -9.1,-67.44 -3.1,-25.79 -5.76,-52.56 -8.06,-80.32 -5.79,-62.37 -16.91,-113.34 -33.25,-152.78 -16.37,-39.48 -36.93,-69.74 -61.38,-90.62 -24.48,-20.9 -52.24,-32.91 -82.88,-35.9 -30.67,-2.98 -63.86,0.63 -99.35,11.02 -15.73,4.38 -28.99,11.58 -39.71,21.57 -10.72,9.99 -20.96,23.86 -30.71,41.61 -9.75,17.73 -19.31,39.62 -28.71,65.54 -9.39,25.92 -19.46,57.79 -30.11,95.53 -2.58,-8.77 -3.87,-13.15 -6.48,-21.92 -4.37,-14.63 -9.38,-28.78 -15.12,-42.44 -5.75,-13.68 -17.01,-27.99 -33.82,-42.86 -11.23,-9.93 -22.55,-16.56 -33.89,-19.92 -11.39,-3.38 -26.01,-7.09 -42.55,-9.25 -11.8,-1.54 -21.71,-2.13 -28.4,-2.76 -6.73,-0.65 -13.25,-0.2 -19.55,1.41 -15.05,2.91 -27.36,6.43 -36.93,10.46 -9.57,4.03 -18.95,9.43 -28.07,16.24 -24.73,17.38 -43.11,46.19 -55.21,86.3 -12.1,40.09 -18.26,83.65 -18.8,130.54 -0.54,46.89 5.08,93.99 16.4,141.33 11.32,47.29 28.07,87.65 50.22,120.84 26.02,39 59.08,72.68 98.82,101.24 39.72,28.56 80.57,47.21 121.33,57.18 49.44,12.08 94.3,15.28 133.84,7.03 12.74,-2.46 22.95,-4.7 30.63,-6.79 7.66,-2.09 15.4,-6.35 23.21,-12.73 3.99,-3.75 7.39,-3.74 10.19,-0.03 1.88,2.47 7.44,1.44 16.68,-3.05 9.23,-4.49 16.01,-11.99 20.97,-18.67 5.52,-7.43 12.68,-18.11 17.2,-31.51 4.54,-13.43 5.7,-27.88 6.63,-39.82 0.84,-10.79 2.67,-29.86 2.09,-54.48 -0.57,-24.62 -1.6,-52.37 -3.08,-83.12 -1.47,-30.78 -3.35,-63.26 -5.68,-97.4 -2.34,-34.16 -4.39,-66.92 -6.17,-98.22 -1.77,-31.3 -3.19,-59.88 -4.15,-85.6 -0.97,-25.74 0.38,-45.7 1.44,-57.75 1.61,-18.23 2.12,-36.44 4.91,-50.69 2.8,-14.25 7.62,-23.63 14.57,-28 4.33,-3.7 9.12,-4.32 14.38,-1.86 5.25,2.45 10.35,5.96 15.26,10.55 4.9,4.59 9.37,9.92 13.41,16.04 3.99,6.08 7.51,11.55 10.46,16.41 8.19,18.75 15.61,37.98 22.24,57.65 6.63,19.63 14.26,49.42 21.89,88.87 5.22,26.93 9.44,52.99 12.98,77.65 3.52,24.62 6.26,46.46 8.26,65.44 2.01,18.93 3.86,40.06 5.58,63.35 0.57,9.95 4.73,18.09 12.46,24.45 7.75,6.36 16.96,9.45 27.68,9.29"
         style="fill:#231f20;fill-opacity:1;fill-rule:nonzero;stroke:none"
         id="path32" /><path
         d="m 4251.03,2482.52 c -3.47,4.72 -7.07,-0.23 -10.93,-14.88 -3.85,-14.67 -7.39,-32.28 -10.65,-52.83 -3.25,-20.56 -6.12,-40.49 -8.57,-59.73 -2.46,-19.29 -3.87,-31.15 -4.1,-35.58 -8.51,-33.8 -15.66,-62.26 -21.22,-85.41 -5.57,-23.18 -9.57,-44.07 -11.93,-62.66 -2.35,-18.62 -2.95,-35.51 -1.73,-50.63 1.23,-15.15 3.44,-30.61 6.66,-46.43 2.32,-11.39 3.48,-17.08 5.8,-28.47 -1.08,9 -1.62,13.5 -2.7,22.51 0.82,45.19 4.77,95.75 11.48,151.6 6.71,55.85 20.64,125.11 40.5,207.88 2.88,13.88 5.16,26.24 6.89,37.13 1.71,10.86 1.86,16.7 0.5,17.5 z M 4144.9,2207.2 c -7.59,-35.58 -10.95,-62.57 -9.81,-80.98 1.15,-18.43 2.92,-37.05 3.09,-53.7 0.05,-5.29 0.47,-10.35 1.9,-14.43 1.43,-4.09 2.45,-7.74 3.07,-10.91 0.87,-4.44 1.31,-6.65 2.18,-11.09 2.83,-1.65 4.44,-0.23 4.82,4.24 0.38,4.44 -0.9,17.99 -2.07,39.08 -1.99,36.08 1.76,84.01 8.01,140.75 6.25,56.71 17.13,114.2 32.28,172.49 2.78,9.39 5.04,18.42 6.77,27.05 1.72,8.63 2.94,16.11 4.27,21.58 1.67,6.83 3.5,13.98 4.41,20.79 -1.14,-0.25 -4.04,-11.38 -8.85,-33.32 -4.82,-21.97 -10.5,-47.13 -17.18,-75.49 -6.68,-28.38 -13.24,-56.68 -19.62,-84.88 -6.39,-28.24 -10.9,-48.64 -13.27,-61.18 z m -137.66,206.86 c -1.18,38.08 -1.45,75.54 -0.86,112.36 0.59,36.78 -8,67.73 -25.32,92.97 -3.36,-12.69 -5.68,-23.26 -6.98,-31.69 -1.3,-8.44 -2.41,-15.85 -3.84,-21.23 -1.78,-6.75 -2.91,-18.61 -2.25,-34.89 0.66,-16.28 2.49,-32.65 5.49,-49.05 3,-16.43 7.22,-31.52 12.68,-45.29 5.45,-13.75 12.48,-21.5 21.08,-23.18 z m 503.85,74.76 c 9.14,-0.15 18.22,-3.18 25.72,-10.6 7.52,-7.43 11.31,-16.6 9.58,-25 -2.12,-10.24 -6.4,-31.62 -9.93,-62.07 -3.54,-30.49 -7.89,-65.38 -13.22,-104.58 -5.34,-39.24 -12.5,-80.87 -21.63,-124.82 -9.12,-43.96 -20.91,-85.2 -35.32,-123.61 -14.42,-38.42 -31.92,-72.23 -52.41,-101.3 -20.49,-29.07 -45.13,-48.97 -72.69,-57.86 -50.21,-16.19 -94.03,-17.89 -127.83,-7.14 -33.84,10.75 -60.37,30.05 -79.66,57.57 -19.3,27.53 -32.46,60.65 -39.73,99.28 -7.26,38.6 -10.09,78.59 -8.7,119.94 1.38,41.35 6.07,82.24 13.91,122.73 7.82,40.45 17.56,76.15 29.21,107.1 4.01,9.6 6.82,19.25 8.41,28.93 1.58,9.65 1.78,14.37 0.65,14.14 0.81,-9.72 -2.72,-21.46 -10.68,-35.15 -7.97,-13.72 -19.19,-26.43 -33.68,-38.06 -14.52,-11.66 -31.45,-20.41 -50.74,-26.25 -19.33,-5.84 -40.41,-4.68 -61.15,0.24 -30.62,7.25 -56.25,24.82 -72.07,55.45 -15.82,30.6 -25.43,63.93 -29.13,99.87 -3.69,35.92 -1.61,70.13 5.98,102.54 7.6,32.42 18.93,54.29 33.8,65.74 10.97,8.45 23.75,14.67 38.35,18.47 14.59,3.8 28.75,5.66 42.39,5.56 13.66,-0.1 26.72,-2.77 39.15,-7.96 12.44,-5.2 22.16,-12.67 28.52,-22.27 10.1,-15.23 17.31,-36.86 21.69,-63.96 4.38,-27.1 4.23,-54.91 -0.62,-83.32 12.32,14.56 25.04,29.8 38.1,45.74 13.04,15.91 24.86,26.13 35.56,30.66 51.52,21.04 87.81,25.66 109.56,13.08 21.73,-12.57 31.29,-48.77 27.11,-108.06 -2.45,-34.77 -5.77,-74.31 -9.7,-118.25 -3.93,-43.96 -6.16,-88.61 -6.57,-133.9 -0.41,-45.32 2.1,-89.41 7.72,-132.24 5.62,-42.85 17.61,-80.44 36.3,-112.67 7.15,8.19 14.74,17.33 22.73,27.41 7.97,10.06 15.62,22.84 22.91,38.34 7.27,15.47 15.05,34.15 23.22,55.99 8.18,21.82 17.05,48.36 25.62,79.16 9.46,34.03 16.9,68.15 22.92,101.26 6.01,33.09 10.88,62.69 14.69,88.64 3.81,25.95 7.51,55.54 11.02,88.74 0.09,8.9 4.43,16.72 12.99,23.43 8.53,6.7 18.22,9.21 27.65,9.06"
         style="fill:#231f20;fill-opacity:1;fill-rule:nonzero;stroke:none"
         id="path34" /><path
         d="m 2539.07,2652.36 c 6.63,6.41 13.14,21.47 19.48,45.17 l -2.77,0.26 c -3.11,-8.59 -6.08,-16.85 -8.9,-24.77 -2.81,-7.91 -5.36,-14.11 -7.63,-18.58 l -1.71,-3.35 1.53,1.27 z m -16.3,-2.03 c 0.84,-1.01 2.67,1.28 5.52,6.86 2.85,5.58 5.68,11.28 8.56,17.09 6.04,20.45 10.6,41.19 13.66,62.15 3.06,20.98 2.32,42.41 -2.24,64.3 -1.02,4.29 -2.33,9.08 -3.95,14.36 -1.63,5.28 -3.77,11.31 -6.43,18.1 -6.3,-23.25 -11.24,-43.01 -14.8,-59.26 -3.58,-16.24 -6.54,-32.21 -8.89,-47.87 -0.46,-5.09 -0.79,-11.37 -0.99,-18.83 -0.22,-7.44 0.05,-14.95 0.76,-22.49 0.72,-7.53 1.73,-14.39 3.05,-20.58 1.3,-6.19 3.22,-10.8 5.75,-13.83 z m -25.32,223.63 c 2.6,8.18 6.22,18.46 10.85,30.9 4.62,12.41 9.23,24.73 13.85,36.92 4.6,12.19 8.72,22.91 12.36,32.16 3.64,9.24 6,14.74 7.09,16.51 l 0.19,2.09 c -2.7,-3.96 -4.88,-7.51 -6.56,-10.61 -1.69,-3.12 -3.5,-6.34 -5.42,-9.67 -1.96,-3.33 -3.73,-6.32 -5.37,-8.98 -5.05,-9.35 -10.37,-21.71 -15.95,-37.08 -5.6,-15.37 -11.05,-31.69 -16.34,-48.95 -5.31,-17.27 -10.09,-34.23 -14.41,-50.88 -4.31,-16.66 -7.26,-31.22 -8.85,-43.68 l -1.83,-12.44 3.59,16.48 c 3.02,12.79 6.49,25.33 10.4,37.58 3.92,12.26 9.38,28.81 16.4,49.65 z m -37.48,-65.95 c -4.79,-21.98 -4.09,-22.05 2.09,-0.18 6.51,25.55 14.09,50.08 22.75,73.58 1.38,5.01 2.71,9.33 3.98,12.95 1.25,3.62 1.65,5.46 1.19,5.5 -0.5,-0.42 -1.04,-1.08 -1.57,-1.96 -0.55,-0.89 -1.42,-2.68 -2.59,-5.37 -3.32,-5.77 -7.48,-16.84 -12.45,-33.2 -4.99,-16.36 -9.45,-33.47 -13.4,-51.32 z m -14.07,84.63 c 4.08,3.83 7.42,7.26 10.05,10.3 2.6,3.02 5.23,6.29 7.88,9.79 2.65,3.49 5.05,6.78 7.19,9.86 3.16,3.91 6.91,9.29 11.26,16.14 4.36,6.84 8.85,13.9 13.48,21.19 4.63,7.29 9.02,14.48 13.17,21.58 4.13,7.09 7.34,12.88 9.61,17.34 2.23,4 5.16,9.34 8.81,16.02 3.64,6.68 8.53,15.8 14.73,27.38 l -7.02,7.65 c -6.02,5.67 -11.29,10.7 -15.79,15.08 -4.5,4.37 -10.55,8.54 -18.14,12.5 -4.25,-0.56 -8.51,-5.19 -12.81,-13.9 -4.28,-8.72 -8.39,-19.21 -12.3,-31.46 -3.91,-12.26 -7.37,-24.67 -10.37,-37.24 -3,-12.58 -5.35,-22.98 -7.03,-31.24 -1.52,-6.41 -3.1,-13.62 -4.75,-21.63 -1.67,-8.03 -3.17,-15.72 -4.53,-23.06 -1.38,-7.35 -2.4,-13.44 -3.05,-18.28 -0.69,-4.84 -0.81,-7.53 -0.39,-8.02 z m -21.13,68.45 c 4.37,17.35 8.95,33.04 13.72,47.09 4.76,14.04 10.43,28.94 16.99,44.69 1.77,4.05 3.28,7.88 4.55,11.5 0.61,1.81 1.23,3.39 1.82,4.74 -12.8,-12.4 -21.78,-27.92 -26.97,-46.59 -5.19,-18.69 -9.43,-40.95 -12.69,-66.8 l -1.95,-13.83 4.53,19.2 z m -2,94.04 c 0.62,1.81 1.24,3.39 1.82,4.74 0.59,1.34 1.16,2.46 1.71,3.35 0.59,1.35 0.93,2.48 1.01,3.41 -0.94,0.08 -3.14,-2.41 -6.63,-7.46 -3.5,-5.06 -7.16,-10.68 -10.98,-16.87 -6.61,-11.08 -11.3,-23.03 -14.1,-35.85 -2.8,-12.82 -4.81,-26.18 -6.07,-40.08 l -0.94,-10.42 c 5.67,21.44 11.21,40.2 16.64,56.29 5.41,16.08 11.26,30.38 17.54,42.89 z m 248.51,-71.49 c 4.08,-1.31 7.23,-3.81 9.46,-7.51 2.24,-3.71 2.7,-7.6 1.4,-11.68 -0.08,-0.94 -1.77,-5.45 -5.07,-13.56 -3.31,-8.1 -9.3,-17.61 -17.99,-28.49 -8.69,-10.89 -20.66,-21.95 -35.92,-33.18 -15.26,-11.22 -34.88,-20.43 -58.88,-27.6 15.26,-42.95 22.76,-82.72 22.48,-119.35 -0.28,-36.63 -9.24,-70.04 -26.92,-100.2 -9.92,-16.84 -20.79,-25.9 -32.57,-27.17 -11.79,-1.27 -23.14,2.32 -34.04,10.78 -10.92,8.46 -20.58,20.31 -29.02,35.55 -8.42,15.23 -13.8,30.66 -16.12,46.28 -3.16,16.64 -4.3,33.78 -3.41,51.45 0.89,17.67 2.46,33.86 4.74,48.6 2.47,17.05 5.82,33.33 10.02,48.83 0.54,0.88 -1.21,-0.36 -5.24,-3.73 -6.02,-4.6 -12.84,-7.72 -20.45,-9.36 -7.63,-1.65 -15.48,-1.88 -23.54,-0.68 -8.06,1.19 -15.76,3.88 -23.08,8.05 -7.34,4.16 -13.51,9.5 -18.52,16.03 -2.91,4 -5.9,9.74 -8.95,17.27 -3.07,7.51 -5.25,14.36 -6.55,20.55 -2.78,15.66 -3.21,32.87 -1.28,51.6 1.93,18.74 5.94,37.29 12.03,55.66 6.09,18.35 14.2,35.71 24.32,52.08 10.12,16.36 21.74,30.02 34.88,40.98 10.04,7.95 20.81,13.29 32.26,16 11.45,2.69 22.81,3.07 34.07,1.12 11.27,-1.96 22.11,-6.09 32.5,-12.4 10.4,-6.31 19.83,-14.28 28.31,-23.92 5.06,-6.06 8.12,-9.61 9.19,-10.64 1.08,-1.04 2.14,-0.89 3.2,0.41 2.01,1.68 3.51,2.72 4.48,3.11 1.47,0.79 2.3,0.95 2.49,0.47 0.2,-0.49 -0.05,-1.87 -0.72,-4.14 -0.67,-2.28 -0.91,-3.54 -0.7,-3.78 0.21,-0.27 0.58,-0.06 1.11,0.59 0.52,0.65 1.09,1.66 1.67,3 0.59,1.35 0.93,2.48 1.01,3.42 0.08,0.92 1.1,1.76 3.04,2.52 0.96,0.37 1.52,0.21 1.7,-0.5 0.17,-0.72 0.05,-3.4 -0.37,-8.03 l 3.22,4.62 c 1.05,1.31 3.49,2.48 7.33,3.54 3.82,1.05 5.62,0.19 5.36,-2.59 0.34,-1.43 1.22,-1.98 2.66,-1.64 2.44,1.18 4.52,0.99 6.25,-0.56 1.72,-1.56 3.04,-3.79 3.95,-6.66 0.9,-2.89 1.43,-5.97 1.61,-9.26 0.17,-3.29 0.2,-5.62 0.08,-7.01 -5.73,-27.04 -13.62,-53.64 -23.68,-79.81 -10.07,-26.18 -19.18,-53.37 -27.34,-81.58 31.61,8.8 56.81,24.04 75.57,45.69 4.17,4.77 7.61,9.24 10.33,13.43 2.71,4.19 4.93,8.07 6.66,11.66 2.21,4.01 3.72,7.6 4.48,10.81 1.29,4.08 3.68,7.24 7.16,9.5 3.46,2.25 7.25,2.73 11.34,1.43"
         style="fill:#231f20;fill-opacity:1;fill-rule:nonzero;stroke:none"
         id="path36" /><path
         d="m 2869.03,2947.55 c -5.96,-24.68 -10.68,-44.56 -14.14,-59.66 -3.46,-15.09 -5.14,-24.52 -5.01,-28.26 -0.12,-1.39 -0.16,-1.86 -0.12,-1.39 0.03,0.45 0.44,2.29 1.21,5.49 0.64,2.27 2.3,8.9 4.93,19.86 2.62,10.97 5.47,23.09 8.54,36.36 3.53,13.22 6.54,25.91 9.05,38.06 2.49,12.14 4.36,20.03 5.63,23.65 0.83,4.13 1.4,7.69 1.67,10.71 0.27,3.01 0.43,4.74 0.47,5.21 -0.38,0.96 -0.67,0.29 -0.89,-2.02 -0.08,-0.93 -1.24,-6.08 -3.49,-15.44 -2.24,-9.37 -4.86,-20.23 -7.85,-32.57 z m -38.43,-76.38 c -2.54,-12.85 -3.79,-19.97 -3.67,-21.38 0.1,-1.41 1.4,3.84 3.88,15.76 1.43,5.48 3.61,14.26 6.57,26.38 2.97,12.1 5.92,24.09 8.87,35.97 2.97,12.34 5.56,22.72 7.71,31.17 2.17,8.44 3.87,15.64 5.11,21.61 1.23,5.94 2.28,11 3.12,15.12 0.84,4.13 1.66,8.02 2.46,11.69 1.51,6.39 2.07,10.08 1.69,11.06 -0.38,0.95 -1.3,-1.53 -2.77,-7.46 -0.21,-2.33 -1.47,-8.51 -3.78,-18.57 -2.31,-10.08 -5.19,-21.24 -8.64,-33.54 -3.58,-13.69 -6.44,-24.88 -8.63,-33.55 -2.18,-8.67 -4.02,-16.09 -5.51,-22.26 -1.5,-6.17 -2.69,-11.67 -3.59,-16.49 -0.91,-4.82 -1.86,-9.99 -2.82,-15.51 z m -142.5,43.01 c 2.06,7.27 4.34,15.71 6.85,25.29 2.49,9.58 5.12,19.26 7.87,29.06 2.75,9.79 5.46,19.11 8.14,27.99 2.66,8.86 4.96,16.24 6.91,22.14 2.47,6.78 4.57,13.24 6.29,19.38 1.72,6.16 2.92,10.36 3.6,12.64 1.46,5.93 1.73,8.95 0.81,9.03 -0.93,0.09 -2.59,-2.8 -4.98,-8.65 -3.78,-10.87 -7.66,-22.78 -11.64,-35.73 -3.96,-12.94 -7.72,-25.91 -11.21,-38.91 -3.52,-12.99 -6.61,-25.31 -9.31,-36.98 -2.69,-11.66 -4.61,-21.42 -5.79,-29.25 l -0.94,-10.42 3.4,14.41 z m -28.82,37.62 c 10.91,38.24 20.83,67.7 29.7,88.38 1.26,3.62 2.46,6.54 3.59,8.78 1.14,2.22 1.48,3.37 1.02,3.41 -3.71,-4.81 -7.49,-11.83 -11.35,-21.04 -3.89,-9.22 -7.55,-18.82 -11.02,-28.77 -3.47,-9.96 -6.31,-19.52 -8.54,-28.65 -2.23,-9.14 -3.56,-16.26 -4.02,-21.35 -0.21,-2.33 -0.02,-2.57 0.62,-0.76 z m 331.22,-1.22 c 4.07,-1.3 7.01,-3.79 8.78,-7.44 1.75,-3.67 1.99,-7.54 0.68,-11.62 -0.04,-0.47 -1.13,-3.64 -3.31,-9.51 -2.16,-5.88 -4.95,-13.56 -8.37,-23.06 -3.44,-9.49 -7.46,-20.46 -12.08,-32.88 -4.63,-12.43 -9.87,-25.15 -15.7,-38.15 -6.57,-15.76 -12.99,-29.9 -19.26,-42.4 -6.27,-12.51 -12.42,-23.86 -18.47,-34.05 -16.45,-26.99 -31.74,-43.6 -45.84,-49.8 -7.7,-2.56 -15.93,-3.22 -24.68,-1.96 -8.77,1.26 -16.86,4.79 -24.27,10.6 -7.46,5.35 -13.38,12.18 -17.75,20.51 -4.4,8.34 -7.56,17.15 -9.53,26.43 -1.96,9.29 -2.84,18.92 -2.63,28.95 0.2,10.02 0.97,19.89 2.32,29.57 2.39,16.12 6.33,35.26 11.84,57.42 5.51,22.14 10.87,42.79 16.11,61.93 5.22,19.14 9.39,34.17 12.48,45.1 3.08,10.93 3.17,13.25 0.27,6.99 -4.07,-8.99 -9.78,-20.49 -17.12,-34.53 -7.34,-14.04 -15.89,-28.58 -25.66,-43.56 -9.75,-15 -20.41,-29.45 -31.92,-43.35 -11.54,-13.91 -23.31,-25.33 -35.33,-34.28 -12.01,-8.96 -23.94,-14.19 -35.74,-15.69 -11.81,-1.5 -23.14,2.45 -33.94,11.83 -12.98,11.44 -20.26,30.43 -21.83,56.96 -1.56,26.52 3.42,59.81 14.97,99.86 8.08,27.29 16.19,48.5 24.32,63.64 8.13,15.14 16.37,24.91 24.72,29.3 0.96,0.37 3.22,0.86 6.78,1.48 3.56,0.61 5.26,-0.01 5.09,-1.86 -0.25,-2.78 -2.94,-8.03 -8.09,-15.73 -5.13,-7.71 -9.25,-15.87 -12.35,-24.45 -1.81,-4.51 -4.19,-11.42 -7.13,-20.72 -2.94,-9.31 -5.94,-19.19 -8.99,-29.66 -3.05,-10.47 -5.75,-20.96 -8.09,-31.48 -2.36,-10.54 -4.11,-19.48 -5.23,-26.85 -1.1,-6.9 -1.48,-9.79 -1.13,-8.65 0.33,1.12 2.23,8.08 5.73,20.84 3.56,13.69 7.35,27.11 11.34,40.3 4,13.18 8.16,25.64 12.49,37.4 4.33,11.74 8.57,22.45 12.71,32.12 4.14,9.66 8.13,17.59 11.96,23.79 0.54,0.88 2.07,2.26 4.58,4.14 2.51,1.87 3.2,1.92 2.12,0.16 -0.09,-0.94 -0.47,-2.53 -1.14,-4.8 -0.68,-2.28 -0.15,-1.63 1.58,1.95 2.1,2.62 3.6,3.89 4.54,3.8 -1.35,0.58 -1.34,0.7 0.04,0.34 1.36,-0.36 3.26,-1.24 5.71,-2.61 2.44,-1.39 4.73,-3.12 6.89,-5.18 2.14,-2.06 3.55,-4.52 4.24,-7.39 1.33,-5.72 1.33,-12.37 -0.06,-19.96 -1.38,-7.57 -3.27,-15.46 -5.64,-23.65 -2.38,-8.19 -4.86,-16.15 -7.41,-23.84 -2.57,-7.72 -4.58,-14.54 -6.04,-20.47 -5.57,-20.06 -10.75,-40.01 -15.58,-59.89 -4.83,-19.87 -7.88,-41.91 -9.13,-66.07 7.54,5.86 14.5,11.88 20.9,18.08 6.4,6.18 12.46,12.53 18.18,19.02 18.39,22.61 34.69,46.71 48.92,72.28 14.21,25.56 29.91,50.88 47.14,75.94 5.88,8.33 10.12,13.91 12.71,16.71 2.59,2.8 5.04,4.1 7.35,3.89 1.85,-0.17 2.84,0.21 2.91,1.14 1.01,0.84 2.66,1.16 4.99,0.95 l 9.04,-0.82 c 2.35,0.25 4.64,-0.19 6.88,-1.32 1.76,-1.1 3.11,-1.68 4.05,-1.77 2.31,-0.21 4.83,-1.95 7.57,-5.24 2.75,-3.28 4.68,-6.37 5.82,-9.27 3.33,-9.66 3.06,-25.5 -0.8,-47.57 -2.4,-16.13 -5.46,-31.96 -9.19,-47.5 -3.75,-15.53 -7.38,-31.2 -10.91,-46.99 -3.53,-15.79 -6.84,-31.73 -9.92,-47.79 -3.09,-16.07 -5.15,-32.46 -6.2,-49.17 -0.76,-13.48 -0.86,-25.03 -0.33,-34.64 0.54,-9.63 1.62,-18.24 3.28,-25.87 l 1.07,-3.59 c 3.11,-1.69 6.71,-0.61 10.8,3.22 4.08,3.84 10.49,12.82 19.25,26.98 5.5,9.31 11.27,20.11 17.29,32.41 6.02,12.29 12.25,25.86 18.74,40.68 5.33,12.6 10.42,24.98 15.25,37.15 4.84,12.17 8.84,22.9 12.03,32.19 3.17,9.28 6.91,19.79 11.26,31.55 1.28,4.09 3.77,7.01 7.45,8.79 3.65,1.76 7.53,2 11.62,0.69"
         style="fill:#231f20;fill-opacity:1;fill-rule:nonzero;stroke:none"
         id="path38" /><path
         d="m 3054.33,2982.64 c -1.86,-4.98 -3.39,-9.04 -4.61,-12.19 -1.22,-3.16 -1.85,-4.98 -1.89,-5.43 2.01,1.67 6.96,6.13 14.86,13.36 7.9,7.22 15.74,15.27 23.55,24.14 7.81,8.86 13.96,17.65 18.5,26.35 4.51,8.7 4.67,15.8 0.51,21.32 -0.84,1 -1.62,1.42 -2.33,1.26 -0.71,-0.18 -2.85,-1.74 -6.37,-4.68 -7.62,-6.79 -15.11,-15.91 -22.44,-27.39 -7.34,-11.49 -13.95,-23.73 -19.78,-36.74 z m -32.41,-9.68 c -1.14,-2.23 -2.34,-5.28 -3.63,-9.12 -1.29,-3.87 -2.44,-7.73 -3.5,-11.6 -1.05,-3.88 -1.93,-7.18 -2.63,-9.92 -0.73,-2.73 -1.11,-4.34 -1.14,-4.8 1.67,-2.02 5.23,3.73 10.66,17.25 1.77,4.05 3.69,8.66 5.8,13.84 2.11,5.17 4.19,10.23 6.27,15.19 2.1,4.94 4.01,9.44 5.79,13.48 1.77,4.05 3.21,7.18 4.35,9.42 3.99,8.04 2.75,7.21 -3.72,-2.47 -6.96,-9.65 -13.03,-20.08 -18.25,-31.27 z m -37.61,-36.52 c -1.73,-8.73 -2.76,-16.22 -3.08,-22.49 -0.35,-6.27 -0.02,-9 1.01,-8.15 0.49,0.41 1.15,3.75 1.94,9.98 0.8,6.23 1.83,11.16 3.09,14.78 3.88,11.79 8.91,24.87 15.11,39.26 6.2,14.39 12.08,26.46 17.63,36.23 3.88,6.66 2.61,5.6 -3.79,-3.15 -16.62,-23.72 -27.25,-45.87 -31.91,-66.46 z m 213.36,-3.18 c 3.6,-1.26 6.17,-3.83 7.69,-7.7 1.51,-3.88 1.39,-7.83 -0.36,-11.88 -0.04,-0.46 -1.23,-3.15 -3.54,-8.08 -2.31,-4.93 -5.45,-11.18 -9.4,-18.77 -3.96,-7.58 -8.83,-16.25 -14.61,-25.99 -5.78,-9.75 -11.93,-19.71 -18.45,-29.86 -18.28,-26.36 -35.85,-46.48 -52.74,-60.37 -16.91,-13.88 -33.52,-20.78 -49.86,-20.7 -22.57,3.43 -40.76,11.38 -54.57,23.83 -13.83,12.46 -24.02,27.62 -30.57,45.49 -6.56,17.87 -9.69,37.41 -9.41,58.64 0.28,21.22 3.11,42.21 8.49,62.98 5.39,20.76 12.85,40.27 22.46,58.56 9.59,18.27 20.52,33.4 32.8,45.36 12.8,12.39 27.09,21.95 42.88,28.7 15.78,6.74 32.94,6.71 51.48,-0.1 7.67,-3.04 13.43,-7.51 17.34,-13.47 3.9,-5.96 5.54,-12.41 4.91,-19.36 -0.83,-9.27 -4.94,-19.86 -12.33,-31.81 -7.39,-11.94 -17,-23.92 -28.83,-35.92 -9.2,-8.97 -17.09,-16.08 -23.63,-21.32 -6.55,-5.26 -11.85,-9.69 -15.91,-13.27 -4.06,-3.61 -7.15,-6.61 -9.21,-8.98 -2.09,-2.38 -3.3,-5.42 -3.63,-9.12 -0.88,-9.74 -1.91,-19.92 -3.11,-30.55 -1.2,-10.64 -2.26,-21.05 -3.18,-31.24 -0.93,-10.18 -1.55,-19.82 -1.9,-28.89 -0.36,-9.08 0.13,-16.47 1.48,-22.2 0.94,-5.23 2.54,-10.73 4.83,-16.54 2.27,-5.81 4.28,-9.27 6.05,-10.37 5.32,-3.28 12.07,-2.12 20.28,3.43 8.21,5.56 16.42,12.52 24.65,20.89 8.23,8.36 15.64,16.8 22.26,25.3 6.6,8.51 10.98,14.3 13.12,17.39 6.48,9.67 12.48,19.18 17.99,28.49 5.51,9.3 10.11,17.64 13.82,25.02 3.7,7.37 7.83,15.74 12.43,25.13 1.72,3.58 4.51,6.13 8.39,7.66 3.87,1.5 7.82,1.39 11.89,-0.38"
         style="fill:#231f20;fill-opacity:1;fill-rule:nonzero;stroke:none"
         id="path40" /><path
         d="m 3290.68,2947.27 c -0.72,2.4 -2.71,0.83 -6.02,-4.71 -3.31,-5.55 -6.85,-12.34 -10.6,-20.4 -3.77,-8.07 -7.28,-15.93 -10.54,-23.57 -3.27,-7.65 -5.21,-12.38 -5.84,-14.18 -7.23,-12.9 -13.24,-23.79 -18.01,-32.7 -4.78,-8.91 -8.66,-17.07 -11.67,-24.51 -3.02,-7.43 -5.15,-14.37 -6.43,-20.78 -1.29,-6.43 -2.23,-13.11 -2.87,-20.06 l -1.12,-12.5 1.57,9.66 c 5.42,18.65 12.64,39.14 21.67,61.44 9.01,22.29 22.41,49.21 40.22,80.77 2.81,5.35 5.22,10.14 7.25,14.4 2.01,4.25 2.81,6.63 2.39,7.14 z m -72.83,-100.59 c -6.86,-13.85 -11.1,-24.68 -12.73,-32.47 -1.64,-7.8 -3.27,-15.36 -4.86,-22.67 -0.67,-2.29 -0.97,-4.37 -0.91,-6.22 0.06,-1.88 0.03,-3.52 -0.09,-4.91 l -0.44,-4.86 c 0.84,-1.02 1.57,-0.61 2.2,1.2 0.63,1.81 1.82,7.31 3.6,16.5 3.74,15.52 10.03,34.69 18.85,57.48 8.82,22.77 19.62,45.26 32.36,67.47 2.19,3.54 4.14,6.98 5.84,10.33 1.7,3.34 3.12,6.13 4.28,8.37 1.62,2.65 3.03,5.33 4.22,8.02 -0.47,0.04 -2.96,-4.17 -7.45,-12.63 -4.52,-8.47 -9.7,-18.16 -15.59,-29.06 -5.89,-10.92 -11.67,-21.84 -17.32,-32.77 -5.66,-10.93 -9.65,-18.86 -11.96,-23.78 z m -28.59,102.05 c 3.78,16 7.86,31.62 12.28,46.87 4.42,15.24 4.62,29.11 0.62,41.62 -2.8,-4.89 -4.91,-9.01 -6.38,-12.37 -1.47,-3.38 -2.77,-6.19 -3.92,-8.41 -1.63,-2.65 -3.23,-7.41 -4.78,-14.28 -1.56,-6.86 -2.66,-13.89 -3.31,-21.06 -0.65,-7.19 -0.67,-13.95 -0.08,-20.31 0.59,-6.35 2.43,-10.38 5.57,-12.06 z m 199.98,-34.89 c 3.61,-1.26 6.29,-3.96 8.03,-8.08 1.71,-4.12 1.72,-7.97 0,-11.55 -2.7,-3.96 -6.8,-11.89 -12.31,-23.75 -5.51,-11.88 -11.87,-25.44 -19.09,-40.66 -7.21,-15.23 -15.31,-31.18 -24.29,-47.88 -8.97,-16.7 -18.42,-31.97 -28.3,-45.78 -9.89,-13.82 -20.16,-25.38 -30.8,-34.69 -10.64,-9.3 -21.37,-14.19 -32.14,-14.62 -19.62,-0.08 -34.77,4.1 -45.46,12.53 -10.67,8.44 -17.97,19.48 -21.87,33.14 -3.9,13.66 -5.08,28.94 -3.56,45.85 1.54,16.91 4.82,33.89 9.86,50.94 5.05,17.06 11.31,33.54 18.83,49.44 7.5,15.89 15.29,29.54 23.31,40.97 2.65,3.49 4.86,7.15 6.61,10.96 1.73,3.8 2.37,5.74 1.91,5.78 -0.85,-4.13 -3.57,-8.55 -8.2,-13.27 -4.63,-4.72 -10.36,-8.64 -17.17,-11.76 -6.82,-3.12 -14.21,-4.78 -22.17,-4.99 -7.97,-0.23 -15.69,2.12 -23.17,7 -11.58,6.17 -18.83,16.52 -21.72,31.03 -2.89,14.49 -3.18,29.46 -0.85,44.9 2.34,15.43 6.77,29.51 13.28,42.23 6.52,12.72 13.41,20.61 20.7,23.7 5.35,2.32 11.17,3.42 17.46,3.32 6.3,-0.11 12.17,-0.99 17.63,-2.64 5.44,-1.66 10.34,-4.33 14.68,-7.99 4.33,-3.66 7.22,-7.89 8.65,-12.68 2.12,-7.67 2.4,-17.38 0.88,-29.15 -1.54,-11.77 -4.9,-23.27 -10.12,-34.46 6.47,4.54 13.21,9.31 20.21,14.28 6.97,4.97 12.83,7.71 17.55,8.23 22.6,2.15 37.28,-0.81 44.02,-8.89 6.73,-8.08 5.53,-24.08 -3.63,-48 -5.47,-13.99 -11.69,-29.76 -18.65,-47.35 -6.96,-17.58 -13.27,-35.69 -18.9,-54.33 -5.67,-18.63 -10.02,-37.16 -13.09,-55.55 -3.06,-18.41 -3.2,-35.44 -0.41,-51.1 3.48,2.49 7.24,5.3 11.26,8.44 4.03,3.14 8.26,7.42 12.73,12.86 4.45,5.43 9.5,12.1 15.11,20 5.62,7.9 11.98,17.58 19.1,29.09 7.68,12.85 14.79,25.63 21.32,38.35 6.51,12.72 12.22,24.11 17.09,34.18 4.88,10.07 10.24,21.6 16.1,34.62 1.26,3.62 3.94,6.18 8.04,7.68 4.11,1.49 7.94,1.38 11.54,-0.35"
         style="fill:#231f20;fill-opacity:1;fill-rule:nonzero;stroke:none"
         id="path42" /></g></g></svg>