<?xml version="1.0" encoding="UTF-8" standalone="no"?>
<svg
   xmlns:dc="http://purl.org/dc/elements/1.1/"
   xmlns:cc="http://creativecommons.org/ns#"
   xmlns:rdf="http://www.w3.org/1999/02/22-rdf-syntax-ns#"
   xmlns:svg="http://www.w3.org/2000/svg"
   xmlns="http://www.w3.org/2000/svg"
   viewBox="0 0 440 480"
   height="480"
   width="440"
   xml:space="preserve"
   version="1.1"
   id="svg2"><metadata
     id="metadata8"><rdf:RDF><cc:Work
         rdf:about=""><dc:format>image/svg+xml</dc:format><dc:type
           rdf:resource="http://purl.org/dc/dcmitype/StillImage" /><dc:title></dc:title></cc:Work></rdf:RDF></metadata><defs
     id="defs6" /><g
     transform="matrix(1.25,0,0,-1.25,0,480.00003)"
     id="g10"><g
       transform="matrix(0.1,0,0,0.1,-108.10105,-93.687582)"
       id="g12"><path
         id="path14"
         style="fill:#231f20;fill-opacity:1;fill-rule:evenodd;stroke:none"
         d="m 3815.2,1560.3 c -18.93,9.48 -32.65,16.35 -46.19,23.12 20.77,57.13 38.81,113.28 61.54,167.48 22.25,53.09 49.25,104.19 74.18,156.17 0.56,1.19 1.32,2.32 1.68,3.59 25.2,86.49 74.37,161.85 112.41,242.4 20.76,43.98 42.18,87.64 62.72,131.71 4.41,9.45 6.65,19.95 9.28,30.12 2.3,8.93 2.01,18.91 5.85,26.97 27.11,56.89 55.39,113.2 82.47,170.07 14.69,30.82 27.93,62.35 41.58,93.67 4.72,10.83 7.08,23.05 13.37,32.82 45.03,69.96 69.34,149.83 109.35,226.48 13.67,-3.89 28.2,-8.01 46.55,-13.23 -11.05,-25.41 -20.19,-48.25 -30.73,-70.42 -53.25,-111.82 -107.76,-223.06 -159.99,-335.35 -26.61,-57.24 -48.75,-116.56 -74.01,-174.44 -44.29,-101.45 -89.97,-202.27 -134.01,-303.82 -50.87,-117.26 -100.54,-235.05 -150.87,-352.54 -7.19,-16.78 -15.23,-33.21 -25.18,-54.8" /><path
         id="path16"
         style="fill:#231f20;fill-opacity:1;fill-rule:evenodd;stroke:none"
         d="m 3686.1,1588.1 c 4.89,-68.45 9.25,-129.66 13.55,-189.92 27.07,-9.3 50.47,-17.33 73.94,-25.37 42.84,33.66 82.17,68.56 120.59,115.14 -71.96,34.64 -137.66,66.27 -208.08,100.15 z m 143.18,383.39 c -39.56,-98.98 -79.76,-197.68 -119.7,-296.51 -7.21,-17.84 -14.46,-35.68 -22.41,-55.24 17.68,-8.41 31.67,-15.06 51.21,-24.33 10.25,17.76 20.11,31.72 26.84,47.08 24.77,56.67 48.07,113.98 72.71,170.69 37.25,85.69 73.67,171.79 113.15,256.44 46.23,99.13 93.55,197.51 135.93,298.58 61.63,146.97 133.11,289.81 200.1,434.54 10.84,23.44 20.14,47.58 30.39,71.93 -20.35,8.4 -37.18,15.37 -58.14,24.03 -7.7,-13.94 -15.69,-27.1 -22.48,-40.85 -56.64,-114.65 -113.53,-229.19 -169.41,-344.22 m 351.4,323.88 c -6.89,-10.78 -11.63,-17.01 -15.16,-23.88 -34.22,-66.5 -68.61,-132.93 -102.05,-199.85 -6.9,-13.84 -8.48,-30.28 -15.06,-44.35 -27.23,-58.24 -56.86,-115.4 -82.91,-174.17 -26.07,-58.87 -47.63,-119.74 -73.46,-178.73 -44.88,-102.5 -92.11,-203.98 -137.32,-306.32 -42.04,-95.17 -83.07,-190.79 -123.83,-286.51 -10.17,-23.91 -17.61,-48.99 -26.38,-73.74 9.7,-5.77 16.54,-9.5 23.03,-13.75 32.02,-20.94 33.99,-20.8 51.31,14.77 29.43,60.47 59.57,120.65 86.92,182.04 79.35,178.12 157.77,356.65 235.96,535.29 37.5,85.72 74.46,171.68 110.21,258.15 38.18,92.34 74.61,185.39 113.37,282.02 -10.65,6.91 -25.62,16.66 -44.63,29.03 z m -730.51,-1586.8 c -22.52,7.95 -26.52,21.31 -26.33,39.06 0.53,50.14 1.36,100.37 -1.11,150.41 -2.72,55.21 -9.5,110.2 -13.32,165.37 -0.88,12.69 0.53,26.75 5.22,38.41 33.5,83.04 68.41,165.47 102.28,248.36 39.41,96.47 77.44,193.53 117.57,289.7 22.82,54.72 48.33,108.34 73.21,162.2 39.23,84.98 77.92,170.24 118.77,254.45 38.48,79.29 79.56,157.32 119.31,235.98 15.47,30.59 29.75,61.82 45.84,92.07 10.58,19.91 25.8,25 41.87,11.62 31.73,-26.39 71.27,-33.16 108.07,-45.87 41.81,-14.43 79.08,-35.95 114.2,-61.45 21.54,-15.65 19.7,-21.03 7.74,-45.59 -35.73,-73.33 -69.56,-147.27 -97.68,-224.26 -31.59,-86.56 -71.93,-169.92 -108.52,-254.67 -30.82,-71.43 -60.8,-143.24 -92.77,-214.18 -66.61,-147.84 -134.66,-295.02 -201.28,-442.86 -23.8,-52.8 -44.67,-106.9 -67.9,-159.96 -5.1,-11.66 -12.9,-23.13 -22.17,-31.81 -46.13,-43.21 -93.35,-85.27 -139.81,-128.13 -27.88,-25.72 -55.08,-52.15 -83.19,-78.85" /><path
         id="path18"
         style="fill:#231f20;fill-opacity:1;fill-rule:evenodd;stroke:none"
         d="m 3471.93,1080.2 c 17.84,124.1 32.84,238.27 50.98,351.92 32.79,205.66 68.97,410.77 100.95,616.61 26.24,168.79 48.73,338.21 72.3,507.46 29.19,209.53 59.02,418.99 86.41,628.76 36.8,281.4 70.63,563.19 147.11,837.62 7.85,28.11 9.94,57.86 16.34,96.7 -98.79,13.43 -188.68,25.67 -282.85,38.48 -6.47,-33.78 -10.89,-60.13 -16.7,-86.17 -6.7,-30.03 -18.22,-59.48 -21.23,-89.78 -4.76,-48.85 -33.14,-62.97 -76.37,-63.07 -78.15,-0.1 -112.18,29.58 -112.27,110.38 -0.06,56.24 10.05,112.53 15.81,170.77 -78.33,15.89 -150.25,37.35 -229.71,8.53 29.16,-88.3 -3.48,-153.22 -71,-203.83 -40.14,-30.06 -83.64,-16.29 -113.3,11.27 -72.8,67.77 -41.21,149.11 -10.04,235.31 -48.11,6.57 -89.6,12.24 -123.74,16.91 -24.12,-81.74 -44.52,-151 -64.06,-217.11 -61.72,-0.01 -112.78,-2.66 -163.46,0.63 -58.28,3.79 -74.2,27.61 -50.86,80.1 24.83,55.94 40.66,111.97 39.47,178.91 -52.06,3.01 -98.8,5.74 -153.5,8.92 -10.2,-81.33 -19.54,-155.55 -29.55,-235.29 -83.09,23.78 -150.8,43.16 -219.09,62.7 15.96,68.16 30.54,130.36 47.27,201.85 -63.89,-0.07 -117.13,-0.14 -173.92,-0.21 -6.83,-65.24 -12.98,-124.39 -19.64,-187.89 -74.62,12.94 -136.94,23.75 -202.69,35.13 6.07,61.19 11.71,117.89 17.87,179.97 -73.88,9.49 -139.64,17.94 -210.06,26.95 -7.65,-39.2 -15.27,-68.62 -18.91,-98.52 -11.23,-91.55 -17.51,-183.87 -31.89,-274.9 -33.01,-208.71 -74.16,-416.2 -103.7,-625.36 -37.18,-263.18 -56.84,-528.74 -109.7,-789.98 -14.85,-73.28 0.06,-154.71 -23.92,-223.64 -57.33,-164.79 -33.1,-338.32 -70.48,-505.33 -37.01,-165.4 -51.66,-335.9 -74.54,-504.37 -8.03,-59.47 -11.4,-119.5 -17.11,-180.92 41.76,-12.02 74.15,-28.58 107.04,-29.64 160.19,-5.03 320.52,-5.56 480.78,-8.38 150.01,-2.68 300.28,-1.66 449.95,-10.27 303.29,-17.45 606.23,-40.76 909.36,-60.64 81.49,-5.32 163.23,-6.96 252.65,-10.58 z m -1524.9,3386.07 c 8.65,61.29 17.95,107.75 21.04,154.63 3.62,54.78 24.65,84.03 73.09,90.07 56.6,7.01 120,-30.92 125.97,-79.81 3.22,-26.47 -3.05,-54.25 -6.25,-81.28 -3.5,-29.78 -8.42,-59.4 -14.78,-103.3 57.91,-1.44 107.25,-2.66 168.81,-4.16 8,37.1 16.79,71.54 22.68,106.49 10.09,59.84 42.34,91.76 91.76,88.02 68.38,-5.16 123.87,-59.39 117.17,-117.86 -3.42,-29.87 -13.43,-58.96 -22.97,-98.91 58.99,-7.59 111.41,-14.34 174.86,-22.48 5.68,59.89 10.68,112.53 16.05,168.71 55.88,52.19 113.67,32.35 172.98,-4.79 73.07,-45.79 32.89,-108.65 24.97,-179.6 39.93,-9.33 80.28,-18.77 132.6,-30.99 5.29,45.22 14.56,81.14 12.61,116.45 -4.26,77.54 6.49,95.13 75.26,100.86 75.49,6.34 130.46,-30 132.62,-94.29 1.59,-47.01 -6.91,-94.37 -11.62,-149.92 77.52,-8.81 150.29,-17.06 228.19,-25.88 6.53,40.13 12.02,73.2 17.23,106.3 9.34,59.27 32.51,76.67 88.12,65.88 71.17,-13.8 104.73,-62 90.84,-132.19 -3.87,-19.66 -10.75,-38.76 -18.32,-65.45 25.89,-7.5 46.85,-15.58 68.51,-19.51 94.13,-17.15 188.58,-32.58 282.74,-49.68 48.96,-8.9 63.45,-31.99 48.99,-78.38 -102.15,-327.52 -145.33,-666.1 -192.45,-1004.29 -28.72,-206.12 -36.28,-414.61 -87.85,-618.56 -33.16,-131.24 -35.8,-270.01 -56.18,-404.8 -21.44,-141.76 -51.53,-282.24 -70.95,-424.24 -21.63,-158.41 -36.6,-317.82 -52.23,-477.02 -5.61,-57.41 -4.07,-115.47 -6.81,-173.19 -2.58,-54.92 -23.45,-70.51 -78.92,-64.35 -155.74,17.371 -311.26,39.609 -467.51,49.31 -193.81,11.98 -388.33,11.82 -582.4,20.19 -57.17,2.47 -113.66,21.33 -170.8,23.65 -152.96,6.11 -306.1,7.23 -459.18,10.61 -20.47,0.46 -40.91,2.94 -61.39,4.13 -94.9,5.5 -187.72,17.41 -284.99,-1.85 -85.08,-16.78 -176.49,-2.99 -265.02,0.24 -45.72,1.66 -66.09,36.02 -64.61,75.9 2.93,78.14 8.84,156.51 19.86,233.91 21.55,151.43 48.95,302.04 71.22,453.37 40.21,273.34 78.18,546.99 117.52,820.46 51.57,358.59 113.47,716.08 151.34,1076.11 19.68,186.84 89.4,364.73 84.38,554.33 -1.18,44.07 5.06,88.56 1.37,132.28 -6.5,77.26 21.01,108.18 96.24,96.75 77.31,-11.74 154.18,-26.11 246.21,-41.87" /><path
         id="path20"
         style="fill:#231f20;fill-opacity:1;fill-rule:evenodd;stroke:none"
         d="m 1790,2766.04 c 214.86,-13.3 421.93,-24.72 628.78,-39.26 255.28,-17.91 510.44,-38.56 765.67,-57.69 91.76,-6.88 183.69,-11.99 275.38,-19.82 25.91,-2.24 51.2,-11.31 75.53,-34.82 -32.15,-2 -64.33,-6.42 -96.39,-5.6 -238.64,6.07 -476.56,18.09 -714.54,42.55 -250.75,25.81 -503.74,29.81 -755.75,43.4 -44.28,2.38 -88.68,3.76 -132.75,8.25 -36.49,3.76 -54.33,24.22 -45.93,62.99" /><path
         id="path22"
         style="fill:#231f20;fill-opacity:1;fill-rule:evenodd;stroke:none"
         d="m 1770.18,3047.13 c 63.74,1.65 112.61,6.53 161.02,3.58 307.32,-18.79 614.32,-41.9 921.75,-58.3 211.59,-11.31 423.65,-13.6 635.49,-21.23 24.42,-0.89 48.55,-10.22 72.82,-15.64 -0.23,-8.08 -0.44,-16.14 -0.67,-24.22 -24.07,-3.75 -48.33,-11.6 -72.2,-10.6 -419.94,17.64 -839.84,35.67 -1259.66,55.54 -67.79,3.2 -134.96,18.11 -202.77,22.82 -50.55,3.51 -101.72,0.82 -152.46,-2.05 -33.6,-1.93 -68.55,-14.85 -103.32,50.1" /><path
         id="path24"
         style="fill:#231f20;fill-opacity:1;fill-rule:evenodd;stroke:none"
         d="m 1862.1,3672.6 c 555.7,-85.46 1111.44,-39.85 1659.93,-111.1 7.16,-0.92 12.72,-14.14 27.49,-31.67 -26.22,-7.51 -46.89,-20.32 -65.42,-17.74 -192.05,26.67 -384.17,56.58 -578.63,43.28 -212.36,-14.5 -422.12,13.24 -632.89,27.13 -118.9,7.82 -238.12,11.91 -357.27,15.09 -42.66,1.15 -64.57,13.33 -53.21,75.01" /><path
         id="path26"
         style="fill:#231f20;fill-opacity:1;fill-rule:evenodd;stroke:none"
         d="m 1560.75,1966.78 c 553.47,5.88 1103.7,-51.48 1671.25,-89.17 -36.84,-44.31 -70.71,-36.87 -101.18,-35.3 -160.21,8.38 -320.4,17.85 -480.58,26.98 -265.91,15.17 -531.71,31.47 -797.69,44.93 -81.69,4.09 -163.82,-1.17 -245.56,1.73 -18.12,0.62 -35.66,17.4 -53.47,26.76 2.4,8.04 4.8,16.08 7.23,24.07" /><path
         id="path28"
         style="fill:#231f20;fill-opacity:1;fill-rule:evenodd;stroke:none"
         d="m 1884.25,3332.66 c 568.58,-43.47 1131.66,8.71 1689.93,-57.56 1.26,-7.19 2.49,-14.36 3.77,-21.53 -14.89,-6.51 -29.97,-19.19 -44.58,-18.69 -255.49,8.82 -510.9,22.2 -766.45,28.56 -269.21,6.71 -538.59,7.03 -807.88,10.27 -35.33,0.4 -79.11,-10.55 -74.79,58.95" /><path
         id="path30"
         style="fill:#231f20;fill-opacity:1;fill-rule:evenodd;stroke:none"
         d="m 3440.68,2410.12 c -118.38,-31.63 -237.86,-38.33 -359.83,-28.81 -313.17,24.46 -626.52,47.66 -940.04,66.86 -102.09,6.23 -205.03,-1 -307.58,-2.98 -34.26,-0.63 -68.06,-3.53 -85.14,50.7 572.31,32.42 1130.12,-73.22 1692.59,-85.77" /><path
         id="path32"
         style="fill:#231f20;fill-opacity:1;fill-rule:evenodd;stroke:none"
         d="m 1755.47,2209.75 c 7.82,66.16 42.2,64.08 76.76,63.27 225.37,-5.5 450.97,-6.77 676.12,-17.03 218.4,-9.94 436.49,-27.69 654.48,-44.88 76.92,-6.12 153.21,-20.76 228.43,-43.3 -541.9,27.2 -1082.51,65.71 -1635.79,41.94" /><path
         id="path34"
         style="fill:#231f20;fill-opacity:1;fill-rule:evenodd;stroke:none"
         d="m 1650.66,1616.08 c 51.78,68.9 107.71,64.87 159.79,64.41 140.18,-1.39 280.44,-3.06 420.5,-9.3 228.65,-10.26 457.27,-22.16 685.65,-37.92 83.88,-5.77 166.9,-24.44 249.56,-47.68 -497.62,22.23 -994.52,53.19 -1515.5,30.49" /></g></g></svg>