<?xml version="1.0" encoding="UTF-8" standalone="no"?>
<svg
   xmlns:dc="http://purl.org/dc/elements/1.1/"
   xmlns:cc="http://creativecommons.org/ns#"
   xmlns:rdf="http://www.w3.org/1999/02/22-rdf-syntax-ns#"
   xmlns:svg="http://www.w3.org/2000/svg"
   xmlns="http://www.w3.org/2000/svg"
   viewBox="0 0 500 430"
   height="430"
   width="500"
   xml:space="preserve"
   version="1.1"
   id="svg2"><metadata
     id="metadata8"><rdf:RDF><cc:Work
         rdf:about=""><dc:format>image/svg+xml</dc:format><dc:type
           rdf:resource="http://purl.org/dc/dcmitype/StillImage" /><dc:title></dc:title></cc:Work></rdf:RDF></metadata><defs
     id="defs6" /><g
     transform="matrix(1.25,0,0,-1.25,0,430.00002)"
     id="g10"><g
       transform="matrix(0.1,0,0,0.1,-84.069616,-111.30106)"
       id="g12"><path
         id="path14"
         style="fill:#231f20;fill-opacity:1;fill-rule:nonzero;stroke:none"
         d="m 3766.26,3386.47 c 17.74,-358.37 339.04,-718.64 502.36,-1028.82 101.14,-192.1 187.97,-383.73 259.25,-589.13 61.94,-178.48 210.18,-376.27 58.11,-544.01 -44.53,-49.12 37.05,-115.12 80.85,-64.62 74.26,85.63 128.01,140.07 120.48,255.54 -2.69,41.3 -110.67,227.23 -108.11,221.25 -45.32,105.99 -74.3,217.62 -115.38,325.05 -69.73,182.37 -169.17,352.12 -263.4,523.24 -153.77,279.23 -430.53,597.2 -490.14,909.24 -4.83,25.3 -45.25,17.11 -44.02,-7.74 l 0,0" /><path
         id="path16"
         style="fill:#231f20;fill-opacity:1;fill-rule:nonzero;stroke:none"
         d="m 4650.33,1217.97 c -318.85,322.45 -673.75,610.33 -979.07,946.03 -151.4,166.47 -352.21,283.71 -485.44,463.87 -22.68,30.67 -72.18,27.9 -88.22,-8.24 -75.6,-170.39 311.53,-368.86 407.84,-464.6 350.29,-348.25 688.27,-721.81 1104.36,-993.81 34.63,-22.65 67.47,29.49 40.53,56.75 l 0,0" /><path
         id="path18"
         style="fill:#231f20;fill-opacity:1;fill-rule:nonzero;stroke:none"
         d="m 3283.34,3739.89 c -370.32,114.63 -774.04,173.68 -1154.72,254.17 -366.62,77.52 -729.82,196.74 -1100.89,247.16 -18.38,2.5 -44.367,-12.31 -51.671,-29.31 -38.399,-89.35 -46.543,-145.17 -39.047,-246.01 5.515,-74.21 121.808,-78.05 116.708,-2.83 -14.92,219.83 350.69,79.4 477.3,55.95 209.16,-38.74 415.83,-89.49 624.84,-128.91 191.82,-36.18 378.89,-75.94 568.93,-120.54 176.96,-41.54 363.56,-43.33 538.83,-87.44 37.6,-9.46 57.7,46.01 19.72,57.76 l 0,0" /><path
         id="path20"
         style="fill:#231f20;fill-opacity:1;fill-rule:nonzero;stroke:none"
         d="m 2738.93,2958.98 c -132.55,24.82 -390.8,200.2 -516.76,277.62 -191.53,117.73 -374.58,250.27 -553.93,385.27 -126.7,95.37 -252.35,177.4 -390.36,256.07 -111.99,63.84 -196.9,158.13 -322.618,186.92 -69.289,15.86 -106.477,-89.78 -36.551,-105.29 110.789,-24.59 214.779,-119.11 316.389,-173.54 183.07,-98.08 337.91,-224.6 505.44,-345.44 164.16,-118.4 344.01,-233.35 520.47,-333.15 146.52,-82.87 299.83,-193.08 470.03,-200.95 33.58,-1.55 42.1,46.08 7.89,52.49 l 0,0" /><path
         id="path22"
         style="fill:#231f20;fill-opacity:1;fill-rule:nonzero;stroke:none"
         d="m 3976.97,4442.83 c 78.36,-41.22 235.14,-16.84 221.45,-154.2 -5.28,-53.02 -93.3,-134.8 -120.75,-183.69 -80.43,-143.29 -134.42,-294.13 -225.62,-432.18 -72.01,-109 -127.18,-183.92 -132.95,-313.63 -2.46,-55.14 71.63,-59.38 89.77,-13.56 75.87,191.67 200.18,356.93 287.14,544.72 59.89,129.32 158.82,247.7 208.07,379.68 91.8,245.99 -139.89,194.06 -290.65,254.56 -47.28,18.98 -81.73,-57.9 -36.46,-81.7 l 0,0" /><path
         id="path24"
         style="fill:#231f20;fill-opacity:1;fill-rule:nonzero;stroke:none"
         d="m 4045.37,4502.66 c -151.54,-70.21 -296.58,-183.04 -420.78,-293.07 -58.39,-51.73 -104.29,-116.63 -156.86,-173.91 -59.66,-65.01 -132.85,-109.54 -195.15,-171.17 -55.39,-54.78 30.56,-137.42 86.7,-84 103.32,98.34 189.76,179.73 277.29,294.77 109.78,144.29 275.61,295.97 425.19,395.52 18.8,12.52 5.05,41.79 -16.39,31.86 l 0,0" /><path
         id="path26"
         style="fill:#231f20;fill-opacity:1;fill-rule:nonzero;stroke:none"
         d="m 3107.54,2660.85 c -34.08,-85.43 -101.14,-118.14 -166.71,-181.22 -89.36,-85.97 -170.8,-169.33 -267.27,-248.85 -132.06,-108.87 -226.11,-263.17 -325.56,-400.47 -42.14,-58.17 45.54,-116.35 90.43,-62.86 138.35,164.83 249.67,324.88 409.5,471.6 120.61,110.72 282.67,236.7 321.93,403.28 9.71,41.22 -46.94,57.11 -62.32,18.52 l 0,0" /><path
         id="path28"
         style="fill:#231f20;fill-opacity:1;fill-rule:nonzero;stroke:none"
         d="M 2728.14,2954.23 C 2570.05,2922.69 2481.05,2744.79 2382.52,2630.95 2214.55,2436.9 2009.14,2238.79 1882,2016.27 c -23.47,-41.08 26.04,-89.89 64.41,-56.26 132.67,116.29 233.63,270.73 342.88,408.79 102.28,129.25 310.03,491.4 452.55,542.44 27.89,9.99 14.27,48.57 -13.7,42.99 l 0,0" /><path
         id="path30"
         style="fill:#231f20;fill-opacity:1;fill-rule:nonzero;stroke:none"
         d="m 1934.42,2043.62 c -90.81,-24.61 -174.44,4.61 -263.23,17.18 -82.13,11.63 -165.56,-3.1 -248.44,14.82 -54.41,11.77 -97.44,-46.74 -59.63,-92.52 62.16,-75.27 137.93,-130.44 220.81,-181 86.15,-52.54 173,-115.95 263.59,-158.91 47.36,-22.47 95.4,41.67 62.17,81.42 -121.14,144.9 -330.06,194.72 -461.89,334.86 -15.09,-31.71 -30.19,-63.42 -45.28,-95.12 102.12,-15.03 202.77,5.41 304.83,-0.25 81.97,-4.54 166.72,-0.89 241.76,35.46 26.26,12.72 14.99,52.1 -14.69,44.06 l 0,0" /><path
         id="path32"
         style="fill:#231f20;fill-opacity:1;fill-rule:nonzero;stroke:none"
         d="m 2020.39,1529.47 c 34.05,-40.12 -2.24,-65.25 -43.16,-71.32 -39.8,-5.91 -85.28,7.28 -119.32,27.72 -22.01,13.21 -52.92,29.39 -58.84,54.43 -6.41,27.14 15.61,52.69 29.62,73.96 34.94,53.03 -41.87,120.22 -87.42,72.83 -56.77,-59.07 -82.61,-126.53 -46.31,-205.32 31.91,-69.27 135.84,-115.75 207.94,-124.85 66.67,-8.41 140.29,8.42 186.02,60.46 49.9,56.79 28.18,116 -29.17,156.33 -27.93,19.64 -61.23,-18.46 -39.36,-44.24 l 0,0" /><path
         id="path34"
         style="fill:#231f20;fill-opacity:1;fill-rule:nonzero;stroke:none"
         d="m 2623.53,3871.9 c 38.25,-37.74 96.98,-49.24 142.51,-14.13 49.35,38.04 14.49,113.51 -19.42,150.38 -90.29,98.17 -208.02,71.22 -290.85,-21.4 -45.24,-50.58 40.12,-116.1 84.67,-64.04 21.96,25.68 58.29,58.13 95.31,45.88 32.82,-10.86 57.54,-48.34 65.22,-79.69 4.24,14.28 8.48,28.56 12.73,42.84 -14.19,-16.78 -40.8,-32.21 -64.26,-23.37 -22.84,8.61 -45.45,-17.19 -25.91,-36.47 l 0,0" /><path
         id="path36"
         style="fill:#231f20;fill-opacity:1;fill-rule:nonzero;stroke:none"
         d="m 2202.09,3930.51 c -37.15,114.95 -79.14,216.34 -192.74,276.06 -97.15,51.07 -213.07,29.57 -220.89,-95.4 -4.14,-66.09 87.13,-81.98 102.18,-16.27 15.61,68.14 95.02,22.61 133,-2.99 67.89,-45.76 98.33,-113.61 136.12,-182.65 13.32,-24.34 50.39,-3.71 42.33,21.25 l 0,0" /><path
         id="path38"
         style="fill:#231f20;fill-opacity:1;fill-rule:nonzero;stroke:none"
         d="m 4026,2824.47 c 66.4,-4.44 227.54,-93.45 182.78,-179.63 -19.01,-36.61 30.27,-69.61 58.37,-40.52 123.4,127.73 -117.97,290.75 -238.48,268.72 -24.68,-4.51 -32.59,-46.57 -2.67,-48.57 l 0,0" /><path
         id="path40"
         style="fill:#231f20;fill-opacity:1;fill-rule:nonzero;stroke:none"
         d="m 4318.51,2354.4 c 72.33,-5.84 151.7,-25.91 171.86,-105.06 17.15,-67.35 -11.09,-140.25 -32.21,-203.23 -11.51,-34.33 35.73,-55.06 55.85,-26.56 55.68,78.89 77.09,192.39 27.48,280.43 -46.3,82.16 -136.61,102.87 -222.99,82.03 -14.13,-3.41 -16.9,-26.25 0.01,-27.61 l 0,0" /><path
         id="path42"
         style="fill:#231f20;fill-opacity:1;fill-rule:nonzero;stroke:none"
         d="m 4673.81,1179.3 c -95.35,209.48 -272.45,350.88 -436.57,508.34 -230.6,221.24 -468.26,452.72 -718.38,651.66 -36.53,29.05 -83.61,-23.35 -48.21,-54.78 217.79,-193.37 435.47,-386.64 654.51,-578.49 181.23,-158.75 394.84,-337.51 512.27,-548.62 13.57,-24.4 47.43,-2.37 36.38,21.89 l 0,0" /><path
         id="path44"
         style="fill:#231f20;fill-opacity:1;fill-rule:nonzero;stroke:none"
         d="m 2652.53,3075.91 c -293.31,210.65 -603.93,390.14 -908.72,584.03 -199.23,126.74 -379.54,270.32 -564.41,413.95 -60.25,46.81 -91.31,78.53 -169.81,71.73 -57.906,-5.02 -61.102,-95.64 -1.99,-91.53 123.14,8.57 377.37,-239.06 477.18,-306.82 118.34,-80.33 233.26,-156.17 358.08,-227.59 267.2,-152.88 528.62,-317.64 788.72,-480.7 23.59,-14.79 42.64,21.35 20.95,36.93 l 0,0" /><path
         id="path46"
         style="fill:#231f20;fill-opacity:1;fill-rule:nonzero;stroke:none"
         d="m 2448.68,1745.78 c -7.13,-2.39 14.86,5.59 13.44,4.9 50.48,24.55 -20.35,92.66 -42.91,45.08 -38.21,-80.6 15.35,-141.41 35.56,-222.3 27.04,-108.22 31.36,-221.64 64.16,-328 12.74,-41.32 76.3,-26.12 73.26,15.8 -7.26,100.05 -32.97,200.41 -55.04,298.15 -16.02,70.96 -67.13,146.55 -58.36,218.34 6.71,54.98 -98.34,30.83 -55.45,-21.09 1.84,-2.23 3.68,-4.45 5.51,-6.68 5.16,-6.24 12.79,-6.56 19.83,-4.2 l 0,0" /><path
         id="path48"
         style="fill:#231f20;fill-opacity:1;fill-rule:nonzero;stroke:none"
         d="m 2045.09,1569.01 c -45.23,-82.18 54.86,-147.13 117.15,-180.79 58.2,-31.45 115.07,-56.5 170.75,-93.44 72.43,-48.05 108.57,-124.49 199.74,-120.31 42.03,1.93 57.37,54.64 35.47,84.95 -70.35,97.38 -184.25,153.08 -295.36,193.81 -31.22,11.45 -183.77,51.55 -174.81,96.22 5.62,27.99 -39.12,44.67 -52.94,19.56 l 0,0" /></g></g></svg>